<svg width="10" height="11" viewBox="0 0 10 11" fill="none" xmlns="http://www.w3.org/2000/svg">
<path fill-rule="evenodd" clip-rule="evenodd" d="M2.72941 10.3446L8.135 5.8855C8.26452 5.77618 8.33268 5.64384 8.33268 5.5C8.33268 5.3504 8.26452 5.21231 8.135 5.1145L2.73623 0.6611C2.61353 0.55754 2.46356 0.5 2.28633 0.5C1.93186 0.5 1.66602 0.73015 1.66602 1.02934C1.66602 1.16743 1.73418 1.30552 1.84325 1.40334L6.80576 5.5L1.84325 9.59666C1.73418 9.69448 1.66602 9.82681 1.66602 9.97066C1.66602 10.2698 1.93186 10.5 2.28633 10.5C2.46356 10.5 2.61353 10.4425 2.72941 10.3446Z" fill="#00517A"/>
</svg>
