<svg width="50" height="50" viewBox="0 0 50 50" fill="none" xmlns="http://www.w3.org/2000/svg">
<rect width="50" height="50" rx="25" fill="#F39800"/>
<path d="M36.2468 16.091L33.4674 13.659C32.9852 13.2371 32.3312 13 31.6492 13H22.4286C21.0084 13 19.8571 14.0073 19.8571 15.25V17.5H15.5714C14.1513 17.5 13 18.5073 13 19.75V34.75C13 35.9927 14.1513 37 15.5714 37H27.5714C28.9916 37 30.1429 35.9927 30.1429 34.75V32.5H34.4286C35.8488 32.5 37 31.4927 37 30.25V17.682C37 17.0852 36.7291 16.5129 36.2468 16.091ZM27.25 34.75H15.8929C15.8076 34.75 15.7259 34.7204 15.6656 34.6676C15.6053 34.6149 15.5714 34.5433 15.5714 34.4688V20.0312C15.5714 19.9567 15.6053 19.8851 15.6656 19.8324C15.7259 19.7796 15.8076 19.75 15.8929 19.75H19.8571V30.25C19.8571 31.4927 21.0084 32.5 22.4286 32.5H27.5714V34.4688C27.5714 34.5433 27.5376 34.6149 27.4773 34.6676C27.417 34.7204 27.3352 34.75 27.25 34.75ZM34.1071 30.25H22.75C22.6648 30.25 22.583 30.2204 22.5227 30.1676C22.4624 30.1149 22.4286 30.0433 22.4286 29.9688V15.5312C22.4286 15.4567 22.4624 15.3851 22.5227 15.3324C22.583 15.2796 22.6648 15.25 22.75 15.25H28.4286V19.375C28.4286 19.9963 29.0042 20.5 29.7143 20.5H34.4286V29.9688C34.4286 30.0433 34.3947 30.1149 34.3344 30.1676C34.2741 30.2204 34.1924 30.25 34.1071 30.25ZM34.4286 18.25H31V15.25H31.516C31.6012 15.25 31.683 15.2796 31.7433 15.3324L34.3344 17.5996C34.3643 17.6257 34.388 17.6567 34.4041 17.6909C34.4203 17.725 34.4286 17.7616 34.4286 17.7985V18.25Z" fill="white"/>
</svg>
