<svg width="16" height="24" viewBox="0 0 16 24" fill="none" xmlns="http://www.w3.org/2000/svg">
<path d="M6.38782 11.9496L14.4517 3.88571C14.876 3.45891 15.1142 2.88156 15.1142 2.27976C15.1142 1.67796 14.876 1.10061 14.4517 0.673812C14.24 0.460304 13.988 0.290837 13.7104 0.175189C13.4329 0.0595409 13.1351 0 12.8344 0C12.5337 0 12.2359 0.0595409 11.9584 0.175189C11.6808 0.290837 11.4288 0.460304 11.2171 0.673812L1.55858 10.3323C1.34507 10.5441 1.1756 10.796 1.05996 11.0736C0.944308 11.3512 0.884766 11.6489 0.884766 11.9496C0.884766 12.2504 0.944308 12.5481 1.05996 12.8257C1.1756 13.1033 1.34507 13.3552 1.55858 13.567L11.2171 23.3394C11.4299 23.5505 11.6823 23.7175 11.9599 23.8309C12.2374 23.9442 12.5346 24.0017 12.8344 24C13.1342 24.0017 13.4314 23.9442 13.7089 23.8309C13.9865 23.7175 14.2389 23.5505 14.4517 23.3394C14.876 22.9126 15.1142 22.3352 15.1142 21.7334C15.1142 21.1316 14.876 20.5543 14.4517 20.1275L6.38782 11.9496Z" fill="white"/>
</svg>
