<svg width="60" height="60" viewBox="0 0 60 60" fill="none" xmlns="http://www.w3.org/2000/svg">
<rect width="60" height="60" rx="30" fill="#F39800"/>
<path d="M26.3878 29.9496L34.4517 21.8857C34.876 21.4589 35.1142 20.8816 35.1142 20.2798C35.1142 19.678 34.876 19.1006 34.4517 18.6738C34.24 18.4603 33.988 18.2908 33.7104 18.1752C33.4329 18.0595 33.1351 18 32.8344 18C32.5337 18 32.2359 18.0595 31.9584 18.1752C31.6808 18.2908 31.4288 18.4603 31.2171 18.6738L21.5586 28.3323C21.3451 28.5441 21.1756 28.796 21.06 29.0736C20.9443 29.3512 20.8848 29.6489 20.8848 29.9496C20.8848 30.2504 20.9443 30.5481 21.06 30.8257C21.1756 31.1033 21.3451 31.3552 21.5586 31.567L31.2171 41.3394C31.4299 41.5505 31.6823 41.7175 31.9599 41.8309C32.2374 41.9442 32.5346 42.0017 32.8344 42C33.1342 42.0017 33.4314 41.9442 33.7089 41.8309C33.9865 41.7175 34.2389 41.5505 34.4517 41.3394C34.876 40.9126 35.1142 40.3352 35.1142 39.7334C35.1142 39.1316 34.876 38.5543 34.4517 38.1275L26.3878 29.9496Z" fill="white"/>
</svg>
