<svg width="60" height="60" viewBox="0 0 60 60" fill="none" xmlns="http://www.w3.org/2000/svg">
<rect width="60" height="60" rx="30" fill="#F39800"/>
<path d="M33.6122 29.9496L25.5483 21.8857C25.124 21.4589 24.8858 20.8816 24.8858 20.2798C24.8858 19.678 25.124 19.1006 25.5483 18.6738C25.76 18.4603 26.012 18.2908 26.2896 18.1752C26.5671 18.0595 26.8649 18 27.1656 18C27.4663 18 27.7641 18.0595 28.0416 18.1752C28.3192 18.2908 28.5712 18.4603 28.7829 18.6738L38.4414 28.3323C38.6549 28.5441 38.8244 28.796 38.94 29.0736C39.0557 29.3512 39.1152 29.6489 39.1152 29.9496C39.1152 30.2504 39.0557 30.5481 38.94 30.8257C38.8244 31.1033 38.6549 31.3552 38.4414 31.567L28.7829 41.3394C28.5701 41.5505 28.3177 41.7175 28.0401 41.8309C27.7626 41.9442 27.4654 42.0017 27.1656 42C26.8658 42.0017 26.5686 41.9442 26.2911 41.8309C26.0135 41.7175 25.7611 41.5505 25.5483 41.3394C25.124 40.9126 24.8858 40.3352 24.8858 39.7334C24.8858 39.1316 25.124 38.5543 25.5483 38.1275L33.6122 29.9496Z" fill="white"/>
</svg>
