<svg width="48" height="48" viewBox="0 0 48 48" fill="none" xmlns="http://www.w3.org/2000/svg">
<rect width="48" height="48" rx="24" fill="white"/>
<path d="M31.2475 12.8H16.9413C14.6578 12.8 12.8 14.6578 12.8 16.9413V31.2475C12.8 33.5309 14.6578 35.3893 16.9413 35.3893H31.2475C33.5309 35.3893 35.3893 33.5315 35.3893 31.2475V16.9413C35.3893 14.6578 33.5315 12.8 31.2475 12.8ZM24.0944 31.5309C19.9943 31.5309 16.6584 28.195 16.6584 24.0944C16.6584 19.9943 19.9943 16.6584 24.0944 16.6584C28.195 16.6584 31.5309 19.9943 31.5309 24.0944C31.5309 28.1945 28.1945 31.5309 24.0944 31.5309ZM31.7699 18.1958C30.7993 18.1958 30.01 17.4065 30.01 16.4364C30.01 15.4664 30.7993 14.677 31.7699 14.677C32.74 14.677 33.5293 15.4664 33.5293 16.4364C33.5293 17.4065 32.74 18.1958 31.7699 18.1958Z" fill="#F2994A"/>
<path d="M23.4942 19.2C21.1273 19.2 19.2 21.1262 19.2 23.4931C19.2 25.8611 21.1273 27.7879 23.4942 27.7879C25.8622 27.7879 27.7879 25.8611 27.7879 23.4931C27.7879 21.1268 25.8616 19.2 23.4942 19.2Z" fill="#F2994A"/>
<path d="M24 0C10.7457 0 0 10.7457 0 24C0 37.2543 10.7457 48 24 48C37.2543 48 48 37.2543 48 24C48 10.7457 37.2543 0 24 0ZM38.4367 31.2178C38.4367 35.2345 35.1698 38.5014 31.1531 38.5014H16.8469C12.8308 38.5014 9.56331 35.2345 9.56331 31.2178V16.9116C9.56331 12.8955 12.8308 9.62802 16.8469 9.62802H31.1531C35.1698 9.62802 38.4367 12.8955 38.4367 16.9116V31.2178Z" fill="#F2994A"/>
</svg>
