<svg width="331" height="400" viewBox="0 0 331 400" fill="none" xmlns="http://www.w3.org/2000/svg">
<rect width="330" height="400" transform="translate(0.5)" fill="#576275"/>
<path d="M309.5 17H21.5V383H309.5V17Z" fill="#F8FBF9"/>
<path d="M179.803 48.5492C179.803 41.4743 173.397 35.739 165.495 35.739C157.593 35.739 151.187 41.4743 151.187 48.5492C151.187 55.6241 157.593 61.3594 165.495 61.3594C173.397 61.3594 179.803 55.6241 179.803 48.5492Z" fill="#262324"/>
<path d="M82.46 176.28H94.98V180.84H82.46V176.28ZM86.78 167.56H91.26V194.08H86.78V167.56ZM81.58 193.44C82.7 193.04 83.9667 192.56 85.38 192C86.82 191.413 88.34 190.787 89.94 190.12C91.5667 189.453 93.18 188.787 94.78 188.12L95.86 192.36C93.7533 193.4 91.62 194.44 89.46 195.48C87.3267 196.52 85.34 197.44 83.5 198.24L81.58 193.44ZM105.42 167H109.9V195.24H105.42V167ZM93.58 183.12L114.3 174.28L116.02 178.4L95.34 187.36L93.58 183.12ZM97.54 170.88H102.1V196.8C102.1 197.573 102.153 198.16 102.26 198.56C102.393 198.933 102.66 199.187 103.06 199.32C103.487 199.453 104.1 199.52 104.9 199.52C105.14 199.52 105.513 199.52 106.02 199.52C106.553 199.52 107.14 199.52 107.78 199.52C108.447 199.52 109.1 199.52 109.74 199.52C110.407 199.52 110.993 199.52 111.5 199.52C112.033 199.52 112.433 199.52 112.7 199.52C113.42 199.52 113.967 199.387 114.34 199.12C114.713 198.853 114.993 198.36 115.18 197.64C115.367 196.92 115.513 195.867 115.62 194.48C116.127 194.853 116.78 195.213 117.58 195.56C118.407 195.88 119.153 196.107 119.82 196.24C119.607 198.133 119.273 199.627 118.82 200.72C118.367 201.813 117.687 202.6 116.78 203.08C115.873 203.56 114.647 203.8 113.1 203.8C112.833 203.8 112.407 203.8 111.82 203.8C111.233 203.8 110.58 203.8 109.86 203.8C109.14 203.8 108.42 203.8 107.7 203.8C106.98 203.8 106.327 203.8 105.74 203.8C105.18 203.8 104.78 203.8 104.54 203.8C102.727 203.8 101.3 203.6 100.26 203.2C99.2467 202.8 98.54 202.093 98.14 201.08C97.74 200.067 97.54 198.64 97.54 196.8V170.88ZM113.1 175.4H112.66L114.3 174.28L117.9 175.44L117.74 176.16C117.66 178.027 117.54 180.027 117.38 182.16C117.247 184.267 117.06 186.347 116.82 188.4C116.607 190.453 116.327 192.28 115.98 193.88L112.1 192.8C112.26 191.733 112.393 190.493 112.5 189.08C112.607 187.667 112.7 186.173 112.78 184.6C112.887 183.027 112.967 181.453 113.02 179.88C113.073 178.307 113.1 176.813 113.1 175.4ZM138.58 185.92H161.3V190.08H138.58V185.92ZM156.9 176.24L160.34 179.72C158.18 180.2 155.793 180.6 153.18 180.92C150.567 181.24 147.887 181.48 145.14 181.64C142.42 181.8 139.793 181.92 137.26 182C137.207 181.467 137.06 180.84 136.82 180.12C136.607 179.373 136.38 178.76 136.14 178.28C137.98 178.2 139.86 178.107 141.78 178C143.7 177.893 145.58 177.76 147.42 177.6C149.26 177.413 150.98 177.213 152.58 177C154.207 176.76 155.647 176.507 156.9 176.24ZM147.46 179.04H152.18C152.207 181.707 152.38 184.267 152.7 186.72C153.02 189.147 153.447 191.32 153.98 193.24C154.513 195.16 155.087 196.68 155.7 197.8C156.34 198.893 156.98 199.44 157.62 199.44C157.967 199.44 158.22 199.027 158.38 198.2C158.567 197.347 158.7 196.04 158.78 194.28C159.26 194.76 159.847 195.213 160.54 195.64C161.26 196.04 161.913 196.333 162.5 196.52C162.313 198.52 162.007 200.053 161.58 201.12C161.18 202.213 160.62 202.96 159.9 203.36C159.207 203.787 158.34 204 157.3 204C156.047 204 154.913 203.56 153.9 202.68C152.887 201.8 151.993 200.573 151.22 199C150.447 197.4 149.793 195.56 149.26 193.48C148.727 191.4 148.313 189.133 148.02 186.68C147.727 184.2 147.54 181.653 147.46 179.04ZM130.66 170.76H162.3V175.04H130.66V170.76ZM128.34 170.76H133.02V182.04C133.02 183.667 132.967 185.467 132.86 187.44C132.753 189.413 132.553 191.44 132.26 193.52C131.967 195.573 131.54 197.56 130.98 199.48C130.42 201.4 129.687 203.133 128.78 204.68C128.487 204.413 128.087 204.093 127.58 203.72C127.1 203.373 126.593 203.027 126.06 202.68C125.553 202.36 125.113 202.133 124.74 202C125.567 200.56 126.22 199 126.7 197.32C127.18 195.613 127.54 193.867 127.78 192.08C128.02 190.293 128.167 188.547 128.22 186.84C128.3 185.107 128.34 183.507 128.34 182.04V170.76ZM142.3 167.84L147.18 166.76C147.66 167.56 148.1 168.48 148.5 169.52C148.9 170.533 149.167 171.427 149.3 172.2L144.22 173.48C144.113 172.707 143.887 171.787 143.54 170.72C143.193 169.653 142.78 168.693 142.3 167.84ZM141.34 199.76H151.58V203.52H141.34V199.76ZM136.42 200.56L136.06 196.68L137.94 195.24L147.34 193.2C147.287 193.813 147.26 194.52 147.26 195.32C147.287 196.12 147.327 196.773 147.38 197.28C145.273 197.787 143.553 198.227 142.22 198.6C140.887 198.947 139.833 199.24 139.06 199.48C138.313 199.693 137.74 199.893 137.34 200.08C136.967 200.24 136.66 200.4 136.42 200.56ZM136.42 200.56C136.34 200.187 136.207 199.76 136.02 199.28C135.833 198.773 135.62 198.28 135.38 197.8C135.167 197.32 134.953 196.947 134.74 196.68C135.087 196.493 135.407 196.2 135.7 195.8C135.993 195.373 136.14 194.76 136.14 193.96V178.28L140.66 179.52V196.96C140.66 196.96 140.447 197.08 140.02 197.32C139.593 197.56 139.1 197.867 138.54 198.24C137.98 198.587 137.487 198.96 137.06 199.36C136.633 199.76 136.42 200.16 136.42 200.56ZM169.18 169.96H205.06V174.8H169.18V169.96ZM183.7 174.28H188.86V204.48H183.7V174.28ZM186.42 184L189.7 180.16C190.793 180.693 191.967 181.307 193.22 182C194.5 182.667 195.767 183.373 197.02 184.12C198.273 184.867 199.46 185.6 200.58 186.32C201.7 187.013 202.633 187.68 203.38 188.32L199.82 192.72C199.127 192.08 198.247 191.387 197.18 190.64C196.14 189.867 194.993 189.093 193.74 188.32C192.513 187.547 191.273 186.787 190.02 186.04C188.767 185.267 187.567 184.587 186.42 184ZM216.02 173.52H228.3V200.44H216.02V196.24H223.98V177.68H216.02V173.52ZM213.22 173.52H217.58V203.4H213.22V173.52ZM215.86 184.2H226.06V188.36H215.86V184.2ZM218.94 167L224.14 167.76C223.713 169.12 223.247 170.467 222.74 171.8C222.26 173.133 221.82 174.267 221.42 175.2L217.58 174.32C217.767 173.627 217.94 172.853 218.1 172C218.287 171.147 218.46 170.28 218.62 169.4C218.78 168.52 218.887 167.72 218.94 167ZM233.58 173.2H245.3V177.6H233.58V173.2ZM243.62 173.2H248.06C248.06 173.2 248.06 173.347 248.06 173.64C248.06 173.907 248.06 174.213 248.06 174.56C248.06 174.907 248.047 175.173 248.02 175.36C247.913 179.867 247.78 183.693 247.62 186.84C247.487 189.96 247.313 192.547 247.1 194.6C246.913 196.627 246.687 198.213 246.42 199.36C246.153 200.507 245.807 201.347 245.38 201.88C244.847 202.653 244.273 203.187 243.66 203.48C243.047 203.773 242.34 203.987 241.54 204.12C240.767 204.227 239.807 204.267 238.66 204.24C237.54 204.24 236.393 204.227 235.22 204.2C235.193 203.533 235.033 202.747 234.74 201.84C234.447 200.96 234.087 200.187 233.66 199.52C234.94 199.627 236.127 199.693 237.22 199.72C238.34 199.747 239.153 199.76 239.66 199.76C240.06 199.76 240.38 199.72 240.62 199.64C240.887 199.533 241.14 199.347 241.38 199.08C241.727 198.733 242.007 198.027 242.22 196.96C242.46 195.867 242.66 194.333 242.82 192.36C242.98 190.387 243.127 187.893 243.26 184.88C243.393 181.867 243.513 178.28 243.62 174.12V173.2ZM233.7 167.04L238.34 168.12C237.833 170.067 237.207 172.013 236.46 173.96C235.74 175.907 234.94 177.747 234.06 179.48C233.207 181.187 232.327 182.68 231.42 183.96C231.153 183.693 230.767 183.387 230.26 183.04C229.78 182.667 229.287 182.307 228.78 181.96C228.3 181.613 227.873 181.347 227.5 181.16C228.38 180.013 229.207 178.693 229.98 177.2C230.78 175.68 231.487 174.053 232.1 172.32C232.74 170.56 233.273 168.8 233.7 167.04ZM231.74 184.76L235.5 182.64C236.167 183.547 236.873 184.547 237.62 185.64C238.367 186.733 239.073 187.8 239.74 188.84C240.407 189.88 240.953 190.8 241.38 191.6L237.3 194.08C236.927 193.253 236.42 192.307 235.78 191.24C235.167 190.173 234.5 189.08 233.78 187.96C233.087 186.813 232.407 185.747 231.74 184.76ZM94.22 240.16L97.74 242.72C96.8067 243.653 95.9133 244.6 95.06 245.56C94.2333 246.493 93.4733 247.293 92.78 247.96L90.22 245.96C90.6733 245.453 91.14 244.867 91.62 244.2C92.1 243.507 92.5667 242.813 93.02 242.12C93.5 241.4 93.9 240.747 94.22 240.16ZM83.94 221H88.18V229.84H83.94V221ZM85.9 238.36H90.06C89.98 240.707 89.8067 242.907 89.54 244.96C89.3 246.987 88.86 248.84 88.22 250.52C87.6067 252.2 86.7133 253.72 85.54 255.08C84.3667 256.44 82.82 257.6 80.9 258.56C80.66 258 80.2733 257.373 79.74 256.68C79.2333 256.013 78.74 255.467 78.26 255.04C79.94 254.267 81.2733 253.333 82.26 252.24C83.2467 251.147 83.9933 249.907 84.5 248.52C85.0067 247.107 85.3533 245.56 85.54 243.88C85.7267 242.173 85.8467 240.333 85.9 238.36ZM89.42 243.44C89.9 245.067 90.54 246.627 91.34 248.12C92.1667 249.613 93.14 250.947 94.26 252.12C95.4067 253.267 96.6867 254.2 98.1 254.92C97.6467 255.32 97.14 255.84 96.58 256.48C96.0467 257.147 95.6333 257.76 95.34 258.32C93.7667 257.413 92.38 256.253 91.18 254.84C90.0067 253.4 88.9933 251.787 88.14 250C87.2867 248.187 86.5933 246.253 86.06 244.2L89.42 243.44ZM77.22 232.84H97.42V236.84H77.22V232.84ZM75.46 232.84H79.7V240.76C79.7 242.067 79.6467 243.507 79.54 245.08C79.46 246.627 79.2867 248.213 79.02 249.84C78.7533 251.44 78.38 253 77.9 254.52C77.42 256.04 76.7933 257.413 76.02 258.64C75.7533 258.373 75.3933 258.08 74.94 257.76C74.5133 257.467 74.06 257.173 73.58 256.88C73.1 256.613 72.6867 256.413 72.34 256.28C73.3 254.76 73.9933 253.08 74.42 251.24C74.8733 249.4 75.1533 247.573 75.26 245.76C75.3933 243.92 75.46 242.24 75.46 240.72V232.84ZM78.54 242.24L81.5 240.44C81.9267 241.053 82.3667 241.72 82.82 242.44C83.3 243.133 83.74 243.813 84.14 244.48C84.5667 245.12 84.9 245.693 85.14 246.2L82.02 248.28C81.8067 247.747 81.5 247.133 81.1 246.44C80.7 245.747 80.2733 245.04 79.82 244.32C79.3667 243.573 78.94 242.88 78.54 242.24ZM75.94 222.24H80.22V227.16H91.98V222.24H96.46V231.04H75.94V222.24ZM60.82 222.8H74.54V227.12H60.82V222.8ZM65.26 235.24H73.66V253.68H65.26V249.52H70.1V239.44H65.26V235.24ZM65.46 225.04L69.82 226C69.34 228.533 68.7133 231.053 67.94 233.56C67.1933 236.067 66.3 238.413 65.26 240.6C64.2467 242.787 63.0333 244.707 61.62 246.36C61.5667 245.933 61.4467 245.36 61.26 244.64C61.0733 243.92 60.86 243.2 60.62 242.48C60.38 241.733 60.1533 241.133 59.94 240.68C61.3533 238.787 62.5 236.467 63.38 233.72C64.2867 230.973 64.98 228.08 65.46 225.04ZM63.26 235.24H67.18V256.68H63.26V235.24ZM121.14 221.76H125.74V250.64C125.74 251.413 125.793 252 125.9 252.4C126.007 252.8 126.22 253.067 126.54 253.2C126.887 253.333 127.367 253.4 127.98 253.4C128.22 253.4 128.593 253.4 129.1 253.4C129.633 253.4 130.22 253.4 130.86 253.4C131.5 253.4 132.087 253.4 132.62 253.4C133.18 253.4 133.58 253.4 133.82 253.4C134.513 253.4 135.033 253.173 135.38 252.72C135.753 252.267 136.02 251.44 136.18 250.24C136.34 249.04 136.473 247.32 136.58 245.08C137.14 245.507 137.833 245.92 138.66 246.32C139.487 246.693 140.207 246.947 140.82 247.08C140.66 249.667 140.367 251.733 139.94 253.28C139.54 254.827 138.887 255.933 137.98 256.6C137.1 257.293 135.847 257.64 134.22 257.64C133.98 257.64 133.633 257.64 133.18 257.64C132.753 257.64 132.247 257.64 131.66 257.64C131.1 257.64 130.54 257.64 129.98 257.64C129.42 257.64 128.913 257.64 128.46 257.64C128.007 257.64 127.687 257.64 127.5 257.64C125.847 257.64 124.553 257.427 123.62 257C122.687 256.6 122.033 255.88 121.66 254.84C121.313 253.8 121.14 252.373 121.14 250.56V221.76ZM113.54 221.16L117.98 222.68C117.047 224.947 115.927 227.213 114.62 229.48C113.313 231.747 111.9 233.893 110.38 235.92C108.86 237.92 107.3 239.667 105.7 241.16C105.54 240.76 105.313 240.253 105.02 239.64C104.727 239 104.407 238.36 104.06 237.72C103.713 237.08 103.407 236.56 103.14 236.16C104.527 234.96 105.86 233.573 107.14 232C108.42 230.4 109.607 228.68 110.7 226.84C111.82 224.973 112.767 223.08 113.54 221.16ZM109.54 232.04L114.1 227.48V227.52V258.56H109.54V232.04ZM123.94 232H139.78V236.6H123.94V232ZM147.86 223.76H183.22V228.48H147.86V223.76ZM156.78 251.56H178.9V256.16H156.78V251.56ZM154.82 237.28H180.94V258.44H175.82V241.88H159.66V258.6H154.82V237.28ZM159.06 226.36L164.18 227.64C163.22 230.333 162.033 233.027 160.62 235.72C159.207 238.413 157.567 240.933 155.7 243.28C153.86 245.6 151.767 247.6 149.42 249.28C149.153 248.907 148.807 248.493 148.38 248.04C147.98 247.56 147.567 247.107 147.14 246.68C146.74 246.227 146.367 245.853 146.02 245.56C148.18 244.093 150.1 242.307 151.78 240.2C153.487 238.067 154.953 235.8 156.18 233.4C157.407 231 158.367 228.653 159.06 226.36ZM200.66 230.6H227.1V234H200.66V230.6ZM211.22 221.04H215.78V233.12H211.22V221.04ZM207.38 225.2V226.8H219.62V225.2H207.38ZM202.98 222.68H224.26V229.28H202.98V222.68ZM207.86 241.08V242.48H219.38V241.08H207.86ZM207.86 244.64V246.12H219.38V244.64H207.86ZM207.86 237.52V238.92H219.38V237.52H207.86ZM203.58 235.28H223.9V248.36H203.58V235.28ZM208.74 248.24L212.22 249.84C211.447 250.293 210.58 250.773 209.62 251.28C208.66 251.76 207.687 252.213 206.7 252.64C205.713 253.067 204.78 253.44 203.9 253.76C203.713 253.52 203.46 253.213 203.14 252.84C202.82 252.44 202.5 252.053 202.18 251.68C201.86 251.307 201.553 251 201.26 250.76C202.567 250.413 203.9 250.027 205.26 249.6C206.62 249.147 207.78 248.693 208.74 248.24ZM215.58 250.12L218.26 247.84C219.247 248.16 220.273 248.52 221.34 248.92C222.407 249.293 223.42 249.667 224.38 250.04C225.367 250.387 226.207 250.707 226.9 251L223.26 253.4C222.38 252.947 221.233 252.427 219.82 251.84C218.407 251.227 216.993 250.653 215.58 250.12ZM190.78 223.28L194.3 221.08C194.967 221.693 195.633 222.373 196.3 223.12C196.967 223.84 197.593 224.547 198.18 225.24C198.793 225.933 199.3 226.547 199.7 227.08L196.02 229.76C195.647 229.173 195.167 228.507 194.58 227.76C193.993 227.013 193.367 226.253 192.7 225.48C192.033 224.68 191.393 223.947 190.78 223.28ZM190.42 230.36H197.78V234.16H190.42V230.36ZM198.46 247.72C199.18 249.507 200.18 250.84 201.46 251.72C202.74 252.573 204.3 253.133 206.14 253.4C208.007 253.64 210.153 253.773 212.58 253.8C214.02 253.8 215.647 253.773 217.46 253.72C219.273 253.667 221.1 253.587 222.94 253.48C224.807 253.373 226.5 253.253 228.02 253.12C227.807 253.44 227.593 253.867 227.38 254.4C227.193 254.933 227.02 255.48 226.86 256.04C226.7 256.6 226.58 257.107 226.5 257.56C225.113 257.64 223.633 257.707 222.06 257.76C220.487 257.84 218.887 257.88 217.26 257.88C215.66 257.907 214.073 257.92 212.5 257.92C210.153 257.92 208.073 257.813 206.26 257.6C204.447 257.387 202.847 256.973 201.46 256.36C200.1 255.747 198.9 254.853 197.86 253.68C196.847 252.507 195.98 250.96 195.26 249.04L198.46 247.72ZM196.3 240.08H197.46L198.22 239.96L200.5 240.76C199.94 245.107 198.967 248.773 197.58 251.76C196.193 254.72 194.46 257 192.38 258.6C192.167 258.28 191.873 257.907 191.5 257.48C191.127 257.08 190.74 256.68 190.34 256.28C189.94 255.907 189.58 255.613 189.26 255.4C191.153 254.067 192.687 252.16 193.86 249.68C195.06 247.2 195.873 244.24 196.3 240.8V240.08ZM191.14 244.4V240.96L192.82 240.08H197.94V243.8H193.5C193.073 243.8 192.62 243.853 192.14 243.96C191.66 244.067 191.327 244.213 191.14 244.4ZM191.14 244.4C191.087 244.053 190.953 243.64 190.74 243.16C190.553 242.68 190.353 242.2 190.14 241.72C189.953 241.24 189.78 240.853 189.62 240.56C189.94 240.453 190.26 240.32 190.58 240.16C190.9 239.973 191.22 239.68 191.54 239.28C191.78 239.013 192.127 238.533 192.58 237.84C193.06 237.12 193.553 236.32 194.06 235.44C194.593 234.56 195.1 233.707 195.58 232.88C196.06 232.053 196.433 231.36 196.7 230.8V230.64L197.9 230.2L200.82 231.32C200.42 232.013 199.953 232.827 199.42 233.76C198.887 234.667 198.313 235.627 197.7 236.64C197.113 237.627 196.527 238.573 195.94 239.48C195.353 240.387 194.807 241.147 194.3 241.76C194.3 241.76 194.14 241.853 193.82 242.04C193.5 242.2 193.127 242.427 192.7 242.72C192.3 242.987 191.94 243.267 191.62 243.56C191.3 243.853 191.14 244.133 191.14 244.4ZM238.94 226.48V231.92H243.46V226.48H238.94ZM234.94 222.52H247.66V235.88H234.94V222.52ZM240.02 234.08H244.06V252.44H240.02V234.08ZM234.66 238.68H238.38V253.52H234.66V238.68ZM232.78 252C234.087 251.733 235.553 251.427 237.18 251.08C238.833 250.733 240.567 250.36 242.38 249.96C244.22 249.533 246.047 249.107 247.86 248.68L248.34 252.68C245.807 253.347 243.247 254 240.66 254.64C238.073 255.253 235.74 255.827 233.66 256.36L232.78 252ZM241.7 240.24H247.74V244.32H241.7V240.24ZM248.58 227.28H270.5V231.84H248.58V227.28ZM260.18 230.36H264.62V253.44C264.62 254.56 264.5 255.453 264.26 256.12C264.047 256.813 263.607 257.347 262.94 257.72C262.273 258.093 261.447 258.333 260.46 258.44C259.473 258.547 258.313 258.6 256.98 258.6C256.927 257.987 256.767 257.227 256.5 256.32C256.26 255.44 255.98 254.667 255.66 254C256.487 254.027 257.26 254.053 257.98 254.08C258.727 254.08 259.233 254.08 259.5 254.08C259.767 254.053 259.94 254 260.02 253.92C260.127 253.813 260.18 253.64 260.18 253.4V230.36ZM249.98 235.6L253.98 236.32C253.607 238.667 253.06 240.947 252.34 243.16C251.647 245.347 250.82 247.187 249.86 248.68C249.62 248.467 249.287 248.227 248.86 247.96C248.46 247.667 248.033 247.387 247.58 247.12C247.127 246.853 246.74 246.64 246.42 246.48C247.327 245.147 248.073 243.52 248.66 241.6C249.247 239.653 249.687 237.653 249.98 235.6ZM263.78 236.64L267.54 235.16C268.127 236.387 268.673 237.707 269.18 239.12C269.687 240.507 270.127 241.88 270.5 243.24C270.873 244.573 271.14 245.787 271.3 246.88L267.26 248.52C267.153 247.427 266.927 246.2 266.58 244.84C266.233 243.453 265.82 242.053 265.34 240.64C264.86 239.2 264.34 237.867 263.78 236.64ZM254.3 229H258.34V238.24C258.34 239.973 258.233 241.747 258.02 243.56C257.833 245.347 257.447 247.133 256.86 248.92C256.273 250.68 255.393 252.387 254.22 254.04C253.073 255.667 251.553 257.187 249.66 258.6C249.26 258.093 248.74 257.547 248.1 256.96C247.487 256.4 246.9 255.907 246.34 255.48C248.1 254.227 249.5 252.88 250.54 251.44C251.607 250 252.407 248.533 252.94 247.04C253.473 245.52 253.833 244.013 254.02 242.52C254.207 241.027 254.3 239.587 254.3 238.2V229ZM255.86 222.08L260.22 220.84C260.727 221.747 261.233 222.76 261.74 223.88C262.247 224.973 262.593 225.933 262.78 226.76L258.14 228.16C257.98 227.36 257.673 226.387 257.22 225.24C256.793 224.093 256.34 223.04 255.86 222.08Z" fill="#00A0E9"/>
</svg>
