<svg width="60" height="60" viewBox="0 0 60 60" fill="none" xmlns="http://www.w3.org/2000/svg">
<rect x="1.5" y="1.5" width="57" height="57" rx="28.5" fill="white"/>
<rect x="1.5" y="1.5" width="57" height="57" rx="28.5" stroke="#F39800" stroke-width="3"/>
<path d="M33.6116 29.9496L25.5477 21.8857C25.1234 21.4589 24.8853 20.8816 24.8853 20.2798C24.8853 19.678 25.1234 19.1006 25.5477 18.6738C25.7595 18.4603 26.0114 18.2908 26.289 18.1752C26.5666 18.0595 26.8643 18 27.165 18C27.4658 18 27.7635 18.0595 28.0411 18.1752C28.3187 18.2908 28.5706 18.4603 28.7824 18.6738L38.4409 28.3323C38.6544 28.5441 38.8238 28.796 38.9395 29.0736C39.0551 29.3512 39.1147 29.6489 39.1147 29.9496C39.1147 30.2504 39.0551 30.5481 38.9395 30.8257C38.8238 31.1033 38.6544 31.3552 38.4409 31.567L28.7824 41.3394C28.5695 41.5505 28.3171 41.7175 28.0396 41.8309C27.762 41.9442 27.4648 42.0017 27.165 42C26.8653 42.0017 26.5681 41.9442 26.2905 41.8309C26.013 41.7175 25.7606 41.5505 25.5477 41.3394C25.1234 40.9126 24.8853 40.3352 24.8853 39.7334C24.8853 39.1316 25.1234 38.5543 25.5477 38.1275L33.6116 29.9496Z" fill="#F39800"/>
</svg>
