<svg width="331" height="400" viewBox="0 0 331 400" fill="none" xmlns="http://www.w3.org/2000/svg">
<rect width="330" height="400" transform="translate(0.5)" fill="#576275"/>
<path d="M309.5 17H21.5V383H309.5V17Z" fill="#F8FBF9"/>
<path d="M179.803 48.5492C179.803 41.4743 173.397 35.739 165.495 35.739C157.593 35.739 151.187 41.4743 151.187 48.5492C151.187 55.6241 157.593 61.3594 165.495 61.3594C173.397 61.3594 179.803 55.6241 179.803 48.5492Z" fill="#262324"/>
<path d="M122.402 228.56C120.402 228.56 118.642 227.987 117.122 226.84C115.629 225.667 114.456 223.933 113.602 221.64C112.776 219.32 112.362 216.453 112.362 213.04C112.362 209.653 112.776 206.84 113.602 204.6C114.456 202.333 115.629 200.64 117.122 199.52C118.642 198.4 120.402 197.84 122.402 197.84C124.429 197.84 126.189 198.413 127.682 199.56C129.176 200.68 130.336 202.36 131.162 204.6C132.016 206.84 132.442 209.653 132.442 213.04C132.442 216.453 132.016 219.32 131.162 221.64C130.336 223.933 129.176 225.667 127.682 226.84C126.189 227.987 124.429 228.56 122.402 228.56ZM122.402 223.96C123.282 223.96 124.056 223.627 124.722 222.96C125.389 222.293 125.909 221.173 126.282 219.6C126.656 218 126.842 215.813 126.842 213.04C126.842 210.293 126.656 208.147 126.282 206.6C125.909 205.027 125.389 203.933 124.722 203.32C124.056 202.68 123.282 202.36 122.402 202.36C121.576 202.36 120.816 202.68 120.122 203.32C119.456 203.933 118.922 205.027 118.522 206.6C118.122 208.147 117.922 210.293 117.922 213.04C117.922 215.813 118.122 218 118.522 219.6C118.922 221.173 119.456 222.293 120.122 222.96C120.816 223.627 121.576 223.96 122.402 223.96ZM143.916 228.56C142.849 228.56 141.969 228.187 141.276 227.44C140.583 226.693 140.236 225.787 140.236 224.72C140.236 223.6 140.583 222.68 141.276 221.96C141.969 221.24 142.849 220.88 143.916 220.88C144.956 220.88 145.823 221.24 146.516 221.96C147.209 222.68 147.556 223.6 147.556 224.72C147.556 225.787 147.209 226.693 146.516 227.44C145.823 228.187 144.956 228.56 143.916 228.56ZM164.684 228.56C163.111 228.56 161.711 228.373 160.484 228C159.257 227.627 158.164 227.133 157.204 226.52C156.244 225.907 155.391 225.24 154.644 224.52L157.364 220.76C157.924 221.32 158.524 221.827 159.164 222.28C159.831 222.733 160.551 223.093 161.324 223.36C162.124 223.627 162.977 223.76 163.884 223.76C164.897 223.76 165.791 223.547 166.564 223.12C167.364 222.693 167.991 222.08 168.444 221.28C168.897 220.453 169.124 219.467 169.124 218.32C169.124 216.613 168.657 215.293 167.724 214.36C166.817 213.427 165.617 212.96 164.124 212.96C163.271 212.96 162.537 213.08 161.924 213.32C161.311 213.533 160.564 213.92 159.684 214.48L157.004 212.76L157.804 198.36H173.644V203.32H162.884L162.324 209.6C162.911 209.333 163.484 209.133 164.044 209C164.604 208.867 165.217 208.8 165.884 208.8C167.537 208.8 169.057 209.133 170.444 209.8C171.831 210.44 172.937 211.453 173.764 212.84C174.591 214.227 175.004 216 175.004 218.16C175.004 220.347 174.511 222.227 173.524 223.8C172.564 225.347 171.297 226.533 169.724 227.36C168.177 228.16 166.497 228.56 164.684 228.56ZM187.878 209.52C186.704 209.52 185.638 209.253 184.678 208.72C183.718 208.16 182.944 207.4 182.358 206.44C181.798 205.48 181.518 204.387 181.518 203.16C181.518 201.907 181.798 200.813 182.358 199.88C182.944 198.92 183.718 198.173 184.678 197.64C185.638 197.08 186.704 196.8 187.878 196.8C189.051 196.8 190.118 197.08 191.078 197.64C192.038 198.173 192.798 198.92 193.358 199.88C193.918 200.813 194.198 201.907 194.198 203.16C194.198 204.387 193.918 205.48 193.358 206.44C192.798 207.4 192.038 208.16 191.078 208.72C190.118 209.253 189.051 209.52 187.878 209.52ZM187.878 206.6C188.811 206.6 189.571 206.28 190.158 205.64C190.744 205 191.038 204.173 191.038 203.16C191.038 202.147 190.744 201.32 190.158 200.68C189.571 200.04 188.811 199.72 187.878 199.72C186.918 199.72 186.144 200.04 185.558 200.68C184.998 201.32 184.718 202.147 184.718 203.16C184.718 204.173 184.998 205 185.558 205.64C186.144 206.28 186.918 206.6 187.878 206.6ZM210.198 228.56C207.638 228.56 205.318 227.973 203.238 226.8C201.158 225.627 199.504 223.907 198.278 221.64C197.078 219.373 196.478 216.6 196.478 213.32C196.478 210.84 196.838 208.64 197.558 206.72C198.278 204.8 199.278 203.173 200.558 201.84C201.838 200.507 203.318 199.493 204.998 198.8C206.678 198.107 208.478 197.76 210.398 197.76C212.211 197.76 213.851 198.147 215.318 198.92C216.811 199.693 218.038 200.573 218.998 201.56L215.718 205.24C214.971 204.52 214.171 203.96 213.318 203.56C212.491 203.133 211.531 202.92 210.438 202.92C208.918 202.92 207.571 203.333 206.398 204.16C205.224 204.96 204.291 206.12 203.598 207.64C202.904 209.16 202.558 210.973 202.558 213.08C202.558 215.213 202.864 217.053 203.478 218.6C204.118 220.147 205.024 221.333 206.198 222.16C207.371 222.987 208.731 223.4 210.278 223.4C211.558 223.4 212.664 223.147 213.598 222.64C214.558 222.107 215.424 221.427 216.198 220.6L219.518 224.2C218.318 225.613 216.931 226.693 215.358 227.44C213.784 228.187 212.064 228.56 210.198 228.56Z" fill="#00A0E9"/>
</svg>
