<svg width="331" height="400" viewBox="0 0 331 400" fill="none" xmlns="http://www.w3.org/2000/svg">
<rect width="330" height="400" transform="translate(0.5)" fill="#576275"/>
<path d="M309.5 17H21.5V383H309.5V17Z" fill="#F8FBF9"/>
<path d="M179.803 48.5492C179.803 41.4743 173.397 35.739 165.495 35.739C157.593 35.739 151.187 41.4743 151.187 48.5492C151.187 55.6241 157.593 61.3594 165.495 61.3594C173.397 61.3594 179.803 55.6241 179.803 48.5492Z" fill="#262324"/>
<path d="M118.82 177.96H123.3C123.113 179.667 122.913 181.453 122.7 183.32C122.487 185.187 122.26 187.04 122.02 188.88C121.78 190.72 121.54 192.467 121.3 194.12C121.06 195.773 120.833 197.253 120.62 198.56H115.98C116.273 197.227 116.553 195.72 116.82 194.04C117.087 192.36 117.34 190.6 117.58 188.76C117.847 186.92 118.087 185.08 118.3 183.24C118.513 181.373 118.687 179.613 118.82 177.96ZM124.9 182.96L127.34 181.36C128.033 181.893 128.753 182.52 129.5 183.24C130.247 183.96 130.82 184.587 131.22 185.12L128.62 186.88C128.247 186.347 127.7 185.707 126.98 184.96C126.26 184.213 125.567 183.547 124.9 182.96ZM123.82 191.2L126.42 189.52C127.167 190.107 127.967 190.787 128.82 191.56C129.673 192.307 130.34 192.987 130.82 193.6L128.1 195.48C127.647 194.867 127.007 194.16 126.18 193.36C125.38 192.56 124.593 191.84 123.82 191.2ZM119.5 171.04H140.14V175.36H119.5V171.04ZM120.7 177.96H135.58V182.08H120.7V177.96ZM113.82 185.88H141.22V190.2H113.82V185.88ZM118.38 194.48H140.22V198.56H118.38V194.48ZM119.5 166.96L124.14 168.16C123.607 169.813 122.953 171.467 122.18 173.12C121.433 174.773 120.633 176.32 119.78 177.76C118.953 179.2 118.1 180.467 117.22 181.56C116.9 181.293 116.487 181 115.98 180.68C115.473 180.333 114.953 180 114.42 179.68C113.913 179.36 113.473 179.107 113.1 178.92C113.98 177.96 114.82 176.84 115.62 175.56C116.447 174.253 117.18 172.867 117.82 171.4C118.487 169.933 119.047 168.453 119.5 166.96ZM134.26 177.96H138.7C138.7 177.96 138.687 178.093 138.66 178.36C138.66 178.627 138.66 178.92 138.66 179.24C138.66 179.533 138.647 179.787 138.62 180C138.46 183.76 138.3 186.973 138.14 189.64C137.98 192.28 137.793 194.453 137.58 196.16C137.393 197.867 137.167 199.2 136.9 200.16C136.66 201.12 136.367 201.827 136.02 202.28C135.54 202.92 135.033 203.36 134.5 203.6C133.993 203.84 133.407 204.013 132.74 204.12C132.153 204.227 131.407 204.28 130.5 204.28C129.593 204.28 128.66 204.253 127.7 204.2C127.673 203.64 127.553 202.987 127.34 202.24C127.127 201.493 126.847 200.84 126.5 200.28C127.38 200.36 128.18 200.413 128.9 200.44C129.647 200.44 130.22 200.44 130.62 200.44C130.967 200.44 131.247 200.4 131.46 200.32C131.673 200.24 131.887 200.067 132.1 199.8C132.34 199.507 132.567 198.92 132.78 198.04C132.993 197.16 133.193 195.907 133.38 194.28C133.567 192.653 133.727 190.573 133.86 188.04C133.993 185.507 134.127 182.453 134.26 178.88V177.96ZM105.98 170.88L108.62 167.64C109.42 167.987 110.26 168.413 111.14 168.92C112.02 169.4 112.873 169.893 113.7 170.4C114.527 170.88 115.207 171.333 115.74 171.76L112.94 175.4C112.433 174.947 111.78 174.453 110.98 173.92C110.207 173.36 109.367 172.827 108.46 172.32C107.58 171.787 106.753 171.307 105.98 170.88ZM103.7 182.28L106.3 179.04C107.073 179.387 107.873 179.8 108.7 180.28C109.553 180.733 110.353 181.213 111.1 181.72C111.873 182.2 112.5 182.653 112.98 183.08L110.22 186.72C109.793 186.24 109.207 185.733 108.46 185.2C107.713 184.667 106.913 184.147 106.06 183.64C105.233 183.133 104.447 182.68 103.7 182.28ZM104.78 201.32C105.313 200.28 105.9 199.067 106.54 197.68C107.207 196.267 107.86 194.76 108.5 193.16C109.167 191.56 109.78 189.987 110.34 188.44L114.02 191.04C113.54 192.453 113.007 193.907 112.42 195.4C111.86 196.867 111.287 198.333 110.7 199.8C110.113 201.24 109.54 202.613 108.98 203.92L104.78 201.32ZM149.46 169.48H181.46V174.24H149.46V169.48ZM147.34 186.44H183.78V191.28H147.34V186.44ZM151.86 176.84L156.26 175.52C156.713 176.4 157.153 177.333 157.58 178.32C158.033 179.28 158.42 180.24 158.74 181.2C159.087 182.133 159.34 182.973 159.5 183.72L154.82 185.2C154.687 184.453 154.473 183.613 154.18 182.68C153.887 181.72 153.54 180.733 153.14 179.72C152.74 178.68 152.313 177.72 151.86 176.84ZM174.66 175.4L179.82 176.72C179.34 177.76 178.833 178.787 178.3 179.8C177.793 180.813 177.287 181.787 176.78 182.72C176.3 183.627 175.833 184.427 175.38 185.12L171.18 183.88C171.607 183.107 172.033 182.227 172.46 181.24C172.913 180.253 173.327 179.253 173.7 178.24C174.1 177.227 174.42 176.28 174.66 175.4ZM162.98 171.48H167.98V204.56H162.98V171.48ZM203.1 184.64H213.42V188.4H203.1V184.64ZM203.1 191.4H213.46V195.16H203.1V191.4ZM195.38 198.12H222.38V202.56H195.38V198.12ZM192.34 177.44H225.02V204.6H220.14V181.84H196.98V204.6H192.34V177.44ZM201.06 180.36H205.34V200.12H201.06V180.36ZM211.5 180.36H215.82V200.08H211.5V180.36ZM205.62 171.4L211.26 172.6C210.78 174.067 210.313 175.533 209.86 177C209.433 178.44 209.02 179.68 208.62 180.72L204.26 179.56C204.447 178.787 204.633 177.933 204.82 177C205.007 176.04 205.167 175.08 205.3 174.12C205.46 173.133 205.567 172.227 205.62 171.4ZM190.7 169.32H226.86V173.84H190.7V169.32ZM142.74 233.04H159.38V237.88H142.74V233.04ZM125.62 251.76H162.22V256.6H125.62V251.76ZM140.02 221.52H145.18V254.44H140.02V221.52ZM177.46 226.88H182.26V238.04C182.26 239.907 182.14 241.787 181.9 243.68C181.687 245.573 181.22 247.427 180.5 249.24C179.807 251.027 178.767 252.72 177.38 254.32C176.02 255.92 174.18 257.36 171.86 258.64C171.62 258.267 171.3 257.84 170.9 257.36C170.5 256.907 170.073 256.453 169.62 256C169.167 255.547 168.753 255.187 168.38 254.92C170.407 253.853 172.02 252.653 173.22 251.32C174.42 249.987 175.327 248.587 175.94 247.12C176.553 245.653 176.953 244.147 177.14 242.6C177.353 241.027 177.46 239.48 177.46 237.96V226.88ZM192.42 221.64H197.34V258.56H192.42V221.64ZM168.78 236.84H205.5V241.44H168.78V236.84ZM186.18 221.2L189.58 225.24C187.82 226.12 185.873 226.947 183.74 227.72C181.633 228.467 179.46 229.147 177.22 229.76C175.007 230.373 172.82 230.92 170.66 231.4C170.553 230.84 170.327 230.173 169.98 229.4C169.66 228.627 169.34 227.973 169.02 227.44C171.127 226.96 173.22 226.4 175.3 225.76C177.38 225.093 179.353 224.373 181.22 223.6C183.113 222.827 184.767 222.027 186.18 221.2Z" fill="#00A0E9"/>
</svg>
