<svg width="331" height="400" viewBox="0 0 331 400" fill="none" xmlns="http://www.w3.org/2000/svg">
<rect width="330" height="400" transform="translate(0.5)" fill="#576275"/>
<path d="M309.5 17H21.5V383H309.5V17Z" fill="#F8FBF9"/>
<path d="M179.803 48.5492C179.803 41.4743 173.397 35.739 165.495 35.739C157.593 35.739 151.187 41.4743 151.187 48.5492C151.187 55.6241 157.593 61.3594 165.495 61.3594C173.397 61.3594 179.803 55.6241 179.803 48.5492Z" fill="#262324"/>
<path d="M86.22 145.52H115.26V150.8H86.22V145.52ZM82.86 168.76H118.58V174.24H82.86V168.76ZM133.78 143.28H161.3V146.8H133.78V143.28ZM134.3 148.28H157.82V151.6H134.3V148.28ZM129.9 153.08H153.06V156.72H129.9V153.08ZM133.3 139.92L137.86 141.28C137.087 143.013 136.153 144.693 135.06 146.32C133.967 147.947 132.793 149.467 131.54 150.88C130.287 152.267 128.98 153.467 127.62 154.48C127.433 154.16 127.14 153.76 126.74 153.28C126.34 152.8 125.927 152.32 125.5 151.84C125.1 151.333 124.74 150.933 124.42 150.64C126.26 149.413 127.967 147.853 129.54 145.96C131.113 144.067 132.367 142.053 133.3 139.92ZM151.38 153.08H156.22C156.22 155.907 156.233 158.52 156.26 160.92C156.313 163.293 156.433 165.373 156.62 167.16C156.807 168.92 157.073 170.307 157.42 171.32C157.793 172.307 158.273 172.8 158.86 172.8C159.153 172.8 159.367 172.28 159.5 171.24C159.633 170.2 159.713 168.813 159.74 167.08C160.167 167.64 160.66 168.2 161.22 168.76C161.78 169.293 162.313 169.747 162.82 170.12C162.713 171.88 162.513 173.307 162.22 174.4C161.927 175.493 161.487 176.293 160.9 176.8C160.34 177.333 159.54 177.6 158.5 177.6C157.193 177.6 156.1 177.187 155.22 176.36C154.367 175.56 153.687 174.44 153.18 173C152.673 171.533 152.287 169.787 152.02 167.76C151.753 165.707 151.58 163.44 151.5 160.96C151.42 158.48 151.38 155.853 151.38 153.08ZM136.62 161.52H141.3V177.6H136.62V161.52ZM127.1 159.92H150.42V163.24H127.1V159.92ZM128.58 164.76H149.1V167.96H128.58V164.76ZM126.14 169.6H151.14V173.12H126.14V169.6ZM130.9 157.4L134.94 156.36C135.313 156.893 135.66 157.493 135.98 158.16C136.327 158.827 136.567 159.427 136.7 159.96L132.42 161.12C132.313 160.613 132.113 160.013 131.82 159.32C131.553 158.627 131.247 157.987 130.9 157.4ZM142.9 156.24L147.5 157.4C146.993 158.173 146.487 158.92 145.98 159.64C145.5 160.36 145.06 160.973 144.66 161.48L140.78 160.4C141.02 160 141.273 159.56 141.54 159.08C141.807 158.573 142.06 158.08 142.3 157.6C142.567 157.093 142.767 156.64 142.9 156.24ZM185.94 140.76H190.54V169.64C190.54 170.413 190.593 171 190.7 171.4C190.807 171.8 191.02 172.067 191.34 172.2C191.687 172.333 192.167 172.4 192.78 172.4C193.02 172.4 193.393 172.4 193.9 172.4C194.433 172.4 195.02 172.4 195.66 172.4C196.3 172.4 196.887 172.4 197.42 172.4C197.98 172.4 198.38 172.4 198.62 172.4C199.313 172.4 199.833 172.173 200.18 171.72C200.553 171.267 200.82 170.44 200.98 169.24C201.14 168.04 201.273 166.32 201.38 164.08C201.94 164.507 202.633 164.92 203.46 165.32C204.287 165.693 205.007 165.947 205.62 166.08C205.46 168.667 205.167 170.733 204.74 172.28C204.34 173.827 203.687 174.933 202.78 175.6C201.9 176.293 200.647 176.64 199.02 176.64C198.78 176.64 198.433 176.64 197.98 176.64C197.553 176.64 197.047 176.64 196.46 176.64C195.9 176.64 195.34 176.64 194.78 176.64C194.22 176.64 193.713 176.64 193.26 176.64C192.807 176.64 192.487 176.64 192.3 176.64C190.647 176.64 189.353 176.427 188.42 176C187.487 175.6 186.833 174.88 186.46 173.84C186.113 172.8 185.94 171.373 185.94 169.56V140.76ZM178.34 140.16L182.78 141.68C181.847 143.947 180.727 146.213 179.42 148.48C178.113 150.747 176.7 152.893 175.18 154.92C173.66 156.92 172.1 158.667 170.5 160.16C170.34 159.76 170.113 159.253 169.82 158.64C169.527 158 169.207 157.36 168.86 156.72C168.513 156.08 168.207 155.56 167.94 155.16C169.327 153.96 170.66 152.573 171.94 151C173.22 149.4 174.407 147.68 175.5 145.84C176.62 143.973 177.567 142.08 178.34 140.16ZM174.34 151.04L178.9 146.48V146.52V177.56H174.34V151.04ZM188.74 151H204.58V155.6H188.74V151ZM245.42 159.16L248.94 161.72C248.007 162.653 247.113 163.6 246.26 164.56C245.433 165.493 244.673 166.293 243.98 166.96L241.42 164.96C241.873 164.453 242.34 163.867 242.82 163.2C243.3 162.507 243.767 161.813 244.22 161.12C244.7 160.4 245.1 159.747 245.42 159.16ZM235.14 140H239.38V148.84H235.14V140ZM237.1 157.36H241.26C241.18 159.707 241.007 161.907 240.74 163.96C240.5 165.987 240.06 167.84 239.42 169.52C238.807 171.2 237.913 172.72 236.74 174.08C235.567 175.44 234.02 176.6 232.1 177.56C231.86 177 231.473 176.373 230.94 175.68C230.433 175.013 229.94 174.467 229.46 174.04C231.14 173.267 232.473 172.333 233.46 171.24C234.447 170.147 235.193 168.907 235.7 167.52C236.207 166.107 236.553 164.56 236.74 162.88C236.927 161.173 237.047 159.333 237.1 157.36ZM240.62 162.44C241.1 164.067 241.74 165.627 242.54 167.12C243.367 168.613 244.34 169.947 245.46 171.12C246.607 172.267 247.887 173.2 249.3 173.92C248.847 174.32 248.34 174.84 247.78 175.48C247.247 176.147 246.833 176.76 246.54 177.32C244.967 176.413 243.58 175.253 242.38 173.84C241.207 172.4 240.193 170.787 239.34 169C238.487 167.187 237.793 165.253 237.26 163.2L240.62 162.44ZM228.42 151.84H248.62V155.84H228.42V151.84ZM226.66 151.84H230.9V159.76C230.9 161.067 230.847 162.507 230.74 164.08C230.66 165.627 230.487 167.213 230.22 168.84C229.953 170.44 229.58 172 229.1 173.52C228.62 175.04 227.993 176.413 227.22 177.64C226.953 177.373 226.593 177.08 226.14 176.76C225.713 176.467 225.26 176.173 224.78 175.88C224.3 175.613 223.887 175.413 223.54 175.28C224.5 173.76 225.193 172.08 225.62 170.24C226.073 168.4 226.353 166.573 226.46 164.76C226.593 162.92 226.66 161.24 226.66 159.72V151.84ZM229.74 161.24L232.7 159.44C233.127 160.053 233.567 160.72 234.02 161.44C234.5 162.133 234.94 162.813 235.34 163.48C235.767 164.12 236.1 164.693 236.34 165.2L233.22 167.28C233.007 166.747 232.7 166.133 232.3 165.44C231.9 164.747 231.473 164.04 231.02 163.32C230.567 162.573 230.14 161.88 229.74 161.24ZM227.14 141.24H231.42V146.16H243.18V141.24H247.66V150.04H227.14V141.24ZM212.02 141.8H225.74V146.12H212.02V141.8ZM216.46 154.24H224.86V172.68H216.46V168.52H221.3V158.44H216.46V154.24ZM216.66 144.04L221.02 145C220.54 147.533 219.913 150.053 219.14 152.56C218.393 155.067 217.5 157.413 216.46 159.6C215.447 161.787 214.233 163.707 212.82 165.36C212.767 164.933 212.647 164.36 212.46 163.64C212.273 162.92 212.06 162.2 211.82 161.48C211.58 160.733 211.353 160.133 211.14 159.68C212.553 157.787 213.7 155.467 214.58 152.72C215.487 149.973 216.18 147.08 216.66 144.04ZM214.46 154.24H218.38V175.68H214.46V154.24ZM87.06 214.08H114.94V231.44H109.82V217.84H91.94V231.6H87.06V214.08ZM89.46 220.36H111.9V223.84H89.46V220.36ZM100.7 195.88H115.02V200H100.7V195.88ZM89.46 226.48H111.9V230.28H89.46V226.48ZM98.66 215.68H103.22V228.64H98.66V215.68ZM113.42 195.88H118.02C118.02 195.88 118.007 195.987 117.98 196.2C117.98 196.413 117.98 196.667 117.98 196.96C117.98 197.227 117.967 197.453 117.94 197.64C117.833 200.493 117.7 202.827 117.54 204.64C117.407 206.427 117.22 207.827 116.98 208.84C116.767 209.827 116.487 210.533 116.14 210.96C115.767 211.467 115.34 211.827 114.86 212.04C114.38 212.227 113.847 212.373 113.26 212.48C112.753 212.56 112.087 212.6 111.26 212.6C110.433 212.6 109.567 212.587 108.66 212.56C108.633 211.92 108.5 211.213 108.26 210.44C108.047 209.667 107.767 209 107.42 208.44C108.193 208.493 108.887 208.533 109.5 208.56C110.113 208.587 110.593 208.587 110.94 208.56C111.207 208.587 111.433 208.573 111.62 208.52C111.833 208.44 112.02 208.307 112.18 208.12C112.393 207.88 112.567 207.36 112.7 206.56C112.86 205.733 112.993 204.52 113.1 202.92C113.207 201.32 113.313 199.213 113.42 196.6V195.88ZM96.22 193.76L99.26 197.32C97.98 197.773 96.6067 198.213 95.14 198.64C93.6733 199.04 92.18 199.413 90.66 199.76C89.14 200.08 87.6733 200.36 86.26 200.6C86.18 200.12 86.0067 199.547 85.74 198.88C85.5 198.213 85.2467 197.64 84.98 197.16C86.3133 196.867 87.66 196.547 89.02 196.2C90.4067 195.827 91.7133 195.427 92.94 195C94.1933 194.573 95.2867 194.16 96.22 193.76ZM104.7 197.36H109.14C109.007 199.733 108.7 201.933 108.22 203.96C107.767 205.96 106.967 207.76 105.82 209.36C104.673 210.933 102.98 212.267 100.74 213.36C100.5 212.827 100.113 212.227 99.58 211.56C99.0733 210.867 98.5667 210.32 98.06 209.92C99.9267 209.067 101.3 208.027 102.18 206.8C103.087 205.573 103.7 204.16 104.02 202.56C104.367 200.96 104.593 199.227 104.7 197.36ZM92.02 202.4L95.9 200.84C96.4867 201.773 97.06 202.787 97.62 203.88C98.18 204.947 98.6867 206.013 99.14 207.08C99.5933 208.12 99.94 209.053 100.18 209.88L95.98 211.68C95.7933 210.853 95.4867 209.907 95.06 208.84C94.66 207.773 94.1933 206.68 93.66 205.56C93.1267 204.413 92.58 203.36 92.02 202.4ZM85.66 212.84L85.3 208.92L87.1 207.44L96.14 205.4C96.2467 206.013 96.3933 206.707 96.58 207.48C96.7667 208.253 96.94 208.893 97.1 209.4C94.86 209.987 93.0467 210.467 91.66 210.84C90.2733 211.187 89.18 211.48 88.38 211.72C87.6067 211.96 87.02 212.173 86.62 212.36C86.22 212.547 85.9 212.707 85.66 212.84ZM85.66 212.84C85.5267 212.493 85.3133 212.107 85.02 211.68C84.7267 211.227 84.4067 210.787 84.06 210.36C83.74 209.933 83.46 209.613 83.22 209.4C83.62 209.027 84.0067 208.493 84.38 207.8C84.78 207.107 84.98 206.227 84.98 205.16V197.16H89.66V207.72C89.66 207.72 89.5267 207.84 89.26 208.08C88.9933 208.32 88.66 208.64 88.26 209.04C87.8867 209.44 87.5 209.867 87.1 210.32C86.7 210.773 86.3533 211.227 86.06 211.68C85.7933 212.107 85.66 212.493 85.66 212.84ZM125.98 196.96H161.86V201.8H125.98V196.96ZM140.5 201.28H145.66V231.48H140.5V201.28ZM143.22 211L146.5 207.16C147.593 207.693 148.767 208.307 150.02 209C151.3 209.667 152.567 210.373 153.82 211.12C155.073 211.867 156.26 212.6 157.38 213.32C158.5 214.013 159.433 214.68 160.18 215.32L156.62 219.72C155.927 219.08 155.047 218.387 153.98 217.64C152.94 216.867 151.793 216.093 150.54 215.32C149.313 214.547 148.073 213.787 146.82 213.04C145.567 212.267 144.367 211.587 143.22 211ZM169.82 199.04H204.62V203.72H169.82V199.04ZM184.42 194.04H189.5V231.6H184.42V194.04ZM184.98 212.08L188.98 213.64C187.993 215.4 186.86 217.093 185.58 218.72C184.327 220.347 182.953 221.867 181.46 223.28C179.967 224.693 178.38 225.973 176.7 227.12C175.047 228.267 173.327 229.267 171.54 230.12C171.3 229.693 170.98 229.213 170.58 228.68C170.18 228.173 169.767 227.68 169.34 227.2C168.913 226.693 168.513 226.28 168.14 225.96C169.847 225.293 171.527 224.467 173.18 223.48C174.86 222.493 176.433 221.4 177.9 220.2C179.367 218.973 180.7 217.68 181.9 216.32C183.127 214.933 184.153 213.52 184.98 212.08ZM189.3 212.4C190.42 214.24 191.847 216.013 193.58 217.72C195.34 219.427 197.287 220.973 199.42 222.36C201.553 223.72 203.767 224.827 206.06 225.68C205.66 226 205.233 226.427 204.78 226.96C204.353 227.467 203.927 227.987 203.5 228.52C203.1 229.08 202.767 229.6 202.5 230.08C200.207 229.013 197.993 227.667 195.86 226.04C193.727 224.387 191.767 222.533 189.98 220.48C188.193 218.427 186.647 216.253 185.34 213.96L189.3 212.4ZM174.66 210.64L177.7 207.64C178.313 208.12 178.98 208.68 179.7 209.32C180.42 209.933 181.113 210.533 181.78 211.12C182.447 211.707 182.993 212.227 183.42 212.68L180.22 216.08C179.847 215.6 179.327 215.04 178.66 214.4C178.02 213.76 177.353 213.12 176.66 212.48C175.967 211.813 175.3 211.2 174.66 210.64ZM176.3 203.96L180.94 204.84C180.22 207.747 179.167 210.413 177.78 212.84C176.393 215.24 174.767 217.213 172.9 218.76C172.633 218.467 172.273 218.12 171.82 217.72C171.367 217.32 170.9 216.933 170.42 216.56C169.967 216.16 169.553 215.853 169.18 215.64C170.967 214.333 172.46 212.667 173.66 210.64C174.86 208.613 175.74 206.387 176.3 203.96ZM193.82 210.84L196.94 207.96C197.767 208.573 198.687 209.28 199.7 210.08C200.74 210.853 201.74 211.627 202.7 212.4C203.66 213.147 204.433 213.813 205.02 214.4L201.7 217.68C201.14 217.093 200.407 216.4 199.5 215.6C198.593 214.8 197.633 213.987 196.62 213.16C195.607 212.307 194.673 211.533 193.82 210.84ZM195.14 203.96L199.82 204.8C199.26 207.173 198.46 209.387 197.42 211.44C196.38 213.467 195.18 215.147 193.82 216.48C193.527 216.24 193.127 215.96 192.62 215.64C192.14 215.32 191.633 215.013 191.1 214.72C190.567 214.4 190.113 214.147 189.74 213.96C191.1 212.813 192.233 211.36 193.14 209.6C194.073 207.84 194.74 205.96 195.14 203.96ZM216.02 200.52H228.3V227.44H216.02V223.24H223.98V204.68H216.02V200.52ZM213.22 200.52H217.58V230.4H213.22V200.52ZM215.86 211.2H226.06V215.36H215.86V211.2ZM218.94 194L224.14 194.76C223.713 196.12 223.247 197.467 222.74 198.8C222.26 200.133 221.82 201.267 221.42 202.2L217.58 201.32C217.767 200.627 217.94 199.853 218.1 199C218.287 198.147 218.46 197.28 218.62 196.4C218.78 195.52 218.887 194.72 218.94 194ZM233.58 200.2H245.3V204.6H233.58V200.2ZM243.62 200.2H248.06C248.06 200.2 248.06 200.347 248.06 200.64C248.06 200.907 248.06 201.213 248.06 201.56C248.06 201.907 248.047 202.173 248.02 202.36C247.913 206.867 247.78 210.693 247.62 213.84C247.487 216.96 247.313 219.547 247.1 221.6C246.913 223.627 246.687 225.213 246.42 226.36C246.153 227.507 245.807 228.347 245.38 228.88C244.847 229.653 244.273 230.187 243.66 230.48C243.047 230.773 242.34 230.987 241.54 231.12C240.767 231.227 239.807 231.267 238.66 231.24C237.54 231.24 236.393 231.227 235.22 231.2C235.193 230.533 235.033 229.747 234.74 228.84C234.447 227.96 234.087 227.187 233.66 226.52C234.94 226.627 236.127 226.693 237.22 226.72C238.34 226.747 239.153 226.76 239.66 226.76C240.06 226.76 240.38 226.72 240.62 226.64C240.887 226.533 241.14 226.347 241.38 226.08C241.727 225.733 242.007 225.027 242.22 223.96C242.46 222.867 242.66 221.333 242.82 219.36C242.98 217.387 243.127 214.893 243.26 211.88C243.393 208.867 243.513 205.28 243.62 201.12V200.2ZM233.7 194.04L238.34 195.12C237.833 197.067 237.207 199.013 236.46 200.96C235.74 202.907 234.94 204.747 234.06 206.48C233.207 208.187 232.327 209.68 231.42 210.96C231.153 210.693 230.767 210.387 230.26 210.04C229.78 209.667 229.287 209.307 228.78 208.96C228.3 208.613 227.873 208.347 227.5 208.16C228.38 207.013 229.207 205.693 229.98 204.2C230.78 202.68 231.487 201.053 232.1 199.32C232.74 197.56 233.273 195.8 233.7 194.04ZM231.74 211.76L235.5 209.64C236.167 210.547 236.873 211.547 237.62 212.64C238.367 213.733 239.073 214.8 239.74 215.84C240.407 216.88 240.953 217.8 241.38 218.6L237.3 221.08C236.927 220.253 236.42 219.307 235.78 218.24C235.167 217.173 234.5 216.08 233.78 214.96C233.087 213.813 232.407 212.747 231.74 211.76ZM140.62 263.6H156.62V266.88H140.62V263.6ZM140.58 257.88H159.06V272.64H140.58V269H154.5V261.52H140.58V257.88ZM149.7 270.56C150.607 273.52 152.127 275.933 154.26 277.8C156.393 279.667 159.287 280.92 162.94 281.56C162.46 282.013 161.953 282.627 161.42 283.4C160.887 284.2 160.473 284.907 160.18 285.52C157.46 284.88 155.153 283.933 153.26 282.68C151.367 281.427 149.793 279.853 148.54 277.96C147.313 276.04 146.313 273.8 145.54 271.24L149.7 270.56ZM158.5 271.92L161.7 274.68C160.9 275.267 160.06 275.853 159.18 276.44C158.3 277.027 157.42 277.587 156.54 278.12C155.687 278.653 154.887 279.12 154.14 279.52L151.62 277.12C152.34 276.693 153.113 276.187 153.94 275.6C154.793 274.987 155.62 274.36 156.42 273.72C157.22 273.08 157.913 272.48 158.5 271.92ZM133.62 251.76H162.26V256.04H133.62V251.76ZM131.02 251.76H135.9V263.92C135.9 265.547 135.82 267.32 135.66 269.24C135.5 271.133 135.18 273.067 134.7 275.04C134.22 276.987 133.54 278.853 132.66 280.64C131.78 282.427 130.607 284.013 129.14 285.4C128.9 285.08 128.553 284.68 128.1 284.2C127.673 283.747 127.207 283.307 126.7 282.88C126.22 282.453 125.807 282.133 125.46 281.92C126.74 280.693 127.753 279.333 128.5 277.84C129.247 276.347 129.793 274.8 130.14 273.2C130.487 271.573 130.713 269.973 130.82 268.4C130.953 266.8 131.02 265.293 131.02 263.88V251.76ZM124.82 257.12L128.38 255.4C128.753 256.173 129.127 257.013 129.5 257.92C129.873 258.827 130.22 259.707 130.54 260.56C130.86 261.387 131.127 262.107 131.34 262.72L127.54 264.76C127.38 264.093 127.14 263.333 126.82 262.48C126.527 261.6 126.207 260.693 125.86 259.76C125.513 258.8 125.167 257.92 124.82 257.12ZM124.5 270.76C125.46 270.387 126.58 269.88 127.86 269.24C129.167 268.6 130.513 267.947 131.9 267.28L133.02 271.04C131.847 271.76 130.647 272.48 129.42 273.2C128.22 273.92 127.047 274.613 125.9 275.28L124.5 270.76ZM143.62 248.8L149.02 247.72C149.393 248.68 149.767 249.733 150.14 250.88C150.513 252 150.793 252.973 150.98 253.8L145.34 255.16C145.233 254.307 145.007 253.28 144.66 252.08C144.313 250.88 143.967 249.787 143.62 248.8ZM138.06 285.52L137.62 281.6L139.3 280.16L147.82 277.96C147.9 278.573 148.007 279.267 148.14 280.04C148.273 280.787 148.42 281.4 148.58 281.88C146.527 282.467 144.86 282.947 143.58 283.32C142.327 283.72 141.327 284.053 140.58 284.32C139.86 284.587 139.313 284.8 138.94 284.96C138.593 285.147 138.3 285.333 138.06 285.52ZM138.06 285.52C137.98 285.147 137.82 284.733 137.58 284.28C137.34 283.827 137.087 283.373 136.82 282.92C136.553 282.467 136.3 282.12 136.06 281.88C136.487 281.587 136.9 281.173 137.3 280.64C137.7 280.08 137.9 279.333 137.9 278.4V257.88H142.5V281.24C142.5 281.24 142.353 281.333 142.06 281.52C141.767 281.707 141.393 281.947 140.94 282.24C140.513 282.56 140.073 282.907 139.62 283.28C139.167 283.68 138.793 284.067 138.5 284.44C138.207 284.84 138.06 285.2 138.06 285.52ZM174.14 253.48V258.92H178.66V253.48H174.14ZM170.14 249.52H182.86V262.88H170.14V249.52ZM175.22 261.08H179.26V279.44H175.22V261.08ZM169.86 265.68H173.58V280.52H169.86V265.68ZM167.98 279C169.287 278.733 170.753 278.427 172.38 278.08C174.033 277.733 175.767 277.36 177.58 276.96C179.42 276.533 181.247 276.107 183.06 275.68L183.54 279.68C181.007 280.347 178.447 281 175.86 281.64C173.273 282.253 170.94 282.827 168.86 283.36L167.98 279ZM176.9 267.24H182.94V271.32H176.9V267.24ZM183.78 254.28H205.7V258.84H183.78V254.28ZM195.38 257.36H199.82V280.44C199.82 281.56 199.7 282.453 199.46 283.12C199.247 283.813 198.807 284.347 198.14 284.72C197.473 285.093 196.647 285.333 195.66 285.44C194.673 285.547 193.513 285.6 192.18 285.6C192.127 284.987 191.967 284.227 191.7 283.32C191.46 282.44 191.18 281.667 190.86 281C191.687 281.027 192.46 281.053 193.18 281.08C193.927 281.08 194.433 281.08 194.7 281.08C194.967 281.053 195.14 281 195.22 280.92C195.327 280.813 195.38 280.64 195.38 280.4V257.36ZM185.18 262.6L189.18 263.32C188.807 265.667 188.26 267.947 187.54 270.16C186.847 272.347 186.02 274.187 185.06 275.68C184.82 275.467 184.487 275.227 184.06 274.96C183.66 274.667 183.233 274.387 182.78 274.12C182.327 273.853 181.94 273.64 181.62 273.48C182.527 272.147 183.273 270.52 183.86 268.6C184.447 266.653 184.887 264.653 185.18 262.6ZM198.98 263.64L202.74 262.16C203.327 263.387 203.873 264.707 204.38 266.12C204.887 267.507 205.327 268.88 205.7 270.24C206.073 271.573 206.34 272.787 206.5 273.88L202.46 275.52C202.353 274.427 202.127 273.2 201.78 271.84C201.433 270.453 201.02 269.053 200.54 267.64C200.06 266.2 199.54 264.867 198.98 263.64ZM189.5 256H193.54V265.24C193.54 266.973 193.433 268.747 193.22 270.56C193.033 272.347 192.647 274.133 192.06 275.92C191.473 277.68 190.593 279.387 189.42 281.04C188.273 282.667 186.753 284.187 184.86 285.6C184.46 285.093 183.94 284.547 183.3 283.96C182.687 283.4 182.1 282.907 181.54 282.48C183.3 281.227 184.7 279.88 185.74 278.44C186.807 277 187.607 275.533 188.14 274.04C188.673 272.52 189.033 271.013 189.22 269.52C189.407 268.027 189.5 266.587 189.5 265.2V256ZM191.06 249.08L195.42 247.84C195.927 248.747 196.433 249.76 196.94 250.88C197.447 251.973 197.793 252.933 197.98 253.76L193.34 255.16C193.18 254.36 192.873 253.387 192.42 252.24C191.993 251.093 191.54 250.04 191.06 249.08Z" fill="#00A0E9"/>
</svg>
