<svg width="331" height="400" viewBox="0 0 331 400" fill="none" xmlns="http://www.w3.org/2000/svg">
<rect width="330" height="400" transform="translate(0.5)" fill="#576275"/>
<path d="M309.5 17H21.5V383H309.5V17Z" fill="#F8FBF9"/>
<path d="M179.803 48.5492C179.803 41.4743 173.397 35.739 165.495 35.739C157.593 35.739 151.187 41.4743 151.187 48.5492C151.187 55.6241 157.593 61.3594 165.495 61.3594C173.397 61.3594 179.803 55.6241 179.803 48.5492Z" fill="#262324"/>
<path d="M126.54 191.92H161.38V196.08H126.54V191.92ZM134.98 178.48V180.28H152.34V178.48H134.98ZM134.98 183.56V185.4H152.34V183.56H134.98ZM134.98 173.36V175.16H152.34V173.36H134.98ZM129.9 169.88H157.66V188.92H129.9V169.88ZM140.5 166.92L146.22 167.36C145.767 168.32 145.3 169.227 144.82 170.08C144.367 170.933 143.953 171.653 143.58 172.24L139.02 171.6C139.34 170.853 139.633 170.067 139.9 169.24C140.167 168.387 140.367 167.613 140.5 166.92ZM148.9 190.2L151.38 188.12C152.26 188.493 153.22 188.96 154.26 189.52C155.327 190.053 156.18 190.56 156.82 191.04L154.26 193.36C153.673 192.88 152.86 192.347 151.82 191.76C150.78 191.147 149.807 190.627 148.9 190.2ZM140.54 188.04H145.22V191.48C145.22 192.653 144.993 193.853 144.54 195.08C144.113 196.307 143.3 197.52 142.1 198.72C140.9 199.893 139.153 200.987 136.86 202C134.567 203.013 131.58 203.88 127.9 204.6C127.713 204.253 127.46 203.84 127.14 203.36C126.82 202.907 126.473 202.453 126.1 202C125.727 201.547 125.393 201.173 125.1 200.88C128.46 200.267 131.167 199.587 133.22 198.84C135.273 198.067 136.82 197.253 137.86 196.4C138.927 195.547 139.633 194.693 139.98 193.84C140.353 192.96 140.54 192.133 140.54 191.36V188.04ZM144.46 198.12L146.42 194.72C147.7 195.067 149.06 195.48 150.5 195.96C151.967 196.44 153.433 196.96 154.9 197.52C156.367 198.053 157.727 198.613 158.98 199.2C160.26 199.76 161.353 200.293 162.26 200.8L160.14 204.68C159.287 204.173 158.233 203.613 156.98 203C155.753 202.387 154.42 201.787 152.98 201.2C151.567 200.613 150.127 200.053 148.66 199.52C147.193 198.96 145.793 198.493 144.46 198.12ZM176.98 170.28H204.5V173.8H176.98V170.28ZM177.5 175.28H201.02V178.6H177.5V175.28ZM173.1 180.08H196.26V183.72H173.1V180.08ZM176.5 166.92L181.06 168.28C180.287 170.013 179.353 171.693 178.26 173.32C177.167 174.947 175.993 176.467 174.74 177.88C173.487 179.267 172.18 180.467 170.82 181.48C170.633 181.16 170.34 180.76 169.94 180.28C169.54 179.8 169.127 179.32 168.7 178.84C168.3 178.333 167.94 177.933 167.62 177.64C169.46 176.413 171.167 174.853 172.74 172.96C174.313 171.067 175.567 169.053 176.5 166.92ZM194.58 180.08H199.42C199.42 182.907 199.433 185.52 199.46 187.92C199.513 190.293 199.633 192.373 199.82 194.16C200.007 195.92 200.273 197.307 200.62 198.32C200.993 199.307 201.473 199.8 202.06 199.8C202.353 199.8 202.567 199.28 202.7 198.24C202.833 197.2 202.913 195.813 202.94 194.08C203.367 194.64 203.86 195.2 204.42 195.76C204.98 196.293 205.513 196.747 206.02 197.12C205.913 198.88 205.713 200.307 205.42 201.4C205.127 202.493 204.687 203.293 204.1 203.8C203.54 204.333 202.74 204.6 201.7 204.6C200.393 204.6 199.3 204.187 198.42 203.36C197.567 202.56 196.887 201.44 196.38 200C195.873 198.533 195.487 196.787 195.22 194.76C194.953 192.707 194.78 190.44 194.7 187.96C194.62 185.48 194.58 182.853 194.58 180.08ZM179.82 188.52H184.5V204.6H179.82V188.52ZM170.3 186.92H193.62V190.24H170.3V186.92ZM171.78 191.76H192.3V194.96H171.78V191.76ZM169.34 196.6H194.34V200.12H169.34V196.6ZM174.1 184.4L178.14 183.36C178.513 183.893 178.86 184.493 179.18 185.16C179.527 185.827 179.767 186.427 179.9 186.96L175.62 188.12C175.513 187.613 175.313 187.013 175.02 186.32C174.753 185.627 174.447 184.987 174.1 184.4ZM186.1 183.24L190.7 184.4C190.193 185.173 189.687 185.92 189.18 186.64C188.7 187.36 188.26 187.973 187.86 188.48L183.98 187.4C184.22 187 184.473 186.56 184.74 186.08C185.007 185.573 185.26 185.08 185.5 184.6C185.767 184.093 185.967 183.64 186.1 183.24ZM124.793 239.8C124.793 236.947 125.153 234.333 125.873 231.96C126.593 229.587 127.553 227.453 128.753 225.56C129.953 223.667 131.259 222.013 132.673 220.6L136.473 222.28C135.139 223.693 133.926 225.28 132.833 227.04C131.766 228.773 130.913 230.693 130.273 232.8C129.633 234.907 129.313 237.24 129.313 239.8C129.313 242.333 129.633 244.667 130.273 246.8C130.913 248.907 131.766 250.827 132.833 252.56C133.926 254.293 135.139 255.88 136.473 257.32L132.673 259C131.259 257.587 129.953 255.933 128.753 254.04C127.553 252.147 126.593 250.013 125.873 247.64C125.153 245.267 124.793 242.653 124.793 239.8ZM156.873 255.56C154.259 255.56 151.953 254.947 149.953 253.72C147.979 252.467 146.433 250.68 145.313 248.36C144.193 246.04 143.633 243.267 143.633 240.04C143.633 236.84 144.193 234.107 145.313 231.84C146.433 229.573 147.979 227.84 149.953 226.64C151.953 225.44 154.259 224.84 156.873 224.84C159.513 224.84 161.819 225.453 163.793 226.68C165.766 227.88 167.313 229.613 168.433 231.88C169.553 234.12 170.113 236.84 170.113 240.04C170.113 243.267 169.553 246.04 168.433 248.36C167.313 250.68 165.766 252.467 163.793 253.72C161.819 254.947 159.513 255.56 156.873 255.56ZM156.873 250.44C158.339 250.44 159.606 250.013 160.673 249.16C161.766 248.307 162.606 247.107 163.193 245.56C163.779 243.987 164.073 242.147 164.073 240.04C164.073 237.933 163.779 236.133 163.193 234.64C162.606 233.12 161.766 231.96 160.673 231.16C159.606 230.333 158.339 229.92 156.873 229.92C155.406 229.92 154.126 230.333 153.033 231.16C151.966 231.96 151.139 233.12 150.553 234.64C149.993 236.133 149.713 237.933 149.713 240.04C149.713 242.147 149.993 243.987 150.553 245.56C151.139 247.107 151.966 248.307 153.033 249.16C154.126 250.013 155.406 250.44 156.873 250.44ZM183.814 238.28C182.321 238.28 180.961 237.973 179.734 237.36C178.534 236.72 177.561 235.84 176.814 234.72L179.494 232.64C180.027 233.387 180.614 233.96 181.254 234.36C181.894 234.733 182.614 234.92 183.414 234.92C184.214 234.92 184.881 234.72 185.414 234.32C185.974 233.893 186.254 233.307 186.254 232.56C186.254 231.68 185.867 231.04 185.094 230.64C184.347 230.213 183.201 230 181.654 230V227.44C182.881 227.44 183.841 227.227 184.534 226.8C185.227 226.373 185.574 225.76 185.574 224.96C185.574 224.293 185.347 223.773 184.894 223.4C184.441 223 183.841 222.8 183.094 222.8C182.507 222.8 181.947 222.987 181.414 223.36C180.907 223.707 180.441 224.16 180.014 224.72L177.534 222.48C178.441 221.467 179.374 220.72 180.334 220.24C181.321 219.733 182.481 219.48 183.814 219.48C184.907 219.48 185.907 219.68 186.814 220.08C187.721 220.453 188.454 221.013 189.014 221.76C189.574 222.48 189.854 223.347 189.854 224.36C189.854 225.32 189.601 226.133 189.094 226.8C188.614 227.467 187.961 228.04 187.134 228.52C188.067 228.867 188.867 229.413 189.534 230.16C190.201 230.88 190.534 231.773 190.534 232.84C190.534 233.907 190.227 234.853 189.614 235.68C189.001 236.507 188.174 237.147 187.134 237.6C186.121 238.053 185.014 238.28 183.814 238.28ZM206.207 239.8C206.207 242.653 205.847 245.267 205.127 247.64C204.407 250.013 203.447 252.147 202.247 254.04C201.074 255.933 199.767 257.587 198.327 259L194.527 257.32C195.861 255.88 197.061 254.293 198.127 252.56C199.221 250.827 200.087 248.907 200.727 246.8C201.367 244.667 201.687 242.333 201.687 239.8C201.687 237.24 201.367 234.907 200.727 232.8C200.087 230.693 199.221 228.773 198.127 227.04C197.061 225.28 195.861 223.693 194.527 222.28L198.327 220.6C199.767 222.013 201.074 223.667 202.247 225.56C203.447 227.453 204.407 229.587 205.127 231.96C205.847 234.333 206.207 236.947 206.207 239.8Z" fill="#00A0E9"/>
</svg>
