<svg width="331" height="400" viewBox="0 0 331 400" fill="none" xmlns="http://www.w3.org/2000/svg">
<rect width="330" height="400" transform="translate(0.5)" fill="#576275"/>
<path d="M309.5 17H21.5V383H309.5V17Z" fill="#F8FBF9"/>
<path d="M179.803 48.5492C179.803 41.4743 173.397 35.739 165.495 35.739C157.593 35.739 151.187 41.4743 151.187 48.5492C151.187 55.6241 157.593 61.3594 165.495 61.3594C173.397 61.3594 179.803 55.6241 179.803 48.5492Z" fill="#262324"/>
<path d="M126.1 197.76H161.58V201.8H126.1V197.76ZM136.22 206.52V208.72H151.78V206.52H136.22ZM131.42 203.32H156.82V211.92H131.42V203.32ZM127.18 213.52H159.26V217.44H131.86V231.56H127.18V213.52ZM155.82 213.52H160.66V227.2C160.66 228.24 160.513 229.013 160.22 229.52C159.927 230.027 159.393 230.44 158.62 230.76C157.9 231 157.007 231.147 155.94 231.2C154.873 231.253 153.62 231.28 152.18 231.28C152.073 230.72 151.873 230.12 151.58 229.48C151.313 228.84 151.047 228.28 150.78 227.8C151.313 227.8 151.873 227.813 152.46 227.84C153.073 227.867 153.62 227.88 154.1 227.88C154.58 227.853 154.887 227.84 155.02 227.84C155.553 227.84 155.82 227.613 155.82 227.16V213.52ZM140.58 194.92L145.54 193.72C145.887 194.573 146.26 195.52 146.66 196.56C147.087 197.573 147.393 198.427 147.58 199.12L142.34 200.52C142.18 199.827 141.927 198.947 141.58 197.88C141.233 196.813 140.9 195.827 140.58 194.92ZM137.5 218.92H152.38V227.88H137.5V224.56H148.18V222.24H137.5V218.92ZM134.9 218.92H139.34V229.52H134.9V218.92ZM180.82 214.16H203.5V228.4H198.98V218.16H196.7V228.4H193.14V218.16H190.9V228.4H187.34V218.16H185.1V228.4H180.82V214.16ZM177.54 226.28H205.98V230.44H177.54V226.28ZM170.3 197.76L172.98 194.16C173.753 194.453 174.58 194.827 175.46 195.28C176.367 195.707 177.207 196.16 177.98 196.64C178.78 197.12 179.433 197.587 179.94 198.04L177.14 202C176.66 201.52 176.033 201.027 175.26 200.52C174.513 200.013 173.7 199.507 172.82 199C171.94 198.493 171.1 198.08 170.3 197.76ZM168.22 208.56L170.82 204.92C171.62 205.213 172.46 205.56 173.34 205.96C174.22 206.36 175.047 206.8 175.82 207.28C176.62 207.733 177.273 208.173 177.78 208.6L175.02 212.6C174.567 212.147 173.953 211.68 173.18 211.2C172.407 210.693 171.58 210.213 170.7 209.76C169.847 209.307 169.02 208.907 168.22 208.56ZM168.9 228.28C169.513 227.24 170.193 226.027 170.94 224.64C171.687 223.227 172.447 221.733 173.22 220.16C173.993 218.56 174.713 216.973 175.38 215.4L179.14 218.28C178.553 219.72 177.927 221.187 177.26 222.68C176.62 224.147 175.953 225.6 175.26 227.04C174.593 228.453 173.913 229.813 173.22 231.12L168.9 228.28ZM186.54 199.32V208.52H197.42V199.32H186.54ZM182.22 195.72H201.98V212.08H182.22V195.72ZM190.7 199.56L193.86 199.92C193.54 201.573 192.927 203.147 192.02 204.64C191.113 206.133 189.913 207.307 188.42 208.16C188.207 207.84 187.9 207.467 187.5 207.04C187.127 206.587 186.78 206.24 186.46 206C187.713 205.333 188.687 204.413 189.38 203.24C190.073 202.067 190.513 200.84 190.7 199.56ZM190.3 203.6L192.46 201.88C192.993 202.307 193.553 202.773 194.14 203.28C194.727 203.787 195.287 204.28 195.82 204.76C196.38 205.24 196.833 205.68 197.18 206.08L194.98 208.08C194.633 207.68 194.193 207.227 193.66 206.72C193.153 206.187 192.593 205.653 191.98 205.12C191.393 204.56 190.833 204.053 190.3 203.6Z" fill="#00A0E9"/>
</svg>
