<svg width="331" height="400" viewBox="0 0 331 400" fill="none" xmlns="http://www.w3.org/2000/svg">
<rect width="330" height="400" transform="translate(0.5)" fill="#576275"/>
<path d="M309.5 17H21.5V383H309.5V17Z" fill="#F8FBF9"/>
<path d="M179.803 48.5492C179.803 41.4743 173.397 35.739 165.495 35.739C157.593 35.739 151.187 41.4743 151.187 48.5492C151.187 55.6241 157.593 61.3594 165.495 61.3594C173.397 61.3594 179.803 55.6241 179.803 48.5492Z" fill="#262324"/>
<path d="M94.7 200.92L99.14 198.8C99.9933 199.76 100.833 200.813 101.66 201.96C102.487 203.107 103.22 204.24 103.86 205.36C104.527 206.453 105.06 207.467 105.46 208.4L100.74 210.92C100.42 210.013 99.94 208.973 99.3 207.8C98.66 206.6 97.94 205.4 97.14 204.2C96.34 203 95.5267 201.907 94.7 200.92ZM81.74 221.92C83.1 221.467 84.6733 220.893 86.46 220.2C88.2733 219.507 90.1667 218.76 92.14 217.96C94.14 217.16 96.1133 216.36 98.06 215.56L99.18 220.24C97.3933 221.04 95.58 221.84 93.74 222.64C91.9 223.44 90.0867 224.213 88.3 224.96C86.54 225.707 84.9 226.4 83.38 227.04L81.74 221.92ZM105.18 218.36L108.86 214.96C109.767 215.92 110.74 216.947 111.78 218.04C112.847 219.133 113.887 220.253 114.9 221.4C115.94 222.52 116.9 223.613 117.78 224.68C118.66 225.72 119.38 226.68 119.94 227.56L115.82 231.56C115.313 230.653 114.633 229.64 113.78 228.52C112.953 227.427 112.047 226.293 111.06 225.12C110.1 223.947 109.1 222.787 108.06 221.64C107.047 220.467 106.087 219.373 105.18 218.36ZM110.62 196.32L115.94 196.8C115.46 201.333 114.767 205.427 113.86 209.08C112.953 212.707 111.74 215.947 110.22 218.8C108.7 221.627 106.78 224.107 104.46 226.24C102.167 228.373 99.38 230.173 96.1 231.64C95.86 231.293 95.5133 230.853 95.06 230.32C94.6067 229.787 94.1267 229.24 93.62 228.68C93.1133 228.147 92.66 227.72 92.26 227.4C95.46 226.173 98.14 224.64 100.3 222.8C102.487 220.96 104.273 218.773 105.66 216.24C107.047 213.68 108.127 210.76 108.9 207.48C109.673 204.173 110.247 200.453 110.62 196.32ZM86.26 196.48L91.3 196.28L92.22 222.28L87.18 222.48L86.26 196.48ZM142.74 206.04H159.38V210.88H142.74V206.04ZM125.62 224.76H162.22V229.6H125.62V224.76ZM140.02 194.52H145.18V227.44H140.02V194.52ZM174.18 213.8H201.42V231.6H196.22V217.8H179.14V231.6H174.18V213.8ZM176.9 220.24H197.74V223.84H176.9V220.24ZM175.42 197.92H186.82V202.2H175.42V197.92ZM176.9 226.4H197.74V230.32H176.9V226.4ZM183.74 209.88L188.94 210.88C188.46 211.893 187.993 212.84 187.54 213.72C187.113 214.6 186.713 215.36 186.34 216L182.1 215.04C182.42 214.293 182.727 213.44 183.02 212.48C183.34 211.493 183.58 210.627 183.74 209.88ZM188.34 194H193.42V205.88C193.42 206.573 193.527 207.013 193.74 207.2C193.98 207.387 194.487 207.48 195.26 207.48C195.447 207.48 195.727 207.48 196.1 207.48C196.5 207.48 196.94 207.48 197.42 207.48C197.9 207.48 198.353 207.48 198.78 207.48C199.207 207.48 199.513 207.48 199.7 207.48C200.153 207.48 200.487 207.4 200.7 207.24C200.94 207.053 201.113 206.707 201.22 206.2C201.327 205.693 201.407 204.947 201.46 203.96C201.807 204.2 202.233 204.44 202.74 204.68C203.273 204.92 203.82 205.133 204.38 205.32C204.94 205.507 205.447 205.653 205.9 205.76C205.713 207.333 205.42 208.56 205.02 209.44C204.62 210.32 204.033 210.947 203.26 211.32C202.513 211.667 201.5 211.84 200.22 211.84C200.007 211.84 199.7 211.84 199.3 211.84C198.927 211.84 198.5 211.84 198.02 211.84C197.567 211.84 197.1 211.84 196.62 211.84C196.167 211.84 195.74 211.84 195.34 211.84C194.967 211.84 194.687 211.84 194.5 211.84C192.847 211.84 191.567 211.667 190.66 211.32C189.78 210.947 189.167 210.333 188.82 209.48C188.5 208.6 188.34 207.413 188.34 205.92V194ZM172.98 212.48L172.7 208.76L174.78 207.32L187.22 205.16C187.113 205.773 187.06 206.507 187.06 207.36C187.087 208.213 187.113 208.893 187.14 209.4C184.9 209.853 182.993 210.227 181.42 210.52C179.873 210.813 178.593 211.067 177.58 211.28C176.593 211.467 175.793 211.64 175.18 211.8C174.593 211.933 174.127 212.053 173.78 212.16C173.46 212.24 173.193 212.347 172.98 212.48ZM172.98 212.48C172.873 212.107 172.687 211.68 172.42 211.2C172.18 210.693 171.913 210.2 171.62 209.72C171.353 209.24 171.1 208.867 170.86 208.6C171.34 208.307 171.847 207.867 172.38 207.28C172.94 206.693 173.22 205.92 173.22 204.96V194.04H178.38V207.84C178.38 207.84 178.193 207.947 177.82 208.16C177.473 208.373 177.033 208.653 176.5 209C175.967 209.347 175.42 209.733 174.86 210.16C174.327 210.56 173.873 210.96 173.5 211.36C173.153 211.76 172.98 212.133 172.98 212.48ZM190.98 197.92H204.1V202.2H190.98V197.92ZM212.62 211.12H248.06V215.32H212.62V211.12ZM230.54 218.32H245.5V222.48H230.54V218.32ZM228.3 213.28H233.18V228.08H228.3V213.28ZM222.14 219.64C222.887 221.587 223.927 223.053 225.26 224.04C226.593 225 228.193 225.64 230.06 225.96C231.953 226.28 234.06 226.453 236.38 226.48C236.833 226.48 237.46 226.48 238.26 226.48C239.087 226.48 240.007 226.48 241.02 226.48C242.033 226.48 243.047 226.48 244.06 226.48C245.1 226.453 246.073 226.44 246.98 226.44C247.887 226.413 248.633 226.387 249.22 226.36C248.98 226.733 248.753 227.187 248.54 227.72C248.327 228.253 248.127 228.8 247.94 229.36C247.78 229.947 247.66 230.48 247.58 230.96H245.18H236.14C233.82 230.96 231.727 230.827 229.86 230.56C228.02 230.293 226.367 229.8 224.9 229.08C223.433 228.387 222.14 227.387 221.02 226.08C219.927 224.747 218.967 223.04 218.14 220.96L222.14 219.64ZM218.66 216.16L223.42 216.84C222.78 220.147 221.727 223.053 220.26 225.56C218.82 228.04 217.007 230.067 214.82 231.64C214.58 231.347 214.233 230.987 213.78 230.56C213.353 230.133 212.9 229.707 212.42 229.28C211.967 228.853 211.553 228.52 211.18 228.28C213.233 227.027 214.873 225.36 216.1 223.28C217.327 221.2 218.18 218.827 218.66 216.16ZM220.98 203.92V205.92H239.34V203.92H220.98ZM220.98 198.8V200.76H239.34V198.8H220.98ZM216.34 195.36H244.22V209.32H216.34V195.36Z" fill="#00A0E9"/>
</svg>
