<svg width="331" height="400" viewBox="0 0 331 400" fill="none" xmlns="http://www.w3.org/2000/svg">
<rect width="330" height="400" transform="translate(0.5)" fill="#576275"/>
<path d="M309.5 17H21.5V383H309.5V17Z" fill="#F8FBF9"/>
<path d="M179.803 48.5492C179.803 41.4743 173.397 35.739 165.495 35.739C157.593 35.739 151.187 41.4743 151.187 48.5492C151.187 55.6241 157.593 61.3594 165.495 61.3594C173.397 61.3594 179.803 55.6241 179.803 48.5492Z" fill="#262324"/>
<path d="M56.4456 153.92H87.9256V157.76H56.4456V153.92ZM54.4856 143.2H86.7656V146.96H54.4856V143.2ZM63.0856 160.96H85.8456V164.72H63.0856V160.96ZM62.6856 166.76H84.6456V170.44H62.6856V166.76ZM59.0056 172.72H88.5656V176.6H59.0056V172.72ZM71.1656 158.48H75.8856V175.44H71.1656V158.48ZM54.0856 153.92H58.7256V161.16C58.7256 162.387 58.659 163.747 58.5256 165.24C58.419 166.733 58.2056 168.253 57.8856 169.8C57.5656 171.32 57.1123 172.787 56.5256 174.2C55.939 175.613 55.1656 176.893 54.2056 178.04C53.9656 177.747 53.619 177.387 53.1656 176.96C52.7123 176.56 52.2323 176.173 51.7256 175.8C51.2456 175.427 50.8323 175.147 50.4856 174.96C51.579 173.627 52.379 172.147 52.8856 170.52C53.3923 168.893 53.7123 167.267 53.8456 165.64C54.0056 163.987 54.0856 162.467 54.0856 161.08V153.92ZM63.1256 158.12L67.2056 159.32C66.459 161.347 65.4856 163.32 64.2856 165.24C63.1123 167.16 61.8056 168.76 60.3656 170.04C60.2856 169.693 60.1123 169.253 59.8456 168.72C59.579 168.16 59.299 167.6 59.0056 167.04C58.739 166.453 58.4856 165.987 58.2456 165.64C59.2856 164.707 60.2323 163.587 61.0856 162.28C61.939 160.973 62.619 159.587 63.1256 158.12ZM59.1256 148.68L62.1656 146.4C63.979 146.747 65.8856 147.16 67.8856 147.64C69.8856 148.093 71.8723 148.587 73.8456 149.12C75.819 149.627 77.699 150.133 79.4856 150.64C81.2723 151.147 82.859 151.613 84.2456 152.04L81.2456 154.6C79.939 154.12 78.4056 153.613 76.6456 153.08C74.8856 152.52 73.0056 151.987 71.0056 151.48C69.0323 150.947 67.019 150.44 64.9656 149.96C62.939 149.48 60.9923 149.053 59.1256 148.68ZM79.6856 146.24L82.8856 148.2C81.3656 148.92 79.6723 149.6 77.8056 150.24C75.9656 150.88 74.019 151.48 71.9656 152.04C69.939 152.573 67.9123 153.067 65.8856 153.52C63.8856 153.947 61.979 154.32 60.1656 154.64C59.819 154.267 59.379 153.827 58.8456 153.32C58.339 152.787 57.8856 152.373 57.4856 152.08C59.379 151.787 61.3656 151.44 63.4456 151.04C65.5256 150.64 67.5656 150.187 69.5656 149.68C71.5923 149.147 73.4856 148.6 75.2456 148.04C77.0056 147.453 78.4856 146.853 79.6856 146.24ZM66.9256 141.12L70.1656 139.56C70.779 140.227 71.3923 141 72.0056 141.88C72.619 142.733 73.059 143.493 73.3256 144.16L69.9256 145.96C69.659 145.293 69.2323 144.507 68.6456 143.6C68.0856 142.693 67.5123 141.867 66.9256 141.12ZM105.926 146.2V151.56H120.006V146.2H105.926ZM101.286 141.6H124.886V156.12H101.286V141.6ZM95.7656 159.48H111.086V177.36H106.286V164.08H100.326V177.6H95.7656V159.48ZM114.446 159.48H130.286V177.4H125.486V164.08H119.046V177.6H114.446V159.48ZM97.7656 170.96H108.286V175.56H97.7656V170.96ZM116.646 170.96H127.846V175.56H116.646V170.96ZM136.726 181.24L146.686 141.76H150.566L140.646 181.24H136.726ZM170.514 161.36H191.514V177.36H186.914V165.72H174.914V177.56H170.514V161.36ZM188.314 140L191.994 143.76C190.048 144.507 187.888 145.16 185.514 145.72C183.141 146.253 180.701 146.693 178.194 147.04C175.714 147.387 173.288 147.667 170.914 147.88C170.834 147.32 170.648 146.64 170.354 145.84C170.088 145.013 169.821 144.333 169.554 143.8C171.261 143.613 172.981 143.4 174.714 143.16C176.474 142.92 178.181 142.64 179.834 142.32C181.488 142 183.034 141.653 184.474 141.28C185.914 140.88 187.194 140.453 188.314 140ZM178.714 144.52H183.274V163.88H178.714V144.52ZM168.034 151.68H193.514V156.24H168.034V151.68ZM173.674 171.56H188.834V175.92H173.674V171.56ZM158.154 144L160.874 140.52C161.621 140.893 162.461 141.32 163.394 141.8C164.328 142.28 165.234 142.76 166.114 143.24C167.021 143.72 167.754 144.147 168.314 144.52L165.474 148.4C164.941 148 164.248 147.547 163.394 147.04C162.541 146.533 161.648 146.013 160.714 145.48C159.781 144.92 158.928 144.427 158.154 144ZM156.234 155.08L158.834 151.52C159.581 151.84 160.434 152.24 161.394 152.72C162.354 153.2 163.288 153.68 164.194 154.16C165.101 154.613 165.834 155.027 166.394 155.4L163.714 159.4C163.181 159 162.474 158.547 161.594 158.04C160.741 157.533 159.834 157.013 158.874 156.48C157.914 155.947 157.034 155.48 156.234 155.08ZM156.834 173.88C157.554 172.867 158.341 171.68 159.194 170.32C160.074 168.933 160.968 167.467 161.874 165.92C162.781 164.347 163.634 162.787 164.434 161.24L167.954 164.44C167.261 165.827 166.514 167.253 165.714 168.72C164.941 170.187 164.141 171.627 163.314 173.04C162.514 174.453 161.701 175.813 160.874 177.12L156.834 173.88ZM200.354 165.88H219.034V169.28H200.354V165.88ZM199.474 146.84H219.474V150.32H199.474V146.84ZM207.394 144.04H211.754V172.72H207.394V144.04ZM199.234 172.24C200.914 172.133 202.834 172 204.994 171.84C207.154 171.68 209.434 171.507 211.834 171.32C214.261 171.107 216.674 170.893 219.074 170.68L219.114 174.32C216.848 174.56 214.554 174.8 212.234 175.04C209.941 175.28 207.728 175.493 205.594 175.68C203.488 175.893 201.554 176.093 199.794 176.28L199.234 172.24ZM204.314 159.52V161.32H214.874V159.52H204.314ZM204.314 154.88V156.68H214.874V154.88H204.314ZM200.514 151.88H218.834V164.32H200.514V151.88ZM216.914 140.24L218.994 143.8C217.314 144.147 215.421 144.453 213.314 144.72C211.234 144.96 209.101 145.16 206.914 145.32C204.728 145.453 202.634 145.547 200.634 145.6C200.554 145.093 200.408 144.52 200.194 143.88C200.008 143.213 199.794 142.64 199.554 142.16C201.048 142.08 202.581 141.987 204.154 141.88C205.728 141.747 207.274 141.6 208.794 141.44C210.341 141.28 211.794 141.107 213.154 140.92C214.541 140.707 215.794 140.48 216.914 140.24ZM219.434 149.08H233.314V153.48H219.434V149.08ZM231.354 149.08H235.954C235.954 149.08 235.954 149.213 235.954 149.48C235.954 149.747 235.954 150.053 235.954 150.4C235.954 150.72 235.954 150.987 235.954 151.2C235.848 155.307 235.741 158.8 235.634 161.68C235.528 164.533 235.408 166.893 235.274 168.76C235.168 170.6 234.994 172.04 234.754 173.08C234.541 174.12 234.274 174.867 233.954 175.32C233.501 175.987 233.021 176.453 232.514 176.72C232.034 177.013 231.461 177.227 230.794 177.36C230.181 177.467 229.434 177.52 228.554 177.52C227.674 177.547 226.754 177.547 225.794 177.52C225.768 176.853 225.621 176.08 225.354 175.2C225.114 174.32 224.808 173.56 224.434 172.92C225.288 173 226.074 173.053 226.794 173.08C227.514 173.107 228.061 173.12 228.434 173.12C228.754 173.12 229.021 173.067 229.234 172.96C229.448 172.853 229.648 172.68 229.834 172.44C230.048 172.12 230.234 171.507 230.394 170.6C230.554 169.667 230.688 168.347 230.794 166.64C230.928 164.907 231.034 162.68 231.114 159.96C231.221 157.24 231.301 153.947 231.354 150.08V149.08ZM223.274 140.68H227.874C227.874 144.093 227.834 147.333 227.754 150.4C227.701 153.467 227.528 156.36 227.234 159.08C226.968 161.773 226.501 164.28 225.834 166.6C225.194 168.893 224.288 170.987 223.114 172.88C221.941 174.773 220.434 176.44 218.594 177.88C218.354 177.48 218.034 177.053 217.634 176.6C217.261 176.147 216.861 175.707 216.434 175.28C216.034 174.88 215.634 174.547 215.234 174.28C216.914 173 218.274 171.533 219.314 169.88C220.354 168.2 221.154 166.347 221.714 164.32C222.274 162.267 222.661 160.027 222.874 157.6C223.088 155.147 223.208 152.52 223.234 149.72C223.261 146.893 223.274 143.88 223.274 140.68ZM248.234 163.32H274.154V167.48H248.234V163.32ZM250.154 154.48H272.194V158.72H250.154V154.48ZM244.274 172.36H278.474V176.64H244.274V172.36ZM258.594 156.36H263.634V174.72H258.594V156.36ZM249.994 141.24H263.394V145.68H249.994V141.24ZM258.514 141.24H263.794C264.648 142.52 265.674 143.773 266.874 145C268.074 146.227 269.408 147.4 270.874 148.52C272.341 149.64 273.888 150.667 275.514 151.6C277.141 152.507 278.808 153.267 280.514 153.88C280.194 154.227 279.821 154.667 279.394 155.2C278.994 155.707 278.594 156.24 278.194 156.8C277.821 157.333 277.514 157.827 277.274 158.28C274.954 157.187 272.701 155.867 270.514 154.32C268.354 152.747 266.354 151.067 264.514 149.28C262.701 147.467 261.114 145.667 259.754 143.88H258.514V141.24ZM259.274 141.24L262.794 143.68C261.808 145.067 260.621 146.453 259.234 147.84C257.874 149.227 256.394 150.573 254.794 151.88C253.221 153.16 251.608 154.36 249.954 155.48C248.301 156.573 246.674 157.507 245.074 158.28C244.728 157.693 244.274 157.027 243.714 156.28C243.181 155.533 242.648 154.907 242.114 154.4C243.688 153.76 245.301 152.96 246.954 152C248.608 151.013 250.208 149.933 251.754 148.76C253.301 147.56 254.714 146.32 255.994 145.04C257.274 143.76 258.368 142.493 259.274 141.24ZM67.42 201.28H95.26V205.96H67.42V201.28ZM65.74 213.04H93.7V217.68H65.74V213.04ZM61.14 225.76H97.3V230.44H61.14V225.76ZM76.66 194H81.7V228.04H76.66V194ZM67.42 194.52L72.38 195.64C71.82 197.693 71.1267 199.72 70.3 201.72C69.4733 203.72 68.58 205.587 67.62 207.32C66.66 209.027 65.66 210.52 64.62 211.8C64.3 211.507 63.8733 211.187 63.34 210.84C62.8333 210.467 62.3 210.107 61.74 209.76C61.18 209.413 60.7 209.133 60.3 208.92C61.3667 207.8 62.34 206.467 63.22 204.92C64.1267 203.373 64.9267 201.707 65.62 199.92C66.34 198.133 66.94 196.333 67.42 194.52ZM113.54 204.4H130.74V208.72H113.54V204.4ZM108.9 211.04H120.1V225.48H108.9V221.32H115.58V215.2H108.9V211.04ZM123.18 211.08H134.78V215.32H127.9V231.64H123.18V211.08ZM133.42 211.08H138.06V222.04C138.06 223.107 137.94 223.96 137.7 224.6C137.487 225.24 137.007 225.747 136.26 226.12C135.593 226.467 134.767 226.68 133.78 226.76C132.82 226.813 131.673 226.84 130.34 226.84C130.287 226.2 130.127 225.48 129.86 224.68C129.62 223.853 129.367 223.133 129.1 222.52C129.873 222.547 130.62 222.56 131.34 222.56C132.06 222.56 132.54 222.56 132.78 222.56C133.02 222.533 133.18 222.48 133.26 222.4C133.367 222.32 133.42 222.173 133.42 221.96V211.08ZM106.74 211.04H111.14V228.72H106.74V211.04ZM122.54 193.36L126.34 196.12C125.247 197.533 123.927 198.907 122.38 200.24C120.833 201.547 119.14 202.773 117.3 203.92C115.487 205.067 113.607 206.107 111.66 207.04C109.74 207.947 107.807 208.707 105.86 209.32C105.567 208.6 105.153 207.813 104.62 206.96C104.113 206.08 103.593 205.333 103.06 204.72C104.98 204.293 106.887 203.693 108.78 202.92C110.673 202.147 112.487 201.253 114.22 200.24C115.953 199.227 117.527 198.147 118.94 197C120.38 195.827 121.58 194.613 122.54 193.36ZM124.7 196.16C125.553 197.12 126.58 198.04 127.78 198.92C128.98 199.773 130.313 200.573 131.78 201.32C133.273 202.04 134.833 202.68 136.46 203.24C138.113 203.8 139.793 204.24 141.5 204.56C141.127 204.933 140.713 205.387 140.26 205.92C139.833 206.453 139.42 207.013 139.02 207.6C138.647 208.16 138.327 208.68 138.06 209.16C136.3 208.68 134.593 208.067 132.94 207.32C131.287 206.573 129.7 205.707 128.18 204.72C126.687 203.733 125.3 202.667 124.02 201.52C122.74 200.373 121.607 199.147 120.62 197.84L124.7 196.16ZM161.82 195.36H179.9V199.24H161.82V195.36ZM163.1 201.52H178.62V204.76H163.1V201.52ZM162.74 207.28H179.1V210.48H162.74V207.28ZM168.42 198.84H172.38V208.52H168.42V198.84ZM159.18 195.36H163.54V205.72C163.54 207.08 163.513 208.587 163.46 210.24C163.407 211.893 163.287 213.587 163.1 215.32C162.94 217.027 162.687 218.693 162.34 220.32C162.02 221.947 161.593 223.427 161.06 224.76C160.793 224.547 160.407 224.293 159.9 224C159.42 223.707 158.927 223.427 158.42 223.16C157.94 222.893 157.513 222.693 157.14 222.56C157.807 220.933 158.273 219.133 158.54 217.16C158.833 215.16 159.007 213.173 159.06 211.2C159.14 209.2 159.18 207.373 159.18 205.72V195.36ZM177.82 195.36H182.22V220.6C182.22 221.64 182.1 222.467 181.86 223.08C181.62 223.667 181.18 224.133 180.54 224.48C179.9 224.827 179.1 225.04 178.14 225.12C177.207 225.2 176.073 225.24 174.74 225.24C174.687 224.653 174.527 223.973 174.26 223.2C174.02 222.427 173.767 221.76 173.5 221.2C174.273 221.227 175.007 221.253 175.7 221.28C176.42 221.28 176.9 221.28 177.14 221.28C177.593 221.28 177.82 221.04 177.82 220.56V195.36ZM148.18 196.2L151.82 194.2C152.38 194.84 152.953 195.533 153.54 196.28C154.153 197 154.727 197.707 155.26 198.4C155.793 199.093 156.233 199.72 156.58 200.28L152.82 202.68C152.5 202.093 152.073 201.427 151.54 200.68C151.033 199.933 150.473 199.173 149.86 198.4C149.273 197.6 148.713 196.867 148.18 196.2ZM147.22 203.36H155.06V207.16H147.22V203.36ZM155.26 220.72C155.98 222.507 156.98 223.84 158.26 224.72C159.54 225.573 161.1 226.133 162.94 226.4C164.807 226.64 166.953 226.773 169.38 226.8C170.82 226.8 172.447 226.773 174.26 226.72C176.073 226.667 177.9 226.587 179.74 226.48C181.607 226.373 183.3 226.253 184.82 226.12C184.607 226.44 184.393 226.867 184.18 227.4C183.993 227.933 183.82 228.48 183.66 229.04C183.5 229.6 183.38 230.107 183.3 230.56C181.913 230.64 180.433 230.707 178.86 230.76C177.287 230.84 175.687 230.88 174.06 230.88C172.46 230.907 170.873 230.92 169.3 230.92C166.953 230.92 164.873 230.813 163.06 230.6C161.247 230.387 159.647 229.973 158.26 229.36C156.9 228.747 155.7 227.853 154.66 226.68C153.647 225.507 152.78 223.96 152.06 222.04L155.26 220.72ZM153.22 213.08H154.38L155.1 212.96L157.38 213.76C156.82 218.107 155.833 221.773 154.42 224.76C153.033 227.747 151.3 230.027 149.22 231.6C149.007 231.307 148.713 230.947 148.34 230.52C147.967 230.093 147.58 229.68 147.18 229.28C146.78 228.907 146.42 228.613 146.1 228.4C147.993 227.067 149.553 225.16 150.78 222.68C152.007 220.2 152.82 217.24 153.22 213.8V213.08ZM147.94 217.4V213.96L149.62 213.08H154.78V216.8H150.3C149.873 216.8 149.42 216.853 148.94 216.96C148.46 217.067 148.127 217.213 147.94 217.4ZM147.94 217.4C147.86 217.053 147.727 216.64 147.54 216.16C147.353 215.68 147.153 215.2 146.94 214.72C146.753 214.24 146.58 213.853 146.42 213.56C146.74 213.453 147.06 213.32 147.38 213.16C147.727 212.973 148.06 212.68 148.38 212.28C148.647 211.987 149.02 211.493 149.5 210.8C149.98 210.08 150.5 209.293 151.06 208.44C151.62 207.56 152.14 206.707 152.62 205.88C153.127 205.053 153.527 204.36 153.82 203.8V203.64L155.02 203.2L157.94 204.32C157.54 205.013 157.047 205.827 156.46 206.76C155.9 207.667 155.3 208.627 154.66 209.64C154.02 210.627 153.393 211.573 152.78 212.48C152.167 213.387 151.607 214.16 151.1 214.8C151.1 214.8 150.94 214.88 150.62 215.04C150.3 215.2 149.927 215.427 149.5 215.72C149.1 215.987 148.74 216.267 148.42 216.56C148.1 216.853 147.94 217.133 147.94 217.4ZM165.02 212.4H175.7V221.6H172.34V215.52H168.26V222.72H165.02V212.4ZM165.58 218.44H175.38V221.6H165.58V218.44ZM213.3 195.8H223.62V200.16H213.3V195.8ZM213.3 204.84H223.62V209.08H213.3V204.84ZM213.26 214H223.66V218.28H213.26V214ZM221.58 195.8H226.18V226.28C226.18 227.453 226.047 228.373 225.78 229.04C225.513 229.733 225.033 230.28 224.34 230.68C223.647 231.053 222.767 231.293 221.7 231.4C220.66 231.507 219.393 231.547 217.9 231.52C217.82 230.88 217.647 230.107 217.38 229.2C217.113 228.32 216.833 227.573 216.54 226.96C217.393 227.013 218.233 227.04 219.06 227.04C219.913 227.04 220.487 227.04 220.78 227.04C221.073 227.04 221.273 226.987 221.38 226.88C221.513 226.747 221.58 226.533 221.58 226.24V195.8ZM211.3 195.8H215.82V210.52C215.82 212.093 215.767 213.813 215.66 215.68C215.58 217.547 215.393 219.44 215.1 221.36C214.833 223.253 214.447 225.093 213.94 226.88C213.433 228.667 212.74 230.267 211.86 231.68C211.62 231.387 211.26 231.053 210.78 230.68C210.3 230.333 209.82 230 209.34 229.68C208.86 229.36 208.433 229.12 208.06 228.96C209.073 227.227 209.807 225.293 210.26 223.16C210.713 221.027 210.993 218.867 211.1 216.68C211.233 214.467 211.3 212.413 211.3 210.52V195.8ZM190.38 198.72H209.98V202.92H190.38V198.72ZM195.58 205.28H205.14V208.92H195.58V205.28ZM195.58 211.48H205.14V215.16H195.58V211.48ZM189.9 217.84H209.7V222.04H189.9V217.84ZM193.5 194.48H197.82V219.36H193.5V194.48ZM202.82 194.48H207.22V219.36H202.82V194.48ZM194.86 222.32L199.42 223.64C198.673 225.107 197.753 226.56 196.66 228C195.567 229.467 194.487 230.693 193.42 231.68C193.153 231.387 192.78 231.067 192.3 230.72C191.847 230.373 191.367 230.027 190.86 229.68C190.38 229.333 189.953 229.053 189.58 228.84C190.647 228.04 191.647 227.053 192.58 225.88C193.54 224.707 194.3 223.52 194.86 222.32ZM200.82 224.12L204.46 222.12C204.993 222.68 205.54 223.32 206.1 224.04C206.687 224.733 207.233 225.427 207.74 226.12C208.273 226.787 208.7 227.4 209.02 227.96L205.14 230.2C204.873 229.667 204.487 229.04 203.98 228.32C203.5 227.627 202.98 226.907 202.42 226.16C201.86 225.413 201.327 224.733 200.82 224.12ZM237.62 200.52H249.9V227.44H237.62V223.24H245.58V204.68H237.62V200.52ZM234.82 200.52H239.18V230.4H234.82V200.52ZM237.46 211.2H247.66V215.36H237.46V211.2ZM240.54 194L245.74 194.76C245.313 196.12 244.847 197.467 244.34 198.8C243.86 200.133 243.42 201.267 243.02 202.2L239.18 201.32C239.367 200.627 239.54 199.853 239.7 199C239.887 198.147 240.06 197.28 240.22 196.4C240.38 195.52 240.487 194.72 240.54 194ZM255.18 200.2H266.9V204.6H255.18V200.2ZM265.22 200.2H269.66C269.66 200.2 269.66 200.347 269.66 200.64C269.66 200.907 269.66 201.213 269.66 201.56C269.66 201.907 269.647 202.173 269.62 202.36C269.513 206.867 269.38 210.693 269.22 213.84C269.087 216.96 268.913 219.547 268.7 221.6C268.513 223.627 268.287 225.213 268.02 226.36C267.753 227.507 267.407 228.347 266.98 228.88C266.447 229.653 265.873 230.187 265.26 230.48C264.647 230.773 263.94 230.987 263.14 231.12C262.367 231.227 261.407 231.267 260.26 231.24C259.14 231.24 257.993 231.227 256.82 231.2C256.793 230.533 256.633 229.747 256.34 228.84C256.047 227.96 255.687 227.187 255.26 226.52C256.54 226.627 257.727 226.693 258.82 226.72C259.94 226.747 260.753 226.76 261.26 226.76C261.66 226.76 261.98 226.72 262.22 226.64C262.487 226.533 262.74 226.347 262.98 226.08C263.327 225.733 263.607 225.027 263.82 223.96C264.06 222.867 264.26 221.333 264.42 219.36C264.58 217.387 264.727 214.893 264.86 211.88C264.993 208.867 265.113 205.28 265.22 201.12V200.2ZM255.3 194.04L259.94 195.12C259.433 197.067 258.807 199.013 258.06 200.96C257.34 202.907 256.54 204.747 255.66 206.48C254.807 208.187 253.927 209.68 253.02 210.96C252.753 210.693 252.367 210.387 251.86 210.04C251.38 209.667 250.887 209.307 250.38 208.96C249.9 208.613 249.473 208.347 249.1 208.16C249.98 207.013 250.807 205.693 251.58 204.2C252.38 202.68 253.087 201.053 253.7 199.32C254.34 197.56 254.873 195.8 255.3 194.04ZM253.34 211.76L257.1 209.64C257.767 210.547 258.473 211.547 259.22 212.64C259.967 213.733 260.673 214.8 261.34 215.84C262.007 216.88 262.553 217.8 262.98 218.6L258.9 221.08C258.527 220.253 258.02 219.307 257.38 218.24C256.767 217.173 256.1 216.08 255.38 214.96C254.687 213.813 254.007 212.747 253.34 211.76ZM115.82 267.16L119.34 269.72C118.407 270.653 117.513 271.6 116.66 272.56C115.833 273.493 115.073 274.293 114.38 274.96L111.82 272.96C112.273 272.453 112.74 271.867 113.22 271.2C113.7 270.507 114.167 269.813 114.62 269.12C115.1 268.4 115.5 267.747 115.82 267.16ZM105.54 248H109.78V256.84H105.54V248ZM107.5 265.36H111.66C111.58 267.707 111.407 269.907 111.14 271.96C110.9 273.987 110.46 275.84 109.82 277.52C109.207 279.2 108.313 280.72 107.14 282.08C105.967 283.44 104.42 284.6 102.5 285.56C102.26 285 101.873 284.373 101.34 283.68C100.833 283.013 100.34 282.467 99.86 282.04C101.54 281.267 102.873 280.333 103.86 279.24C104.847 278.147 105.593 276.907 106.1 275.52C106.607 274.107 106.953 272.56 107.14 270.88C107.327 269.173 107.447 267.333 107.5 265.36ZM111.02 270.44C111.5 272.067 112.14 273.627 112.94 275.12C113.767 276.613 114.74 277.947 115.86 279.12C117.007 280.267 118.287 281.2 119.7 281.92C119.247 282.32 118.74 282.84 118.18 283.48C117.647 284.147 117.233 284.76 116.94 285.32C115.367 284.413 113.98 283.253 112.78 281.84C111.607 280.4 110.593 278.787 109.74 277C108.887 275.187 108.193 273.253 107.66 271.2L111.02 270.44ZM98.82 259.84H119.02V263.84H98.82V259.84ZM97.06 259.84H101.3V267.76C101.3 269.067 101.247 270.507 101.14 272.08C101.06 273.627 100.887 275.213 100.62 276.84C100.353 278.44 99.98 280 99.5 281.52C99.02 283.04 98.3933 284.413 97.62 285.64C97.3533 285.373 96.9933 285.08 96.54 284.76C96.1133 284.467 95.66 284.173 95.18 283.88C94.7 283.613 94.2867 283.413 93.94 283.28C94.9 281.76 95.5933 280.08 96.02 278.24C96.4733 276.4 96.7533 274.573 96.86 272.76C96.9933 270.92 97.06 269.24 97.06 267.72V259.84ZM100.14 269.24L103.1 267.44C103.527 268.053 103.967 268.72 104.42 269.44C104.9 270.133 105.34 270.813 105.74 271.48C106.167 272.12 106.5 272.693 106.74 273.2L103.62 275.28C103.407 274.747 103.1 274.133 102.7 273.44C102.3 272.747 101.873 272.04 101.42 271.32C100.967 270.573 100.54 269.88 100.14 269.24ZM97.54 249.24H101.82V254.16H113.58V249.24H118.06V258.04H97.54V249.24ZM82.42 249.8H96.14V254.12H82.42V249.8ZM86.86 262.24H95.26V280.68H86.86V276.52H91.7V266.44H86.86V262.24ZM87.06 252.04L91.42 253C90.94 255.533 90.3133 258.053 89.54 260.56C88.7933 263.067 87.9 265.413 86.86 267.6C85.8467 269.787 84.6333 271.707 83.22 273.36C83.1667 272.933 83.0467 272.36 82.86 271.64C82.6733 270.92 82.46 270.2 82.22 269.48C81.98 268.733 81.7533 268.133 81.54 267.68C82.9533 265.787 84.1 263.467 84.98 260.72C85.8867 257.973 86.58 255.08 87.06 252.04ZM84.86 262.24H88.78V283.68H84.86V262.24ZM144.1 248H148.38V264.96C148.38 266.96 148.287 268.933 148.1 270.88C147.94 272.8 147.593 274.653 147.06 276.44C146.527 278.2 145.74 279.853 144.7 281.4C143.66 282.947 142.26 284.347 140.5 285.6C140.26 285.28 139.927 284.92 139.5 284.52C139.1 284.12 138.687 283.72 138.26 283.32C137.833 282.947 137.433 282.64 137.06 282.4C138.633 281.333 139.887 280.147 140.82 278.84C141.753 277.533 142.447 276.133 142.9 274.64C143.38 273.147 143.7 271.587 143.86 269.96C144.02 268.333 144.1 266.667 144.1 264.96V248ZM151.18 248H155.7V285.56H151.18V248ZM138.18 254.56H145.94V258.88H138.18V254.56ZM153.54 254.56H162.02V258.88H153.54V254.56ZM153.86 263H161.54V267.2H153.86V263ZM153.5 271.6H162.66V275.96H153.5V271.6ZM138.5 263H146.1V267.2H138.5V263ZM136.06 273.32C137.18 273.027 138.5 272.653 140.02 272.2C141.54 271.72 143.1 271.227 144.7 270.72L145.42 274.48C144.14 274.987 142.847 275.507 141.54 276.04C140.26 276.547 139.033 277.027 137.86 277.48L136.06 273.32ZM124.74 268.12C126.34 267.773 128.247 267.307 130.46 266.72C132.7 266.133 134.953 265.52 137.22 264.88L137.82 269.2C135.767 269.813 133.687 270.427 131.58 271.04C129.5 271.653 127.567 272.213 125.78 272.72L124.74 268.12ZM125.38 255.6H137.62V260H125.38V255.6ZM129.58 248.04H133.98V280.52C133.98 281.613 133.86 282.48 133.62 283.12C133.407 283.787 132.993 284.307 132.38 284.68C131.793 285.053 131.047 285.307 130.14 285.44C129.26 285.573 128.153 285.627 126.82 285.6C126.767 285.013 126.62 284.28 126.38 283.4C126.14 282.547 125.873 281.8 125.58 281.16C126.327 281.187 127.007 281.213 127.62 281.24C128.26 281.24 128.7 281.227 128.94 281.2C129.18 281.2 129.34 281.16 129.42 281.08C129.527 280.973 129.58 280.787 129.58 280.52V248.04ZM174.74 248.92L179.02 247.88C179.393 248.707 179.753 249.627 180.1 250.64C180.473 251.627 180.753 252.48 180.94 253.2L176.5 254.44C176.367 253.693 176.127 252.8 175.78 251.76C175.433 250.693 175.087 249.747 174.74 248.92ZM168.66 254.12H186.38V258.56H168.66V254.12ZM175.38 262.48H182.1V266.84H175.38V262.48ZM180.54 262.48H185.06C185.06 262.48 185.06 262.6 185.06 262.84C185.06 263.08 185.06 263.36 185.06 263.68C185.06 263.973 185.047 264.213 185.02 264.4C184.993 267.6 184.94 270.333 184.86 272.6C184.807 274.84 184.727 276.693 184.62 278.16C184.513 279.627 184.38 280.787 184.22 281.64C184.06 282.467 183.847 283.067 183.58 283.44C183.18 284 182.78 284.4 182.38 284.64C181.98 284.907 181.487 285.093 180.9 285.2C180.393 285.28 179.753 285.333 178.98 285.36C178.233 285.387 177.433 285.387 176.58 285.36C176.527 284.693 176.393 283.947 176.18 283.12C175.967 282.293 175.687 281.587 175.34 281C175.98 281.027 176.567 281.053 177.1 281.08C177.66 281.107 178.087 281.12 178.38 281.12C178.647 281.12 178.86 281.08 179.02 281C179.207 280.92 179.38 280.76 179.54 280.52C179.7 280.28 179.833 279.827 179.94 279.16C180.047 278.467 180.14 277.467 180.22 276.16C180.3 274.827 180.367 273.12 180.42 271.04C180.473 268.96 180.513 266.413 180.54 263.4V262.48ZM190.34 255.28H205.98V259.72H190.34V255.28ZM190.74 247.96L195.66 248.76C195.207 251.48 194.62 254.133 193.9 256.72C193.18 259.307 192.313 261.707 191.3 263.92C190.287 266.107 189.127 268.013 187.82 269.64C187.58 269.32 187.247 268.92 186.82 268.44C186.393 267.96 185.94 267.48 185.46 267C185.007 266.493 184.593 266.093 184.22 265.8C185.367 264.44 186.367 262.827 187.22 260.96C188.073 259.067 188.793 257.027 189.38 254.84C189.967 252.627 190.42 250.333 190.74 247.96ZM198.46 257.96L203.18 258.44C202.54 262.947 201.593 266.933 200.34 270.4C199.113 273.84 197.42 276.827 195.26 279.36C193.127 281.867 190.42 283.973 187.14 285.68C187.007 285.333 186.767 284.893 186.42 284.36C186.1 283.827 185.767 283.293 185.42 282.76C185.073 282.227 184.753 281.8 184.46 281.48C187.447 280.12 189.887 278.36 191.78 276.2C193.673 274.013 195.14 271.413 196.18 268.4C197.247 265.36 198.007 261.88 198.46 257.96ZM192.7 258.88C193.313 262.293 194.167 265.467 195.26 268.4C196.38 271.333 197.847 273.907 199.66 276.12C201.5 278.307 203.753 280.013 206.42 281.24C206.073 281.533 205.687 281.92 205.26 282.4C204.833 282.907 204.433 283.413 204.06 283.92C203.687 284.453 203.38 284.933 203.14 285.36C200.26 283.84 197.86 281.84 195.94 279.36C194.047 276.853 192.513 273.933 191.34 270.6C190.193 267.267 189.247 263.587 188.5 259.56L192.7 258.88ZM172.58 256.48H177.14V266.4C177.14 268.56 176.993 270.747 176.7 272.96C176.433 275.173 175.873 277.333 175.02 279.44C174.193 281.52 172.927 283.507 171.22 285.4C170.82 284.893 170.273 284.333 169.58 283.72C168.887 283.133 168.26 282.64 167.7 282.24C169.14 280.587 170.207 278.867 170.9 277.08C171.593 275.267 172.047 273.453 172.26 271.64C172.473 269.8 172.58 268.027 172.58 266.32V256.48ZM221.82 255.36V256.72H238.46V255.36H221.82ZM221.82 251.68V253.04H238.46V251.68H221.82ZM217.22 249.24H243.3V259.16H217.22V249.24ZM220.98 271.32V272.72H239.58V271.32H220.98ZM220.98 267.52V268.92H239.58V267.52H220.98ZM216.5 265H244.3V275.28H216.5V265ZM227.94 265.84H232.58V283H227.94V265.84ZM212.14 260.36H248.58V263.8H212.14V260.36ZM215.66 276.6H245.06V279.64H215.66V276.6ZM212.06 281.12H248.66V284.6H212.06V281.12Z" fill="#00A0E9"/>
</svg>
