<svg width="60" height="60" viewBox="0 0 60 60" fill="none" xmlns="http://www.w3.org/2000/svg">
<rect x="1.5" y="1.5" width="57" height="57" rx="28.5" fill="white"/>
<rect x="1.5" y="1.5" width="57" height="57" rx="28.5" stroke="#F39800" stroke-width="3"/>
<path d="M26.3884 29.9496L34.4523 21.8857C34.8766 21.4589 35.1147 20.8816 35.1147 20.2798C35.1147 19.678 34.8766 19.1006 34.4523 18.6738C34.2405 18.4603 33.9886 18.2908 33.711 18.1752C33.4334 18.0595 33.1357 18 32.835 18C32.5342 18 32.2365 18.0595 31.9589 18.1752C31.6813 18.2908 31.4294 18.4603 31.2176 18.6738L21.5591 28.3323C21.3456 28.5441 21.1762 28.796 21.0605 29.0736C20.9449 29.3512 20.8853 29.6489 20.8853 29.9496C20.8853 30.2504 20.9449 30.5481 21.0605 30.8257C21.1762 31.1033 21.3456 31.3552 21.5591 31.567L31.2176 41.3394C31.4305 41.5505 31.6829 41.7175 31.9604 41.8309C32.238 41.9442 32.5352 42.0017 32.835 42C33.1347 42.0017 33.4319 41.9442 33.7095 41.8309C33.987 41.7175 34.2394 41.5505 34.4523 41.3394C34.8766 40.9126 35.1147 40.3352 35.1147 39.7334C35.1147 39.1316 34.8766 38.5543 34.4523 38.1275L26.3884 29.9496Z" fill="#F39800"/>
</svg>
