<svg width="331" height="400" viewBox="0 0 331 400" fill="none" xmlns="http://www.w3.org/2000/svg">
<rect width="330" height="400" transform="translate(0.5)" fill="#576275"/>
<path d="M309.5 17H21.5V383H309.5V17Z" fill="#F8FBF9"/>
<path d="M179.803 48.5492C179.803 41.4743 173.397 35.739 165.495 35.739C157.593 35.739 151.187 41.4743 151.187 48.5492C151.187 55.6241 157.593 61.3594 165.495 61.3594C173.397 61.3594 179.803 55.6241 179.803 48.5492Z" fill="#262324"/>
<path d="M113.882 228V223.2H120.282V204.52H114.882V200.84C116.376 200.573 117.656 200.253 118.722 199.88C119.816 199.48 120.829 198.973 121.762 198.36H126.122V223.2H131.682V228H113.882ZM143.916 228.56C142.849 228.56 141.969 228.187 141.276 227.44C140.583 226.693 140.236 225.787 140.236 224.72C140.236 223.6 140.583 222.68 141.276 221.96C141.969 221.24 142.849 220.88 143.916 220.88C144.956 220.88 145.823 221.24 146.516 221.96C147.209 222.68 147.556 223.6 147.556 224.72C147.556 225.787 147.209 226.693 146.516 227.44C145.823 228.187 144.956 228.56 143.916 228.56ZM166.244 228.56C164.857 228.56 163.511 228.267 162.204 227.68C160.924 227.093 159.791 226.2 158.804 225C157.817 223.773 157.031 222.227 156.444 220.36C155.884 218.467 155.604 216.213 155.604 213.6C155.604 210.853 155.911 208.48 156.524 206.48C157.164 204.48 158.017 202.853 159.084 201.6C160.151 200.32 161.364 199.373 162.724 198.76C164.111 198.147 165.564 197.84 167.084 197.84C168.897 197.84 170.457 198.173 171.764 198.84C173.097 199.48 174.204 200.267 175.084 201.2L171.964 204.72C171.457 204.133 170.791 203.627 169.964 203.2C169.137 202.773 168.297 202.56 167.444 202.56C166.244 202.56 165.151 202.907 164.164 203.6C163.204 204.293 162.431 205.44 161.844 207.04C161.257 208.64 160.964 210.827 160.964 213.6C160.964 216.16 161.191 218.213 161.644 219.76C162.124 221.28 162.751 222.387 163.524 223.08C164.297 223.773 165.164 224.12 166.124 224.12C166.871 224.12 167.537 223.92 168.124 223.52C168.737 223.093 169.231 222.48 169.604 221.68C169.977 220.853 170.164 219.84 170.164 218.64C170.164 217.467 169.977 216.507 169.604 215.76C169.257 215.013 168.764 214.453 168.124 214.08C167.511 213.707 166.777 213.52 165.924 213.52C165.124 213.52 164.284 213.773 163.404 214.28C162.524 214.76 161.711 215.613 160.964 216.84L160.684 212.88C161.217 212.133 161.844 211.493 162.564 210.96C163.311 210.427 164.071 210.027 164.844 209.76C165.644 209.493 166.364 209.36 167.004 209.36C168.657 209.36 170.124 209.693 171.404 210.36C172.711 211.027 173.724 212.04 174.444 213.4C175.164 214.76 175.524 216.507 175.524 218.64C175.524 220.667 175.097 222.427 174.244 223.92C173.417 225.387 172.297 226.533 170.884 227.36C169.471 228.16 167.924 228.56 166.244 228.56ZM187.878 209.52C186.704 209.52 185.638 209.253 184.678 208.72C183.718 208.16 182.944 207.4 182.358 206.44C181.798 205.48 181.518 204.387 181.518 203.16C181.518 201.907 181.798 200.813 182.358 199.88C182.944 198.92 183.718 198.173 184.678 197.64C185.638 197.08 186.704 196.8 187.878 196.8C189.051 196.8 190.118 197.08 191.078 197.64C192.038 198.173 192.798 198.92 193.358 199.88C193.918 200.813 194.198 201.907 194.198 203.16C194.198 204.387 193.918 205.48 193.358 206.44C192.798 207.4 192.038 208.16 191.078 208.72C190.118 209.253 189.051 209.52 187.878 209.52ZM187.878 206.6C188.811 206.6 189.571 206.28 190.158 205.64C190.744 205 191.038 204.173 191.038 203.16C191.038 202.147 190.744 201.32 190.158 200.68C189.571 200.04 188.811 199.72 187.878 199.72C186.918 199.72 186.144 200.04 185.558 200.68C184.998 201.32 184.718 202.147 184.718 203.16C184.718 204.173 184.998 205 185.558 205.64C186.144 206.28 186.918 206.6 187.878 206.6ZM210.198 228.56C207.638 228.56 205.318 227.973 203.238 226.8C201.158 225.627 199.504 223.907 198.278 221.64C197.078 219.373 196.478 216.6 196.478 213.32C196.478 210.84 196.838 208.64 197.558 206.72C198.278 204.8 199.278 203.173 200.558 201.84C201.838 200.507 203.318 199.493 204.998 198.8C206.678 198.107 208.478 197.76 210.398 197.76C212.211 197.76 213.851 198.147 215.318 198.92C216.811 199.693 218.038 200.573 218.998 201.56L215.718 205.24C214.971 204.52 214.171 203.96 213.318 203.56C212.491 203.133 211.531 202.92 210.438 202.92C208.918 202.92 207.571 203.333 206.398 204.16C205.224 204.96 204.291 206.12 203.598 207.64C202.904 209.16 202.558 210.973 202.558 213.08C202.558 215.213 202.864 217.053 203.478 218.6C204.118 220.147 205.024 221.333 206.198 222.16C207.371 222.987 208.731 223.4 210.278 223.4C211.558 223.4 212.664 223.147 213.598 222.64C214.558 222.107 215.424 221.427 216.198 220.6L219.518 224.2C218.318 225.613 216.931 226.693 215.358 227.44C213.784 228.187 212.064 228.56 210.198 228.56Z" fill="#00A0E9"/>
</svg>
