<svg width="331" height="400" viewBox="0 0 331 400" fill="none" xmlns="http://www.w3.org/2000/svg">
<rect width="330" height="400" transform="translate(0.5)" fill="#576275"/>
<path d="M309.5 17H21.5V383H309.5V17Z" fill="#F8FBF9"/>
<path d="M179.803 48.5492C179.803 41.4743 173.397 35.739 165.495 35.739C157.593 35.739 151.187 41.4743 151.187 48.5492C151.187 55.6241 157.593 61.3594 165.495 61.3594C173.397 61.3594 179.803 55.6241 179.803 48.5492Z" fill="#262324"/>
<path d="M89.94 169.52L92.5 167.12C93.4067 167.6 94.3533 168.2 95.34 168.92C96.3533 169.64 97.1267 170.307 97.66 170.92L94.98 173.56C94.4733 172.947 93.74 172.253 92.78 171.48C91.82 170.707 90.8733 170.053 89.94 169.52ZM78.1 185.12H85.34V196.4H78.1V192.88H82.18V188.6H78.1V185.12ZM93.1 179.72L97.26 180.52C96.0333 185.853 94.2333 190.533 91.86 194.56C89.5133 198.56 86.54 201.813 82.94 204.32C82.7533 204.053 82.46 203.72 82.06 203.32C81.66 202.947 81.26 202.56 80.86 202.16C80.46 201.787 80.1 201.48 79.78 201.24C83.3267 199.08 86.18 196.173 88.34 192.52C90.5 188.84 92.0867 184.573 93.1 179.72ZM70.94 172.92H75.1V184.12C75.1 185.613 75.0467 187.253 74.94 189.04C74.86 190.8 74.6867 192.613 74.42 194.48C74.1533 196.32 73.7533 198.107 73.22 199.84C72.7133 201.573 72.0333 203.133 71.18 204.52C70.94 204.28 70.5933 204 70.14 203.68C69.6867 203.36 69.2333 203.053 68.78 202.76C68.3267 202.467 67.9267 202.253 67.58 202.12C68.62 200.387 69.3667 198.467 69.82 196.36C70.3 194.253 70.6067 192.147 70.74 190.04C70.8733 187.907 70.94 185.933 70.94 184.12V172.92ZM73.5 172.92H97.34V177.12H73.5V172.92ZM76.46 179.36H84.98V182.88H76.46V179.36ZM76.26 185.12H79.38V198.52H76.26V185.12ZM62.1 170.72L64.78 167.24C65.5533 167.56 66.3533 167.947 67.18 168.4C68.0333 168.827 68.8333 169.267 69.58 169.72C70.3533 170.173 70.98 170.627 71.46 171.08L68.58 174.92C68.1533 174.467 67.5667 174 66.82 173.52C66.1 173.013 65.3267 172.52 64.5 172.04C63.6733 171.533 62.8733 171.093 62.1 170.72ZM60.22 181.56L62.86 178.04C63.6333 178.307 64.4333 178.653 65.26 179.08C66.1133 179.48 66.9133 179.907 67.66 180.36C68.4067 180.813 69.02 181.253 69.5 181.68L66.7 185.56C66.2467 185.133 65.66 184.68 64.94 184.2C64.22 183.693 63.4333 183.213 62.58 182.76C61.7533 182.307 60.9667 181.907 60.22 181.56ZM60.42 201.36C60.9533 200.267 61.5267 199 62.14 197.56C62.7533 196.093 63.3667 194.547 63.98 192.92C64.5933 191.267 65.1667 189.64 65.7 188.04L69.54 190.48C69.0867 191.973 68.5933 193.493 68.06 195.04C67.5267 196.56 66.98 198.067 66.42 199.56C65.8867 201.027 65.34 202.427 64.78 203.76L60.42 201.36ZM85.34 167.48H89.74C89.7667 170.733 89.86 173.893 90.02 176.96C90.18 180.027 90.3933 182.88 90.66 185.52C90.9533 188.16 91.2733 190.467 91.62 192.44C91.9667 194.413 92.34 195.96 92.74 197.08C93.14 198.2 93.5667 198.773 94.02 198.8C94.3133 198.827 94.5533 198.347 94.74 197.36C94.9267 196.373 95.0733 194.947 95.18 193.08C95.42 193.4 95.7667 193.733 96.22 194.08C96.6733 194.4 97.1133 194.707 97.54 195C97.9933 195.267 98.34 195.453 98.58 195.56C98.26 198.013 97.8333 199.88 97.3 201.16C96.7933 202.44 96.2467 203.307 95.66 203.76C95.0733 204.24 94.5 204.48 93.94 204.48C92.7133 204.453 91.6333 203.853 90.7 202.68C89.7933 201.507 89.02 199.827 88.38 197.64C87.74 195.453 87.2067 192.84 86.78 189.8C86.38 186.76 86.06 183.36 85.82 179.6C85.6067 175.84 85.4467 171.8 85.34 167.48ZM110.94 172.92L115.5 174.12C114.86 175.8 114.127 177.52 113.3 179.28C112.473 181.013 111.62 182.653 110.74 184.2C109.86 185.747 109.007 187.107 108.18 188.28C107.887 188.04 107.473 187.773 106.94 187.48C106.433 187.187 105.913 186.907 105.38 186.64C104.847 186.347 104.38 186.12 103.98 185.96C104.86 184.867 105.727 183.613 106.58 182.2C107.46 180.76 108.273 179.24 109.02 177.64C109.767 176.04 110.407 174.467 110.94 172.92ZM129.46 174.76L133.38 172.72C134.287 174.107 135.207 175.587 136.14 177.16C137.1 178.707 137.993 180.227 138.82 181.72C139.647 183.187 140.327 184.507 140.86 185.68L136.74 188.08C136.26 186.907 135.607 185.547 134.78 184C133.98 182.453 133.113 180.867 132.18 179.24C131.273 177.613 130.367 176.12 129.46 174.76ZM131.78 187.72L136.18 189.68C134.287 192.853 131.847 195.44 128.86 197.44C125.9 199.413 122.46 200.947 118.54 202.04C114.62 203.16 110.26 203.987 105.46 204.52C105.273 203.827 104.967 203.04 104.54 202.16C104.113 201.28 103.673 200.533 103.22 199.92C107.727 199.547 111.82 198.933 115.5 198.08C119.18 197.2 122.393 195.947 125.14 194.32C127.913 192.667 130.127 190.467 131.78 187.72ZM119.42 167.08H124.18V192.08H119.42V167.08ZM165.7 167H169.98V183.96C169.98 185.96 169.887 187.933 169.7 189.88C169.54 191.8 169.193 193.653 168.66 195.44C168.127 197.2 167.34 198.853 166.3 200.4C165.26 201.947 163.86 203.347 162.1 204.6C161.86 204.28 161.527 203.92 161.1 203.52C160.7 203.12 160.287 202.72 159.86 202.32C159.433 201.947 159.033 201.64 158.66 201.4C160.233 200.333 161.487 199.147 162.42 197.84C163.353 196.533 164.047 195.133 164.5 193.64C164.98 192.147 165.3 190.587 165.46 188.96C165.62 187.333 165.7 185.667 165.7 183.96V167ZM172.78 167H177.3V204.56H172.78V167ZM159.78 173.56H167.54V177.88H159.78V173.56ZM175.14 173.56H183.62V177.88H175.14V173.56ZM175.46 182H183.14V186.2H175.46V182ZM175.1 190.6H184.26V194.96H175.1V190.6ZM160.1 182H167.7V186.2H160.1V182ZM157.66 192.32C158.78 192.027 160.1 191.653 161.62 191.2C163.14 190.72 164.7 190.227 166.3 189.72L167.02 193.48C165.74 193.987 164.447 194.507 163.14 195.04C161.86 195.547 160.633 196.027 159.46 196.48L157.66 192.32ZM146.34 187.12C147.94 186.773 149.847 186.307 152.06 185.72C154.3 185.133 156.553 184.52 158.82 183.88L159.42 188.2C157.367 188.813 155.287 189.427 153.18 190.04C151.1 190.653 149.167 191.213 147.38 191.72L146.34 187.12ZM146.98 174.6H159.22V179H146.98V174.6ZM151.18 167.04H155.58V199.52C155.58 200.613 155.46 201.48 155.22 202.12C155.007 202.787 154.593 203.307 153.98 203.68C153.393 204.053 152.647 204.307 151.74 204.44C150.86 204.573 149.753 204.627 148.42 204.6C148.367 204.013 148.22 203.28 147.98 202.4C147.74 201.547 147.473 200.8 147.18 200.16C147.927 200.187 148.607 200.213 149.22 200.24C149.86 200.24 150.3 200.227 150.54 200.2C150.78 200.2 150.94 200.16 151.02 200.08C151.127 199.973 151.18 199.787 151.18 199.52V167.04ZM196.34 167.92L200.62 166.88C200.993 167.707 201.353 168.627 201.7 169.64C202.073 170.627 202.353 171.48 202.54 172.2L198.1 173.44C197.967 172.693 197.727 171.8 197.38 170.76C197.033 169.693 196.687 168.747 196.34 167.92ZM190.26 173.12H207.98V177.56H190.26V173.12ZM196.98 181.48H203.7V185.84H196.98V181.48ZM202.14 181.48H206.66C206.66 181.48 206.66 181.6 206.66 181.84C206.66 182.08 206.66 182.36 206.66 182.68C206.66 182.973 206.647 183.213 206.62 183.4C206.593 186.6 206.54 189.333 206.46 191.6C206.407 193.84 206.327 195.693 206.22 197.16C206.113 198.627 205.98 199.787 205.82 200.64C205.66 201.467 205.447 202.067 205.18 202.44C204.78 203 204.38 203.4 203.98 203.64C203.58 203.907 203.087 204.093 202.5 204.2C201.993 204.28 201.353 204.333 200.58 204.36C199.833 204.387 199.033 204.387 198.18 204.36C198.127 203.693 197.993 202.947 197.78 202.12C197.567 201.293 197.287 200.587 196.94 200C197.58 200.027 198.167 200.053 198.7 200.08C199.26 200.107 199.687 200.12 199.98 200.12C200.247 200.12 200.46 200.08 200.62 200C200.807 199.92 200.98 199.76 201.14 199.52C201.3 199.28 201.433 198.827 201.54 198.16C201.647 197.467 201.74 196.467 201.82 195.16C201.9 193.827 201.967 192.12 202.02 190.04C202.073 187.96 202.113 185.413 202.14 182.4V181.48ZM211.94 174.28H227.58V178.72H211.94V174.28ZM212.34 166.96L217.26 167.76C216.807 170.48 216.22 173.133 215.5 175.72C214.78 178.307 213.913 180.707 212.9 182.92C211.887 185.107 210.727 187.013 209.42 188.64C209.18 188.32 208.847 187.92 208.42 187.44C207.993 186.96 207.54 186.48 207.06 186C206.607 185.493 206.193 185.093 205.82 184.8C206.967 183.44 207.967 181.827 208.82 179.96C209.673 178.067 210.393 176.027 210.98 173.84C211.567 171.627 212.02 169.333 212.34 166.96ZM220.06 176.96L224.78 177.44C224.14 181.947 223.193 185.933 221.94 189.4C220.713 192.84 219.02 195.827 216.86 198.36C214.727 200.867 212.02 202.973 208.74 204.68C208.607 204.333 208.367 203.893 208.02 203.36C207.7 202.827 207.367 202.293 207.02 201.76C206.673 201.227 206.353 200.8 206.06 200.48C209.047 199.12 211.487 197.36 213.38 195.2C215.273 193.013 216.74 190.413 217.78 187.4C218.847 184.36 219.607 180.88 220.06 176.96ZM214.3 177.88C214.913 181.293 215.767 184.467 216.86 187.4C217.98 190.333 219.447 192.907 221.26 195.12C223.1 197.307 225.353 199.013 228.02 200.24C227.673 200.533 227.287 200.92 226.86 201.4C226.433 201.907 226.033 202.413 225.66 202.92C225.287 203.453 224.98 203.933 224.74 204.36C221.86 202.84 219.46 200.84 217.54 198.36C215.647 195.853 214.113 192.933 212.94 189.6C211.793 186.267 210.847 182.587 210.1 178.56L214.3 177.88ZM194.18 175.48H198.74V185.4C198.74 187.56 198.593 189.747 198.3 191.96C198.033 194.173 197.473 196.333 196.62 198.44C195.793 200.52 194.527 202.507 192.82 204.4C192.42 203.893 191.873 203.333 191.18 202.72C190.487 202.133 189.86 201.64 189.3 201.24C190.74 199.587 191.807 197.867 192.5 196.08C193.193 194.267 193.647 192.453 193.86 190.64C194.073 188.8 194.18 187.027 194.18 185.32V175.48ZM237.62 173.52H249.9V200.44H237.62V196.24H245.58V177.68H237.62V173.52ZM234.82 173.52H239.18V203.4H234.82V173.52ZM237.46 184.2H247.66V188.36H237.46V184.2ZM240.54 167L245.74 167.76C245.313 169.12 244.847 170.467 244.34 171.8C243.86 173.133 243.42 174.267 243.02 175.2L239.18 174.32C239.367 173.627 239.54 172.853 239.7 172C239.887 171.147 240.06 170.28 240.22 169.4C240.38 168.52 240.487 167.72 240.54 167ZM255.18 173.2H266.9V177.6H255.18V173.2ZM265.22 173.2H269.66C269.66 173.2 269.66 173.347 269.66 173.64C269.66 173.907 269.66 174.213 269.66 174.56C269.66 174.907 269.647 175.173 269.62 175.36C269.513 179.867 269.38 183.693 269.22 186.84C269.087 189.96 268.913 192.547 268.7 194.6C268.513 196.627 268.287 198.213 268.02 199.36C267.753 200.507 267.407 201.347 266.98 201.88C266.447 202.653 265.873 203.187 265.26 203.48C264.647 203.773 263.94 203.987 263.14 204.12C262.367 204.227 261.407 204.267 260.26 204.24C259.14 204.24 257.993 204.227 256.82 204.2C256.793 203.533 256.633 202.747 256.34 201.84C256.047 200.96 255.687 200.187 255.26 199.52C256.54 199.627 257.727 199.693 258.82 199.72C259.94 199.747 260.753 199.76 261.26 199.76C261.66 199.76 261.98 199.72 262.22 199.64C262.487 199.533 262.74 199.347 262.98 199.08C263.327 198.733 263.607 198.027 263.82 196.96C264.06 195.867 264.26 194.333 264.42 192.36C264.58 190.387 264.727 187.893 264.86 184.88C264.993 181.867 265.113 178.28 265.22 174.12V173.2ZM255.3 167.04L259.94 168.12C259.433 170.067 258.807 172.013 258.06 173.96C257.34 175.907 256.54 177.747 255.66 179.48C254.807 181.187 253.927 182.68 253.02 183.96C252.753 183.693 252.367 183.387 251.86 183.04C251.38 182.667 250.887 182.307 250.38 181.96C249.9 181.613 249.473 181.347 249.1 181.16C249.98 180.013 250.807 178.693 251.58 177.2C252.38 175.68 253.087 174.053 253.7 172.32C254.34 170.56 254.873 168.8 255.3 167.04ZM253.34 184.76L257.1 182.64C257.767 183.547 258.473 184.547 259.22 185.64C259.967 186.733 260.673 187.8 261.34 188.84C262.007 189.88 262.553 190.8 262.98 191.6L258.9 194.08C258.527 193.253 258.02 192.307 257.38 191.24C256.767 190.173 256.1 189.08 255.38 187.96C254.687 186.813 254.007 185.747 253.34 184.76ZM64.62 226.52H93.66V231.8H64.62V226.52ZM61.26 249.76H96.98V255.24H61.26V249.76ZM112.18 224.28H139.7V227.8H112.18V224.28ZM112.7 229.28H136.22V232.6H112.7V229.28ZM108.3 234.08H131.46V237.72H108.3V234.08ZM111.7 220.92L116.26 222.28C115.487 224.013 114.553 225.693 113.46 227.32C112.367 228.947 111.193 230.467 109.94 231.88C108.687 233.267 107.38 234.467 106.02 235.48C105.833 235.16 105.54 234.76 105.14 234.28C104.74 233.8 104.327 233.32 103.9 232.84C103.5 232.333 103.14 231.933 102.82 231.64C104.66 230.413 106.367 228.853 107.94 226.96C109.513 225.067 110.767 223.053 111.7 220.92ZM129.78 234.08H134.62C134.62 236.907 134.633 239.52 134.66 241.92C134.713 244.293 134.833 246.373 135.02 248.16C135.207 249.92 135.473 251.307 135.82 252.32C136.193 253.307 136.673 253.8 137.26 253.8C137.553 253.8 137.767 253.28 137.9 252.24C138.033 251.2 138.113 249.813 138.14 248.08C138.567 248.64 139.06 249.2 139.62 249.76C140.18 250.293 140.713 250.747 141.22 251.12C141.113 252.88 140.913 254.307 140.62 255.4C140.327 256.493 139.887 257.293 139.3 257.8C138.74 258.333 137.94 258.6 136.9 258.6C135.593 258.6 134.5 258.187 133.62 257.36C132.767 256.56 132.087 255.44 131.58 254C131.073 252.533 130.687 250.787 130.42 248.76C130.153 246.707 129.98 244.44 129.9 241.96C129.82 239.48 129.78 236.853 129.78 234.08ZM115.02 242.52H119.7V258.6H115.02V242.52ZM105.5 240.92H128.82V244.24H105.5V240.92ZM106.98 245.76H127.5V248.96H106.98V245.76ZM104.54 250.6H129.54V254.12H104.54V250.6ZM109.3 238.4L113.34 237.36C113.713 237.893 114.06 238.493 114.38 239.16C114.727 239.827 114.967 240.427 115.1 240.96L110.82 242.12C110.713 241.613 110.513 241.013 110.22 240.32C109.953 239.627 109.647 238.987 109.3 238.4ZM121.3 237.24L125.9 238.4C125.393 239.173 124.887 239.92 124.38 240.64C123.9 241.36 123.46 241.973 123.06 242.48L119.18 241.4C119.42 241 119.673 240.56 119.94 240.08C120.207 239.573 120.46 239.08 120.7 238.6C120.967 238.093 121.167 237.64 121.3 237.24ZM164.34 221.76H168.94V250.64C168.94 251.413 168.993 252 169.1 252.4C169.207 252.8 169.42 253.067 169.74 253.2C170.087 253.333 170.567 253.4 171.18 253.4C171.42 253.4 171.793 253.4 172.3 253.4C172.833 253.4 173.42 253.4 174.06 253.4C174.7 253.4 175.287 253.4 175.82 253.4C176.38 253.4 176.78 253.4 177.02 253.4C177.713 253.4 178.233 253.173 178.58 252.72C178.953 252.267 179.22 251.44 179.38 250.24C179.54 249.04 179.673 247.32 179.78 245.08C180.34 245.507 181.033 245.92 181.86 246.32C182.687 246.693 183.407 246.947 184.02 247.08C183.86 249.667 183.567 251.733 183.14 253.28C182.74 254.827 182.087 255.933 181.18 256.6C180.3 257.293 179.047 257.64 177.42 257.64C177.18 257.64 176.833 257.64 176.38 257.64C175.953 257.64 175.447 257.64 174.86 257.64C174.3 257.64 173.74 257.64 173.18 257.64C172.62 257.64 172.113 257.64 171.66 257.64C171.207 257.64 170.887 257.64 170.7 257.64C169.047 257.64 167.753 257.427 166.82 257C165.887 256.6 165.233 255.88 164.86 254.84C164.513 253.8 164.34 252.373 164.34 250.56V221.76ZM156.74 221.16L161.18 222.68C160.247 224.947 159.127 227.213 157.82 229.48C156.513 231.747 155.1 233.893 153.58 235.92C152.06 237.92 150.5 239.667 148.9 241.16C148.74 240.76 148.513 240.253 148.22 239.64C147.927 239 147.607 238.36 147.26 237.72C146.913 237.08 146.607 236.56 146.34 236.16C147.727 234.96 149.06 233.573 150.34 232C151.62 230.4 152.807 228.68 153.9 226.84C155.02 224.973 155.967 223.08 156.74 221.16ZM152.74 232.04L157.3 227.48V227.52V258.56H152.74V232.04ZM167.14 232H182.98V236.6H167.14V232ZM223.82 240.16L227.34 242.72C226.407 243.653 225.513 244.6 224.66 245.56C223.833 246.493 223.073 247.293 222.38 247.96L219.82 245.96C220.273 245.453 220.74 244.867 221.22 244.2C221.7 243.507 222.167 242.813 222.62 242.12C223.1 241.4 223.5 240.747 223.82 240.16ZM213.54 221H217.78V229.84H213.54V221ZM215.5 238.36H219.66C219.58 240.707 219.407 242.907 219.14 244.96C218.9 246.987 218.46 248.84 217.82 250.52C217.207 252.2 216.313 253.72 215.14 255.08C213.967 256.44 212.42 257.6 210.5 258.56C210.26 258 209.873 257.373 209.34 256.68C208.833 256.013 208.34 255.467 207.86 255.04C209.54 254.267 210.873 253.333 211.86 252.24C212.847 251.147 213.593 249.907 214.1 248.52C214.607 247.107 214.953 245.56 215.14 243.88C215.327 242.173 215.447 240.333 215.5 238.36ZM219.02 243.44C219.5 245.067 220.14 246.627 220.94 248.12C221.767 249.613 222.74 250.947 223.86 252.12C225.007 253.267 226.287 254.2 227.7 254.92C227.247 255.32 226.74 255.84 226.18 256.48C225.647 257.147 225.233 257.76 224.94 258.32C223.367 257.413 221.98 256.253 220.78 254.84C219.607 253.4 218.593 251.787 217.74 250C216.887 248.187 216.193 246.253 215.66 244.2L219.02 243.44ZM206.82 232.84H227.02V236.84H206.82V232.84ZM205.06 232.84H209.3V240.76C209.3 242.067 209.247 243.507 209.14 245.08C209.06 246.627 208.887 248.213 208.62 249.84C208.353 251.44 207.98 253 207.5 254.52C207.02 256.04 206.393 257.413 205.62 258.64C205.353 258.373 204.993 258.08 204.54 257.76C204.113 257.467 203.66 257.173 203.18 256.88C202.7 256.613 202.287 256.413 201.94 256.28C202.9 254.76 203.593 253.08 204.02 251.24C204.473 249.4 204.753 247.573 204.86 245.76C204.993 243.92 205.06 242.24 205.06 240.72V232.84ZM208.14 242.24L211.1 240.44C211.527 241.053 211.967 241.72 212.42 242.44C212.9 243.133 213.34 243.813 213.74 244.48C214.167 245.12 214.5 245.693 214.74 246.2L211.62 248.28C211.407 247.747 211.1 247.133 210.7 246.44C210.3 245.747 209.873 245.04 209.42 244.32C208.967 243.573 208.54 242.88 208.14 242.24ZM205.54 222.24H209.82V227.16H221.58V222.24H226.06V231.04H205.54V222.24ZM190.42 222.8H204.14V227.12H190.42V222.8ZM194.86 235.24H203.26V253.68H194.86V249.52H199.7V239.44H194.86V235.24ZM195.06 225.04L199.42 226C198.94 228.533 198.313 231.053 197.54 233.56C196.793 236.067 195.9 238.413 194.86 240.6C193.847 242.787 192.633 244.707 191.22 246.36C191.167 245.933 191.047 245.36 190.86 244.64C190.673 243.92 190.46 243.2 190.22 242.48C189.98 241.733 189.753 241.133 189.54 240.68C190.953 238.787 192.1 236.467 192.98 233.72C193.887 230.973 194.58 228.08 195.06 225.04ZM192.86 235.24H196.78V256.68H192.86V235.24ZM243.42 228.36V229.72H260.06V228.36H243.42ZM243.42 224.68V226.04H260.06V224.68H243.42ZM238.82 222.24H264.9V232.16H238.82V222.24ZM242.58 244.32V245.72H261.18V244.32H242.58ZM242.58 240.52V241.92H261.18V240.52H242.58ZM238.1 238H265.9V248.28H238.1V238ZM249.54 238.84H254.18V256H249.54V238.84ZM233.74 233.36H270.18V236.8H233.74V233.36ZM237.26 249.6H266.66V252.64H237.26V249.6ZM233.66 254.12H270.26V257.6H233.66V254.12Z" fill="#00A0E9"/>
</svg>
