<svg width="331" height="400" viewBox="0 0 331 400" fill="none" xmlns="http://www.w3.org/2000/svg">
<rect width="330" height="400" transform="translate(0.5)" fill="#576275"/>
<path d="M309.5 17H21.5V383H309.5V17Z" fill="#F8FBF9"/>
<path d="M179.803 48.5492C179.803 41.4743 173.397 35.739 165.495 35.739C157.593 35.739 151.187 41.4743 151.187 48.5492C151.187 55.6241 157.593 61.3594 165.495 61.3594C173.397 61.3594 179.803 55.6241 179.803 48.5492Z" fill="#262324"/>
<path d="M94.42 187.16H117.1V201.4H112.58V191.16H110.3V201.4H106.74V191.16H104.5V201.4H100.94V191.16H98.7V201.4H94.42V187.16ZM91.14 199.28H119.58V203.44H91.14V199.28ZM83.9 170.76L86.58 167.16C87.3533 167.453 88.18 167.827 89.06 168.28C89.9667 168.707 90.8067 169.16 91.58 169.64C92.38 170.12 93.0333 170.587 93.54 171.04L90.74 175C90.26 174.52 89.6333 174.027 88.86 173.52C88.1133 173.013 87.3 172.507 86.42 172C85.54 171.493 84.7 171.08 83.9 170.76ZM81.82 181.56L84.42 177.92C85.22 178.213 86.06 178.56 86.94 178.96C87.82 179.36 88.6467 179.8 89.42 180.28C90.22 180.733 90.8733 181.173 91.38 181.6L88.62 185.6C88.1667 185.147 87.5533 184.68 86.78 184.2C86.0067 183.693 85.18 183.213 84.3 182.76C83.4467 182.307 82.62 181.907 81.82 181.56ZM82.5 201.28C83.1133 200.24 83.7933 199.027 84.54 197.64C85.2867 196.227 86.0467 194.733 86.82 193.16C87.5933 191.56 88.3133 189.973 88.98 188.4L92.74 191.28C92.1533 192.72 91.5267 194.187 90.86 195.68C90.22 197.147 89.5533 198.6 88.86 200.04C88.1933 201.453 87.5133 202.813 86.82 204.12L82.5 201.28ZM100.14 172.32V181.52H111.02V172.32H100.14ZM95.82 168.72H115.58V185.08H95.82V168.72ZM104.3 172.56L107.46 172.92C107.14 174.573 106.527 176.147 105.62 177.64C104.713 179.133 103.513 180.307 102.02 181.16C101.807 180.84 101.5 180.467 101.1 180.04C100.727 179.587 100.38 179.24 100.06 179C101.313 178.333 102.287 177.413 102.98 176.24C103.673 175.067 104.113 173.84 104.3 172.56ZM103.9 176.6L106.06 174.88C106.593 175.307 107.153 175.773 107.74 176.28C108.327 176.787 108.887 177.28 109.42 177.76C109.98 178.24 110.433 178.68 110.78 179.08L108.58 181.08C108.233 180.68 107.793 180.227 107.26 179.72C106.753 179.187 106.193 178.653 105.58 178.12C104.993 177.56 104.433 177.053 103.9 176.6ZM141.38 188.68H146.3V201.16H141.38V188.68ZM130.78 177.04H157.18V181.12H130.78V177.04ZM126.22 199.28H161.82V203.48H126.22V199.28ZM129.74 191.72H158.62V195.84H129.74V191.72ZM147.74 182.44L151.26 180.2C152.167 180.867 153.113 181.64 154.1 182.52C155.113 183.373 156.073 184.227 156.98 185.08C157.887 185.933 158.62 186.72 159.18 187.44L155.42 190C154.913 189.28 154.233 188.48 153.38 187.6C152.527 186.72 151.607 185.827 150.62 184.92C149.633 184.013 148.673 183.187 147.74 182.44ZM126.3 170.2H161.46V177.92H156.58V174.56H131.02V177.92H126.3V170.2ZM131.54 189.68C131.46 189.387 131.34 189 131.18 188.52C131.02 188.013 130.847 187.493 130.66 186.96C130.473 186.4 130.3 185.933 130.14 185.56C130.593 185.48 131.047 185.32 131.5 185.08C131.953 184.84 132.447 184.52 132.98 184.12C133.38 183.853 133.98 183.4 134.78 182.76C135.607 182.093 136.513 181.307 137.5 180.4C138.487 179.467 139.38 178.493 140.18 177.48L143.9 180.12C142.487 181.507 140.927 182.867 139.22 184.2C137.54 185.507 135.847 186.64 134.14 187.6V187.72C134.14 187.72 134.007 187.787 133.74 187.92C133.473 188.027 133.167 188.187 132.82 188.4C132.473 188.613 132.167 188.84 131.9 189.08C131.66 189.293 131.54 189.493 131.54 189.68ZM131.54 189.68L131.42 186.64L133.86 185.28L153.98 183.96C154.087 184.493 154.207 185.093 154.34 185.76C154.5 186.427 154.633 186.96 154.74 187.36C150.873 187.653 147.633 187.92 145.02 188.16C142.407 188.373 140.287 188.547 138.66 188.68C137.033 188.813 135.753 188.933 134.82 189.04C133.913 189.147 133.22 189.253 132.74 189.36C132.26 189.467 131.86 189.573 131.54 189.68ZM140.7 167.8L145.34 166.44C145.793 167.187 146.207 168 146.58 168.88C146.98 169.733 147.26 170.493 147.42 171.16L142.46 172.64C142.353 172 142.127 171.227 141.78 170.32C141.433 169.387 141.073 168.547 140.7 167.8ZM177.06 170.44H204.38V174.04H177.06V170.44ZM177.42 175.6H200.9V179.08H177.42V175.6ZM172.82 180.68H195.94V184.32H172.82V180.68ZM170.18 191.16H193.98V194.76H170.18V191.16ZM177.02 167.04L181.7 168.44C180.927 170.253 179.993 172.027 178.9 173.76C177.807 175.467 176.62 177.053 175.34 178.52C174.087 179.96 172.767 181.227 171.38 182.32C171.167 181.973 170.86 181.56 170.46 181.08C170.06 180.573 169.647 180.08 169.22 179.6C168.793 179.093 168.407 178.693 168.06 178.4C169.953 177.093 171.687 175.44 173.26 173.44C174.833 171.413 176.087 169.28 177.02 167.04ZM194.46 180.68H199.3C199.3 183.4 199.313 185.92 199.34 188.24C199.393 190.56 199.513 192.587 199.7 194.32C199.887 196.027 200.153 197.36 200.5 198.32C200.873 199.253 201.353 199.72 201.94 199.72C202.233 199.72 202.433 199.213 202.54 198.2C202.673 197.16 202.753 195.787 202.78 194.08C203.233 194.64 203.74 195.213 204.3 195.8C204.86 196.36 205.38 196.8 205.86 197.12C205.78 198.853 205.593 200.253 205.3 201.32C205.007 202.413 204.567 203.213 203.98 203.72C203.42 204.227 202.633 204.48 201.62 204.48C199.94 204.48 198.62 203.88 197.66 202.68C196.727 201.48 196.033 199.813 195.58 197.68C195.127 195.52 194.833 193 194.7 190.12C194.567 187.213 194.487 184.067 194.46 180.68ZM172.38 186.56L175.98 185.12C176.54 185.84 177.073 186.64 177.58 187.52C178.087 188.373 178.447 189.133 178.66 189.8L174.82 191.32C174.66 190.68 174.34 189.907 173.86 189C173.38 188.093 172.887 187.28 172.38 186.56ZM180.14 185.12H184.62V204.48H180.14V185.12ZM188.58 185.28L192.82 186.56C192.127 187.467 191.433 188.36 190.74 189.24C190.047 190.093 189.42 190.84 188.86 191.48L185.82 190.28C186.14 189.827 186.473 189.307 186.82 188.72C187.167 188.107 187.5 187.507 187.82 186.92C188.14 186.307 188.393 185.76 188.58 185.28ZM176.34 195.28L179.9 196.6C179.313 197.667 178.58 198.707 177.7 199.72C176.82 200.707 175.873 201.613 174.86 202.44C173.847 203.267 172.807 203.96 171.74 204.52C171.393 204.013 170.927 203.413 170.34 202.72C169.753 202.027 169.22 201.48 168.74 201.08C169.727 200.68 170.7 200.187 171.66 199.6C172.62 198.987 173.513 198.307 174.34 197.56C175.167 196.813 175.833 196.053 176.34 195.28ZM185.1 197.76L187.82 195.16C188.647 195.72 189.527 196.347 190.46 197.04C191.393 197.707 192.287 198.387 193.14 199.08C193.993 199.747 194.7 200.373 195.26 200.96L192.34 203.88C191.833 203.293 191.167 202.64 190.34 201.92C189.513 201.227 188.633 200.507 187.7 199.76C186.793 199.013 185.927 198.347 185.1 197.76ZM228.3 184.2H248.78V187.64H228.3V184.2ZM227.86 200.48H249.1V203.96H227.86V200.48ZM233.66 167.04H237.38V172.32H233.66V167.04ZM239.1 167.04H242.86V172.32H239.1V167.04ZM232.46 177.8V179.68H244.3V177.8H232.46ZM232.46 173.04V174.88H244.3V173.04H232.46ZM228.9 169.92H248.02V182.8H228.9V169.92ZM233.98 191.84V193.92H242.7V191.84H233.98ZM229.82 188.92H247.14V196.8H229.82V188.92ZM241.38 196.44L245.66 197.64C245.1 198.52 244.553 199.4 244.02 200.28C243.487 201.133 243.007 201.853 242.58 202.44L239.54 201.36C239.86 200.667 240.193 199.853 240.54 198.92C240.913 197.987 241.193 197.16 241.38 196.44ZM231.54 197.56L235.14 196.48C235.487 197.173 235.82 197.947 236.14 198.8C236.46 199.653 236.713 200.387 236.9 201L233.14 202.24C233.007 201.627 232.78 200.88 232.46 200C232.167 199.093 231.86 198.28 231.54 197.56ZM234.5 171.64H237.42V181.52H234.5V171.64ZM239.3 171.64H242.22V181.52H239.3V171.64ZM215.66 184.56H224.54V187.68H215.66V184.56ZM222.42 184.56H226.38V200.44C226.38 201.32 226.287 202.013 226.1 202.52C225.913 203.027 225.54 203.44 224.98 203.76C224.447 204.08 223.793 204.267 223.02 204.32C222.273 204.373 221.367 204.4 220.3 204.4C220.247 203.893 220.1 203.293 219.86 202.6C219.647 201.933 219.42 201.36 219.18 200.88C219.767 200.907 220.313 200.92 220.82 200.92C221.353 200.92 221.713 200.92 221.9 200.92C222.247 200.92 222.42 200.747 222.42 200.4V184.56ZM213.42 168.28H226.5V181.2H222.58V171.68H217.14V181.2H213.42V168.28ZM211.86 179.68H228.14V185.96H224.54V182.92H215.3V185.96H211.86V179.68ZM218.66 173.28H225.18V176H221.1V180.76H218.66V173.28ZM213.86 184.56H217.74V192.2C217.74 193.453 217.673 194.84 217.54 196.36C217.407 197.88 217.153 199.373 216.78 200.84C216.407 202.307 215.833 203.6 215.06 204.72C214.847 204.48 214.527 204.2 214.1 203.88C213.7 203.587 213.273 203.293 212.82 203C212.393 202.733 212.02 202.533 211.7 202.4C212.367 201.387 212.847 200.293 213.14 199.12C213.46 197.92 213.66 196.72 213.74 195.52C213.82 194.32 213.86 193.187 213.86 192.12V184.56ZM217.06 196.08C217.993 195.733 219.073 195.267 220.3 194.68C221.527 194.093 222.82 193.48 224.18 192.84L224.86 195.2C223.74 195.893 222.66 196.587 221.62 197.28C220.58 197.973 219.553 198.627 218.54 199.24L217.06 196.08ZM217.14 190.56L219.1 188.6C219.767 189.027 220.46 189.493 221.18 190C221.9 190.507 222.46 190.973 222.86 191.4L220.82 193.68C220.42 193.28 219.86 192.787 219.14 192.2C218.447 191.587 217.78 191.04 217.14 190.56ZM144.1 221H148.38V237.96C148.38 239.96 148.287 241.933 148.1 243.88C147.94 245.8 147.593 247.653 147.06 249.44C146.527 251.2 145.74 252.853 144.7 254.4C143.66 255.947 142.26 257.347 140.5 258.6C140.26 258.28 139.927 257.92 139.5 257.52C139.1 257.12 138.687 256.72 138.26 256.32C137.833 255.947 137.433 255.64 137.06 255.4C138.633 254.333 139.887 253.147 140.82 251.84C141.753 250.533 142.447 249.133 142.9 247.64C143.38 246.147 143.7 244.587 143.86 242.96C144.02 241.333 144.1 239.667 144.1 237.96V221ZM151.18 221H155.7V258.56H151.18V221ZM138.18 227.56H145.94V231.88H138.18V227.56ZM153.54 227.56H162.02V231.88H153.54V227.56ZM153.86 236H161.54V240.2H153.86V236ZM153.5 244.6H162.66V248.96H153.5V244.6ZM138.5 236H146.1V240.2H138.5V236ZM136.06 246.32C137.18 246.027 138.5 245.653 140.02 245.2C141.54 244.72 143.1 244.227 144.7 243.72L145.42 247.48C144.14 247.987 142.847 248.507 141.54 249.04C140.26 249.547 139.033 250.027 137.86 250.48L136.06 246.32ZM124.74 241.12C126.34 240.773 128.247 240.307 130.46 239.72C132.7 239.133 134.953 238.52 137.22 237.88L137.82 242.2C135.767 242.813 133.687 243.427 131.58 244.04C129.5 244.653 127.567 245.213 125.78 245.72L124.74 241.12ZM125.38 228.6H137.62V233H125.38V228.6ZM129.58 221.04H133.98V253.52C133.98 254.613 133.86 255.48 133.62 256.12C133.407 256.787 132.993 257.307 132.38 257.68C131.793 258.053 131.047 258.307 130.14 258.44C129.26 258.573 128.153 258.627 126.82 258.6C126.767 258.013 126.62 257.28 126.38 256.4C126.14 255.547 125.873 254.8 125.58 254.16C126.327 254.187 127.007 254.213 127.62 254.24C128.26 254.24 128.7 254.227 128.94 254.2C129.18 254.2 129.34 254.16 129.42 254.08C129.527 253.973 129.58 253.787 129.58 253.52V221.04ZM174.74 221.92L179.02 220.88C179.393 221.707 179.753 222.627 180.1 223.64C180.473 224.627 180.753 225.48 180.94 226.2L176.5 227.44C176.367 226.693 176.127 225.8 175.78 224.76C175.433 223.693 175.087 222.747 174.74 221.92ZM168.66 227.12H186.38V231.56H168.66V227.12ZM175.38 235.48H182.1V239.84H175.38V235.48ZM180.54 235.48H185.06C185.06 235.48 185.06 235.6 185.06 235.84C185.06 236.08 185.06 236.36 185.06 236.68C185.06 236.973 185.047 237.213 185.02 237.4C184.993 240.6 184.94 243.333 184.86 245.6C184.807 247.84 184.727 249.693 184.62 251.16C184.513 252.627 184.38 253.787 184.22 254.64C184.06 255.467 183.847 256.067 183.58 256.44C183.18 257 182.78 257.4 182.38 257.64C181.98 257.907 181.487 258.093 180.9 258.2C180.393 258.28 179.753 258.333 178.98 258.36C178.233 258.387 177.433 258.387 176.58 258.36C176.527 257.693 176.393 256.947 176.18 256.12C175.967 255.293 175.687 254.587 175.34 254C175.98 254.027 176.567 254.053 177.1 254.08C177.66 254.107 178.087 254.12 178.38 254.12C178.647 254.12 178.86 254.08 179.02 254C179.207 253.92 179.38 253.76 179.54 253.52C179.7 253.28 179.833 252.827 179.94 252.16C180.047 251.467 180.14 250.467 180.22 249.16C180.3 247.827 180.367 246.12 180.42 244.04C180.473 241.96 180.513 239.413 180.54 236.4V235.48ZM190.34 228.28H205.98V232.72H190.34V228.28ZM190.74 220.96L195.66 221.76C195.207 224.48 194.62 227.133 193.9 229.72C193.18 232.307 192.313 234.707 191.3 236.92C190.287 239.107 189.127 241.013 187.82 242.64C187.58 242.32 187.247 241.92 186.82 241.44C186.393 240.96 185.94 240.48 185.46 240C185.007 239.493 184.593 239.093 184.22 238.8C185.367 237.44 186.367 235.827 187.22 233.96C188.073 232.067 188.793 230.027 189.38 227.84C189.967 225.627 190.42 223.333 190.74 220.96ZM198.46 230.96L203.18 231.44C202.54 235.947 201.593 239.933 200.34 243.4C199.113 246.84 197.42 249.827 195.26 252.36C193.127 254.867 190.42 256.973 187.14 258.68C187.007 258.333 186.767 257.893 186.42 257.36C186.1 256.827 185.767 256.293 185.42 255.76C185.073 255.227 184.753 254.8 184.46 254.48C187.447 253.12 189.887 251.36 191.78 249.2C193.673 247.013 195.14 244.413 196.18 241.4C197.247 238.36 198.007 234.88 198.46 230.96ZM192.7 231.88C193.313 235.293 194.167 238.467 195.26 241.4C196.38 244.333 197.847 246.907 199.66 249.12C201.5 251.307 203.753 253.013 206.42 254.24C206.073 254.533 205.687 254.92 205.26 255.4C204.833 255.907 204.433 256.413 204.06 256.92C203.687 257.453 203.38 257.933 203.14 258.36C200.26 256.84 197.86 254.84 195.94 252.36C194.047 249.853 192.513 246.933 191.34 243.6C190.193 240.267 189.247 236.587 188.5 232.56L192.7 231.88ZM172.58 229.48H177.14V239.4C177.14 241.56 176.993 243.747 176.7 245.96C176.433 248.173 175.873 250.333 175.02 252.44C174.193 254.52 172.927 256.507 171.22 258.4C170.82 257.893 170.273 257.333 169.58 256.72C168.887 256.133 168.26 255.64 167.7 255.24C169.14 253.587 170.207 251.867 170.9 250.08C171.593 248.267 172.047 246.453 172.26 244.64C172.473 242.8 172.58 241.027 172.58 239.32V229.48Z" fill="#00A0E9"/>
</svg>
