<svg width="331" height="400" viewBox="0 0 331 400" fill="none" xmlns="http://www.w3.org/2000/svg">
<rect width="330" height="400" transform="translate(0.5)" fill="#576275"/>
<path d="M309.5 17H21.5V383H309.5V17Z" fill="#F8FBF9"/>
<path d="M179.803 48.5492C179.803 41.4743 173.397 35.739 165.495 35.739C157.593 35.739 151.187 41.4743 151.187 48.5492C151.187 55.6241 157.593 61.3594 165.495 61.3594C173.397 61.3594 179.803 55.6241 179.803 48.5492Z" fill="#262324"/>
<path d="M86.22 172.52H115.26V177.8H86.22V172.52ZM82.86 195.76H118.58V201.24H82.86V195.76ZM133.78 170.28H161.3V173.8H133.78V170.28ZM134.3 175.28H157.82V178.6H134.3V175.28ZM129.9 180.08H153.06V183.72H129.9V180.08ZM133.3 166.92L137.86 168.28C137.087 170.013 136.153 171.693 135.06 173.32C133.967 174.947 132.793 176.467 131.54 177.88C130.287 179.267 128.98 180.467 127.62 181.48C127.433 181.16 127.14 180.76 126.74 180.28C126.34 179.8 125.927 179.32 125.5 178.84C125.1 178.333 124.74 177.933 124.42 177.64C126.26 176.413 127.967 174.853 129.54 172.96C131.113 171.067 132.367 169.053 133.3 166.92ZM151.38 180.08H156.22C156.22 182.907 156.233 185.52 156.26 187.92C156.313 190.293 156.433 192.373 156.62 194.16C156.807 195.92 157.073 197.307 157.42 198.32C157.793 199.307 158.273 199.8 158.86 199.8C159.153 199.8 159.367 199.28 159.5 198.24C159.633 197.2 159.713 195.813 159.74 194.08C160.167 194.64 160.66 195.2 161.22 195.76C161.78 196.293 162.313 196.747 162.82 197.12C162.713 198.88 162.513 200.307 162.22 201.4C161.927 202.493 161.487 203.293 160.9 203.8C160.34 204.333 159.54 204.6 158.5 204.6C157.193 204.6 156.1 204.187 155.22 203.36C154.367 202.56 153.687 201.44 153.18 200C152.673 198.533 152.287 196.787 152.02 194.76C151.753 192.707 151.58 190.44 151.5 187.96C151.42 185.48 151.38 182.853 151.38 180.08ZM136.62 188.52H141.3V204.6H136.62V188.52ZM127.1 186.92H150.42V190.24H127.1V186.92ZM128.58 191.76H149.1V194.96H128.58V191.76ZM126.14 196.6H151.14V200.12H126.14V196.6ZM130.9 184.4L134.94 183.36C135.313 183.893 135.66 184.493 135.98 185.16C136.327 185.827 136.567 186.427 136.7 186.96L132.42 188.12C132.313 187.613 132.113 187.013 131.82 186.32C131.553 185.627 131.247 184.987 130.9 184.4ZM142.9 183.24L147.5 184.4C146.993 185.173 146.487 185.92 145.98 186.64C145.5 187.36 145.06 187.973 144.66 188.48L140.78 187.4C141.02 187 141.273 186.56 141.54 186.08C141.807 185.573 142.06 185.08 142.3 184.6C142.567 184.093 142.767 183.64 142.9 183.24ZM185.94 167.76H190.54V196.64C190.54 197.413 190.593 198 190.7 198.4C190.807 198.8 191.02 199.067 191.34 199.2C191.687 199.333 192.167 199.4 192.78 199.4C193.02 199.4 193.393 199.4 193.9 199.4C194.433 199.4 195.02 199.4 195.66 199.4C196.3 199.4 196.887 199.4 197.42 199.4C197.98 199.4 198.38 199.4 198.62 199.4C199.313 199.4 199.833 199.173 200.18 198.72C200.553 198.267 200.82 197.44 200.98 196.24C201.14 195.04 201.273 193.32 201.38 191.08C201.94 191.507 202.633 191.92 203.46 192.32C204.287 192.693 205.007 192.947 205.62 193.08C205.46 195.667 205.167 197.733 204.74 199.28C204.34 200.827 203.687 201.933 202.78 202.6C201.9 203.293 200.647 203.64 199.02 203.64C198.78 203.64 198.433 203.64 197.98 203.64C197.553 203.64 197.047 203.64 196.46 203.64C195.9 203.64 195.34 203.64 194.78 203.64C194.22 203.64 193.713 203.64 193.26 203.64C192.807 203.64 192.487 203.64 192.3 203.64C190.647 203.64 189.353 203.427 188.42 203C187.487 202.6 186.833 201.88 186.46 200.84C186.113 199.8 185.94 198.373 185.94 196.56V167.76ZM178.34 167.16L182.78 168.68C181.847 170.947 180.727 173.213 179.42 175.48C178.113 177.747 176.7 179.893 175.18 181.92C173.66 183.92 172.1 185.667 170.5 187.16C170.34 186.76 170.113 186.253 169.82 185.64C169.527 185 169.207 184.36 168.86 183.72C168.513 183.08 168.207 182.56 167.94 182.16C169.327 180.96 170.66 179.573 171.94 178C173.22 176.4 174.407 174.68 175.5 172.84C176.62 170.973 177.567 169.08 178.34 167.16ZM174.34 178.04L178.9 173.48V173.52V204.56H174.34V178.04ZM188.74 178H204.58V182.6H188.74V178ZM245.42 186.16L248.94 188.72C248.007 189.653 247.113 190.6 246.26 191.56C245.433 192.493 244.673 193.293 243.98 193.96L241.42 191.96C241.873 191.453 242.34 190.867 242.82 190.2C243.3 189.507 243.767 188.813 244.22 188.12C244.7 187.4 245.1 186.747 245.42 186.16ZM235.14 167H239.38V175.84H235.14V167ZM237.1 184.36H241.26C241.18 186.707 241.007 188.907 240.74 190.96C240.5 192.987 240.06 194.84 239.42 196.52C238.807 198.2 237.913 199.72 236.74 201.08C235.567 202.44 234.02 203.6 232.1 204.56C231.86 204 231.473 203.373 230.94 202.68C230.433 202.013 229.94 201.467 229.46 201.04C231.14 200.267 232.473 199.333 233.46 198.24C234.447 197.147 235.193 195.907 235.7 194.52C236.207 193.107 236.553 191.56 236.74 189.88C236.927 188.173 237.047 186.333 237.1 184.36ZM240.62 189.44C241.1 191.067 241.74 192.627 242.54 194.12C243.367 195.613 244.34 196.947 245.46 198.12C246.607 199.267 247.887 200.2 249.3 200.92C248.847 201.32 248.34 201.84 247.78 202.48C247.247 203.147 246.833 203.76 246.54 204.32C244.967 203.413 243.58 202.253 242.38 200.84C241.207 199.4 240.193 197.787 239.34 196C238.487 194.187 237.793 192.253 237.26 190.2L240.62 189.44ZM228.42 178.84H248.62V182.84H228.42V178.84ZM226.66 178.84H230.9V186.76C230.9 188.067 230.847 189.507 230.74 191.08C230.66 192.627 230.487 194.213 230.22 195.84C229.953 197.44 229.58 199 229.1 200.52C228.62 202.04 227.993 203.413 227.22 204.64C226.953 204.373 226.593 204.08 226.14 203.76C225.713 203.467 225.26 203.173 224.78 202.88C224.3 202.613 223.887 202.413 223.54 202.28C224.5 200.76 225.193 199.08 225.62 197.24C226.073 195.4 226.353 193.573 226.46 191.76C226.593 189.92 226.66 188.24 226.66 186.72V178.84ZM229.74 188.24L232.7 186.44C233.127 187.053 233.567 187.72 234.02 188.44C234.5 189.133 234.94 189.813 235.34 190.48C235.767 191.12 236.1 191.693 236.34 192.2L233.22 194.28C233.007 193.747 232.7 193.133 232.3 192.44C231.9 191.747 231.473 191.04 231.02 190.32C230.567 189.573 230.14 188.88 229.74 188.24ZM227.14 168.24H231.42V173.16H243.18V168.24H247.66V177.04H227.14V168.24ZM212.02 168.8H225.74V173.12H212.02V168.8ZM216.46 181.24H224.86V199.68H216.46V195.52H221.3V185.44H216.46V181.24ZM216.66 171.04L221.02 172C220.54 174.533 219.913 177.053 219.14 179.56C218.393 182.067 217.5 184.413 216.46 186.6C215.447 188.787 214.233 190.707 212.82 192.36C212.767 191.933 212.647 191.36 212.46 190.64C212.273 189.92 212.06 189.2 211.82 188.48C211.58 187.733 211.353 187.133 211.14 186.68C212.553 184.787 213.7 182.467 214.58 179.72C215.487 176.973 216.18 174.08 216.66 171.04ZM214.46 181.24H218.38V202.68H214.46V181.24ZM110.966 239.8C110.966 236.947 111.326 234.333 112.046 231.96C112.766 229.587 113.726 227.453 114.926 225.56C116.126 223.667 117.433 222.013 118.846 220.6L122.646 222.28C121.313 223.693 120.1 225.28 119.006 227.04C117.94 228.773 117.086 230.693 116.446 232.8C115.806 234.907 115.486 237.24 115.486 239.8C115.486 242.333 115.806 244.667 116.446 246.8C117.086 248.907 117.94 250.827 119.006 252.56C120.1 254.293 121.313 255.88 122.646 257.32L118.846 259C117.433 257.587 116.126 255.933 114.926 254.04C113.726 252.147 112.766 250.013 112.046 247.64C111.326 245.267 110.966 242.653 110.966 239.8ZM143.326 255.56C141.46 255.56 139.713 255.24 138.086 254.6C136.46 253.933 135.02 252.947 133.766 251.64C132.54 250.333 131.566 248.733 130.846 246.84C130.153 244.947 129.806 242.773 129.806 240.32C129.806 237.867 130.166 235.693 130.886 233.8C131.606 231.88 132.593 230.253 133.846 228.92C135.126 227.587 136.593 226.573 138.246 225.88C139.926 225.187 141.7 224.84 143.566 224.84C145.46 224.84 147.14 225.227 148.606 226C150.1 226.747 151.313 227.627 152.246 228.64L149.166 232.4C148.42 231.653 147.593 231.053 146.686 230.6C145.806 230.147 144.806 229.92 143.686 229.92C142.193 229.92 140.846 230.333 139.646 231.16C138.473 231.96 137.553 233.12 136.886 234.64C136.22 236.16 135.886 237.987 135.886 240.12C135.886 242.28 136.193 244.133 136.806 245.68C137.446 247.2 138.34 248.373 139.486 249.2C140.66 250.027 142.02 250.44 143.566 250.44C144.846 250.44 145.98 250.173 146.966 249.64C147.98 249.08 148.873 248.373 149.646 247.52L152.806 251.2C151.58 252.64 150.18 253.733 148.606 254.48C147.033 255.2 145.273 255.56 143.326 255.56ZM170.699 255.56C168.086 255.56 165.779 254.947 163.779 253.72C161.806 252.467 160.259 250.68 159.139 248.36C158.019 246.04 157.459 243.267 157.459 240.04C157.459 236.84 158.019 234.107 159.139 231.84C160.259 229.573 161.806 227.84 163.779 226.64C165.779 225.44 168.086 224.84 170.699 224.84C173.339 224.84 175.646 225.453 177.619 226.68C179.593 227.88 181.139 229.613 182.259 231.88C183.379 234.12 183.939 236.84 183.939 240.04C183.939 243.267 183.379 246.04 182.259 248.36C181.139 250.68 179.593 252.467 177.619 253.72C175.646 254.947 173.339 255.56 170.699 255.56ZM170.699 250.44C172.166 250.44 173.433 250.013 174.499 249.16C175.593 248.307 176.433 247.107 177.019 245.56C177.606 243.987 177.899 242.147 177.899 240.04C177.899 237.933 177.606 236.133 177.019 234.64C176.433 233.12 175.593 231.96 174.499 231.16C173.433 230.333 172.166 229.92 170.699 229.92C169.233 229.92 167.953 230.333 166.859 231.16C165.793 231.96 164.966 233.12 164.379 234.64C163.819 236.133 163.539 237.933 163.539 240.04C163.539 242.147 163.819 243.987 164.379 245.56C164.966 247.107 165.793 248.307 166.859 249.16C167.953 250.013 169.233 250.44 170.699 250.44ZM191.401 237.76V235.36C193.001 234 194.387 232.773 195.561 231.68C196.761 230.587 197.681 229.587 198.321 228.68C198.987 227.747 199.321 226.893 199.321 226.12C199.321 225.16 199.081 224.413 198.601 223.88C198.121 223.347 197.441 223.08 196.561 223.08C195.921 223.08 195.307 223.293 194.721 223.72C194.161 224.12 193.641 224.653 193.161 225.32L190.681 223.08C191.507 221.907 192.467 221.013 193.561 220.4C194.654 219.787 195.867 219.48 197.201 219.48C199.094 219.48 200.627 220 201.801 221.04C202.974 222.053 203.561 223.52 203.561 225.44C203.561 226.427 203.321 227.387 202.841 228.32C202.387 229.253 201.761 230.187 200.961 231.12C200.187 232.053 199.321 233.04 198.361 234.08H204.281V237.76H191.401ZM220.034 239.8C220.034 242.653 219.674 245.267 218.954 247.64C218.234 250.013 217.274 252.147 216.074 254.04C214.9 255.933 213.594 257.587 212.154 259L208.354 257.32C209.687 255.88 210.887 254.293 211.954 252.56C213.047 250.827 213.914 248.907 214.554 246.8C215.194 244.667 215.514 242.333 215.514 239.8C215.514 237.24 215.194 234.907 214.554 232.8C213.914 230.693 213.047 228.773 211.954 227.04C210.887 225.28 209.687 223.693 208.354 222.28L212.154 220.6C213.594 222.013 214.9 223.667 216.074 225.56C217.274 227.453 218.234 229.587 218.954 231.96C219.674 234.333 220.034 236.947 220.034 239.8Z" fill="#00A0E9"/>
</svg>
