<svg width="331" height="400" viewBox="0 0 331 400" fill="none" xmlns="http://www.w3.org/2000/svg">
<rect width="330" height="400" transform="translate(0.5)" fill="#576275"/>
<path d="M309.5 17H21.5V383H309.5V17Z" fill="#F8FBF9"/>
<path d="M179.803 48.5492C179.803 41.4743 173.397 35.739 165.495 35.739C157.593 35.739 151.187 41.4743 151.187 48.5492C151.187 55.6241 157.593 61.3594 165.495 61.3594C173.397 61.3594 179.803 55.6241 179.803 48.5492Z" fill="#262324"/>
<path d="M141.5 171.32H146.58V204.56H141.5V171.32ZM128.5 169.32H159.7V194.28H154.54V173.92H133.42V194.32H128.5V169.32ZM130.78 178.56H156.9V183.08H130.78V178.56ZM130.74 187.6H156.86V192.24H130.74V187.6ZM185.78 178.96H202.22V183.08H185.78V178.96ZM182.74 186.32H205.66V190.48H182.74V186.32ZM182.7 171.56H205.5V179.48H200.9V175.68H187.1V179.48H182.7V171.56ZM187.74 188.28H192.3C192.167 190.253 191.94 192.08 191.62 193.76C191.327 195.413 190.82 196.92 190.1 198.28C189.38 199.64 188.367 200.827 187.06 201.84C185.753 202.88 184.047 203.773 181.94 204.52C181.78 204.147 181.553 203.72 181.26 203.24C180.967 202.76 180.647 202.293 180.3 201.84C179.953 201.387 179.607 201.013 179.26 200.72C181.1 200.16 182.553 199.493 183.62 198.72C184.713 197.947 185.54 197.053 186.1 196.04C186.66 195 187.047 193.853 187.26 192.6C187.5 191.32 187.66 189.88 187.74 188.28ZM194.9 188.32H199.5V198.8C199.5 199.387 199.527 199.76 199.58 199.92C199.66 200.053 199.82 200.12 200.06 200.12C200.14 200.12 200.26 200.12 200.42 200.12C200.607 200.12 200.78 200.12 200.94 200.12C201.127 200.12 201.26 200.12 201.34 200.12C201.553 200.12 201.713 200.013 201.82 199.8C201.927 199.56 202.007 199.107 202.06 198.44C202.113 197.747 202.153 196.72 202.18 195.36C202.473 195.6 202.847 195.84 203.3 196.08C203.78 196.32 204.273 196.533 204.78 196.72C205.287 196.907 205.753 197.053 206.18 197.16C206.047 199 205.82 200.427 205.5 201.44C205.18 202.48 204.727 203.2 204.14 203.6C203.553 204 202.793 204.2 201.86 204.2C201.7 204.2 201.5 204.2 201.26 204.2C201.02 204.2 200.767 204.2 200.5 204.2C200.26 204.2 200.02 204.2 199.78 204.2C199.567 204.2 199.38 204.2 199.22 204.2C198.047 204.2 197.14 204.027 196.5 203.68C195.887 203.36 195.46 202.8 195.22 202C195.007 201.227 194.9 200.173 194.9 198.84V188.32ZM190.1 167.88L194.46 166.68C194.94 167.507 195.393 168.427 195.82 169.44C196.273 170.453 196.607 171.333 196.82 172.08L192.26 173.52C192.1 172.773 191.807 171.867 191.38 170.8C190.953 169.733 190.527 168.76 190.1 167.88ZM173.74 167.2H178.02V181.16C178.02 183.213 177.94 185.293 177.78 187.4C177.647 189.48 177.353 191.533 176.9 193.56C176.473 195.56 175.807 197.493 174.9 199.36C174.02 201.227 172.82 202.973 171.3 204.6C171.087 204.253 170.793 203.867 170.42 203.44C170.047 203.013 169.66 202.6 169.26 202.2C168.86 201.8 168.487 201.48 168.14 201.24C169.82 199.373 171.047 197.333 171.82 195.12C172.62 192.907 173.14 190.613 173.38 188.24C173.62 185.84 173.74 183.48 173.74 181.16V167.2ZM179.74 173.28L183.78 174.76C183.167 176.173 182.553 177.64 181.94 179.16C181.327 180.653 180.753 181.933 180.22 183L177.34 181.72C177.633 180.947 177.927 180.067 178.22 179.08C178.54 178.093 178.833 177.093 179.1 176.08C179.367 175.067 179.58 174.133 179.74 173.28ZM177.02 189.36C177.313 189.573 177.727 189.947 178.26 190.48C178.793 191.013 179.367 191.6 179.98 192.24C180.593 192.853 181.153 193.427 181.66 193.96C182.167 194.493 182.54 194.88 182.78 195.12L179.62 198.84C179.3 198.36 178.9 197.8 178.42 197.16C177.967 196.493 177.46 195.827 176.9 195.16C176.367 194.467 175.847 193.827 175.34 193.24C174.86 192.627 174.42 192.12 174.02 191.72L177.02 189.36ZM167.94 174.68L171.38 173.84C171.7 175.04 172.007 176.333 172.3 177.72C172.593 179.08 172.86 180.4 173.1 181.68C173.367 182.96 173.553 184.053 173.66 184.96L170.02 186.08C169.913 185.12 169.753 183.987 169.54 182.68C169.327 181.373 169.087 180.027 168.82 178.64C168.553 177.227 168.26 175.907 167.94 174.68ZM110.322 239.8C110.322 236.947 110.682 234.333 111.402 231.96C112.122 229.587 113.082 227.453 114.282 225.56C115.482 223.667 116.788 222.013 118.202 220.6L122.002 222.28C120.668 223.693 119.455 225.28 118.362 227.04C117.295 228.773 116.442 230.693 115.802 232.8C115.162 234.907 114.842 237.24 114.842 239.8C114.842 242.333 115.162 244.667 115.802 246.8C116.442 248.907 117.295 250.827 118.362 252.56C119.455 254.293 120.668 255.88 122.002 257.32L118.202 259C116.788 257.587 115.482 255.933 114.282 254.04C113.082 252.147 112.122 250.013 111.402 247.64C110.682 245.267 110.322 242.653 110.322 239.8ZM142.682 255.56C140.815 255.56 139.068 255.24 137.442 254.6C135.815 253.933 134.375 252.947 133.122 251.64C131.895 250.333 130.922 248.733 130.202 246.84C129.508 244.947 129.162 242.773 129.162 240.32C129.162 237.867 129.522 235.693 130.242 233.8C130.962 231.88 131.948 230.253 133.202 228.92C134.482 227.587 135.948 226.573 137.602 225.88C139.282 225.187 141.055 224.84 142.922 224.84C144.815 224.84 146.495 225.227 147.962 226C149.455 226.747 150.668 227.627 151.602 228.64L148.522 232.4C147.775 231.653 146.948 231.053 146.042 230.6C145.162 230.147 144.162 229.92 143.042 229.92C141.548 229.92 140.202 230.333 139.002 231.16C137.828 231.96 136.908 233.12 136.242 234.64C135.575 236.16 135.242 237.987 135.242 240.12C135.242 242.28 135.548 244.133 136.162 245.68C136.802 247.2 137.695 248.373 138.842 249.2C140.015 250.027 141.375 250.44 142.922 250.44C144.202 250.44 145.335 250.173 146.322 249.64C147.335 249.08 148.228 248.373 149.002 247.52L152.162 251.2C150.935 252.64 149.535 253.733 147.962 254.48C146.388 255.2 144.628 255.56 142.682 255.56ZM160.092 255V225.36H166.012V237.08H177.212V225.36H183.092V255H177.212V242.2H166.012V255H160.092ZM199.685 237.76V228.44L199.965 223.24H199.765L197.845 226.8L195.725 230.72H206.205V233.56H191.605V231.4L198.285 220H203.565V237.76H199.685ZM220.678 239.8C220.678 242.653 220.318 245.267 219.598 247.64C218.878 250.013 217.918 252.147 216.718 254.04C215.545 255.933 214.238 257.587 212.798 259L208.998 257.32C210.332 255.88 211.532 254.293 212.598 252.56C213.692 250.827 214.558 248.907 215.198 246.8C215.838 244.667 216.158 242.333 216.158 239.8C216.158 237.24 215.838 234.907 215.198 232.8C214.558 230.693 213.692 228.773 212.598 227.04C211.532 225.28 210.332 223.693 208.998 222.28L212.798 220.6C214.238 222.013 215.545 223.667 216.718 225.56C217.918 227.453 218.878 229.587 219.598 231.96C220.318 234.333 220.678 236.947 220.678 239.8Z" fill="#00A0E9"/>
</svg>
