<svg width="331" height="400" viewBox="0 0 331 400" fill="none" xmlns="http://www.w3.org/2000/svg">
<rect width="330" height="400" transform="translate(0.5)" fill="#576275"/>
<path d="M309.5 17H21.5V383H309.5V17Z" fill="#F8FBF9"/>
<path d="M179.803 48.5492C179.803 41.4743 173.397 35.739 165.495 35.739C157.593 35.739 151.187 41.4743 151.187 48.5492C151.187 55.6241 157.593 61.3594 165.495 61.3594C173.397 61.3594 179.803 55.6241 179.803 48.5492Z" fill="#262324"/>
<path d="M104.94 191.92H139.78V196.08H104.94V191.92ZM113.38 178.48V180.28H130.74V178.48H113.38ZM113.38 183.56V185.4H130.74V183.56H113.38ZM113.38 173.36V175.16H130.74V173.36H113.38ZM108.3 169.88H136.06V188.92H108.3V169.88ZM118.9 166.92L124.62 167.36C124.167 168.32 123.7 169.227 123.22 170.08C122.767 170.933 122.353 171.653 121.98 172.24L117.42 171.6C117.74 170.853 118.033 170.067 118.3 169.24C118.567 168.387 118.767 167.613 118.9 166.92ZM127.3 190.2L129.78 188.12C130.66 188.493 131.62 188.96 132.66 189.52C133.727 190.053 134.58 190.56 135.22 191.04L132.66 193.36C132.073 192.88 131.26 192.347 130.22 191.76C129.18 191.147 128.207 190.627 127.3 190.2ZM118.94 188.04H123.62V191.48C123.62 192.653 123.393 193.853 122.94 195.08C122.513 196.307 121.7 197.52 120.5 198.72C119.3 199.893 117.553 200.987 115.26 202C112.967 203.013 109.98 203.88 106.3 204.6C106.113 204.253 105.86 203.84 105.54 203.36C105.22 202.907 104.873 202.453 104.5 202C104.127 201.547 103.793 201.173 103.5 200.88C106.86 200.267 109.567 199.587 111.62 198.84C113.673 198.067 115.22 197.253 116.26 196.4C117.327 195.547 118.033 194.693 118.38 193.84C118.753 192.96 118.94 192.133 118.94 191.36V188.04ZM122.86 198.12L124.82 194.72C126.1 195.067 127.46 195.48 128.9 195.96C130.367 196.44 131.833 196.96 133.3 197.52C134.767 198.053 136.127 198.613 137.38 199.2C138.66 199.76 139.753 200.293 140.66 200.8L138.54 204.68C137.687 204.173 136.633 203.613 135.38 203C134.153 202.387 132.82 201.787 131.38 201.2C129.967 200.613 128.527 200.053 127.06 199.52C125.593 198.96 124.193 198.493 122.86 198.12ZM155.38 170.28H182.9V173.8H155.38V170.28ZM155.9 175.28H179.42V178.6H155.9V175.28ZM151.5 180.08H174.66V183.72H151.5V180.08ZM154.9 166.92L159.46 168.28C158.687 170.013 157.753 171.693 156.66 173.32C155.567 174.947 154.393 176.467 153.14 177.88C151.887 179.267 150.58 180.467 149.22 181.48C149.033 181.16 148.74 180.76 148.34 180.28C147.94 179.8 147.527 179.32 147.1 178.84C146.7 178.333 146.34 177.933 146.02 177.64C147.86 176.413 149.567 174.853 151.14 172.96C152.713 171.067 153.967 169.053 154.9 166.92ZM172.98 180.08H177.82C177.82 182.907 177.833 185.52 177.86 187.92C177.913 190.293 178.033 192.373 178.22 194.16C178.407 195.92 178.673 197.307 179.02 198.32C179.393 199.307 179.873 199.8 180.46 199.8C180.753 199.8 180.967 199.28 181.1 198.24C181.233 197.2 181.313 195.813 181.34 194.08C181.767 194.64 182.26 195.2 182.82 195.76C183.38 196.293 183.913 196.747 184.42 197.12C184.313 198.88 184.113 200.307 183.82 201.4C183.527 202.493 183.087 203.293 182.5 203.8C181.94 204.333 181.14 204.6 180.1 204.6C178.793 204.6 177.7 204.187 176.82 203.36C175.967 202.56 175.287 201.44 174.78 200C174.273 198.533 173.887 196.787 173.62 194.76C173.353 192.707 173.18 190.44 173.1 187.96C173.02 185.48 172.98 182.853 172.98 180.08ZM158.22 188.52H162.9V204.6H158.22V188.52ZM148.7 186.92H172.02V190.24H148.7V186.92ZM150.18 191.76H170.7V194.96H150.18V191.76ZM147.74 196.6H172.74V200.12H147.74V196.6ZM152.5 184.4L156.54 183.36C156.913 183.893 157.26 184.493 157.58 185.16C157.927 185.827 158.167 186.427 158.3 186.96L154.02 188.12C153.913 187.613 153.713 187.013 153.42 186.32C153.153 185.627 152.847 184.987 152.5 184.4ZM164.5 183.24L169.1 184.4C168.593 185.173 168.087 185.92 167.58 186.64C167.1 187.36 166.66 187.973 166.26 188.48L162.38 187.4C162.62 187 162.873 186.56 163.14 186.08C163.407 185.573 163.66 185.08 163.9 184.6C164.167 184.093 164.367 183.64 164.5 183.24ZM193.9 168.56H198.74V180.36C198.74 182.12 198.673 184.04 198.54 186.12C198.433 188.2 198.207 190.333 197.86 192.52C197.54 194.68 197.06 196.787 196.42 198.84C195.78 200.867 194.953 202.707 193.94 204.36C193.62 204.093 193.193 203.8 192.66 203.48C192.153 203.16 191.633 202.853 191.1 202.56C190.567 202.267 190.087 202.04 189.66 201.88C190.673 200.36 191.46 198.693 192.02 196.88C192.58 195.04 192.993 193.16 193.26 191.24C193.527 189.32 193.7 187.427 193.78 185.56C193.86 183.693 193.9 181.96 193.9 180.36V168.56ZM196.74 168.56H224.82V178H196.74V174.36H219.98V172.24H196.74V168.56ZM203.58 178.68L207.22 177.48C207.647 177.933 208.047 178.453 208.42 179.04C208.793 179.6 209.06 180.107 209.22 180.56L205.38 181.84C205.247 181.387 205.007 180.867 204.66 180.28C204.34 179.667 203.98 179.133 203.58 178.68ZM217.06 177.6L221.26 178.68C220.727 179.32 220.207 179.907 219.7 180.44C219.22 180.973 218.78 181.44 218.38 181.84L214.98 180.84C215.327 180.36 215.7 179.813 216.1 179.2C216.527 178.587 216.847 178.053 217.06 177.6ZM201.3 192.12H223.46V204.6H218.58V195.04H205.9V204.6H201.3V192.12ZM209.86 181.12H214.26V189.32H209.86V181.12ZM204.42 196.48H220.1V199.04H204.42V196.48ZM204.42 200.56H220.1V203.44H204.42V200.56ZM204.06 182.68V188.24H220.14V182.68H204.06ZM199.62 180.08H224.82V190.88H199.62V180.08ZM204.34 184.32L207.14 182.84C207.62 183.4 208.087 184.027 208.54 184.72C208.993 185.387 209.313 185.973 209.5 186.48L206.54 188.12C206.38 187.613 206.087 187 205.66 186.28C205.233 185.533 204.793 184.88 204.34 184.32ZM216.82 182.76L219.82 184.32C219.34 185.04 218.847 185.733 218.34 186.4C217.86 187.04 217.407 187.6 216.98 188.08L214.34 186.6C214.74 186.093 215.18 185.467 215.66 184.72C216.167 183.947 216.553 183.293 216.82 182.76ZM125.66 222.8H139.66V227.12H125.66V222.8ZM129.98 235.24H138.98V253.68H129.98V249.52H134.86V239.44H129.98V235.24ZM130.38 225.04L134.9 226C134.393 228.533 133.74 231.053 132.94 233.56C132.167 236.067 131.233 238.413 130.14 240.6C129.073 242.787 127.82 244.707 126.38 246.36C126.327 245.933 126.207 245.36 126.02 244.64C125.833 243.92 125.607 243.2 125.34 242.48C125.1 241.733 124.86 241.133 124.62 240.68C126.087 238.787 127.287 236.467 128.22 233.72C129.153 230.973 129.873 228.08 130.38 225.04ZM127.98 235.24H132.06V256.68H127.98V235.24ZM143.38 226.84H158.9V231.04H143.38V226.84ZM157.66 226.84H158.3L159.02 226.72L162.02 227.32C161.78 228.813 161.46 230.347 161.06 231.92C160.687 233.493 160.3 234.827 159.9 235.92L156.26 235.08C156.527 234.12 156.793 232.933 157.06 231.52C157.327 230.08 157.527 228.733 157.66 227.48V226.84ZM149.18 221H153.42V238.88H149.18V221ZM141.3 226.84H145.42V237.64C145.42 239.16 145.367 240.84 145.26 242.68C145.153 244.493 144.953 246.347 144.66 248.24C144.367 250.107 143.927 251.933 143.34 253.72C142.78 255.48 142.033 257.08 141.1 258.52C140.86 258.28 140.513 258.013 140.06 257.72C139.633 257.427 139.18 257.133 138.7 256.84C138.247 256.547 137.86 256.333 137.54 256.2C138.393 254.867 139.073 253.427 139.58 251.88C140.087 250.307 140.46 248.693 140.7 247.04C140.967 245.36 141.127 243.72 141.18 242.12C141.26 240.52 141.3 239.027 141.3 237.64V226.84ZM143.98 236.52H157.46V240.64H143.98V236.52ZM156.98 236.52H157.74L158.5 236.36L161.26 237.36C160.513 240.933 159.393 244.093 157.9 246.84C156.407 249.56 154.607 251.893 152.5 253.84C150.42 255.76 148.073 257.32 145.46 258.52C145.193 257.987 144.807 257.347 144.3 256.6C143.82 255.88 143.353 255.307 142.9 254.88C145.22 253.973 147.327 252.68 149.22 251C151.14 249.32 152.767 247.32 154.1 245C155.433 242.68 156.393 240.093 156.98 237.24V236.52ZM147.94 239.52C148.767 241.813 149.86 243.947 151.22 245.92C152.607 247.893 154.26 249.627 156.18 251.12C158.127 252.613 160.287 253.787 162.66 254.64C162.34 254.933 161.98 255.307 161.58 255.76C161.207 256.213 160.847 256.68 160.5 257.16C160.18 257.64 159.9 258.08 159.66 258.48C155.873 256.88 152.7 254.533 150.14 251.44C147.607 248.347 145.593 244.72 144.1 240.56L147.94 239.52ZM185.94 229.52H198.38V233.44H185.94V229.52ZM179.74 222.48H201.42V226.8H184.26V258.6H179.74V222.48ZM188.5 236.08H197.66V249.68H188.5V245.72H193.86V240.04H188.5V236.08ZM199.98 222.48H204.58V253.12C204.58 254.32 204.46 255.28 204.22 256C203.98 256.72 203.487 257.28 202.74 257.68C202.02 258.107 201.127 258.373 200.06 258.48C199.02 258.587 197.727 258.64 196.18 258.64C196.127 258.187 196.02 257.667 195.86 257.08C195.727 256.493 195.567 255.907 195.38 255.32C195.193 254.733 194.993 254.227 194.78 253.8C195.687 253.853 196.567 253.88 197.42 253.88C198.273 253.88 198.873 253.88 199.22 253.88C199.513 253.88 199.713 253.813 199.82 253.68C199.927 253.547 199.98 253.333 199.98 253.04V222.48ZM186.58 236.08H190.26V252.04H186.58V236.08ZM169.98 225.12L172.62 221.56C173.367 221.907 174.18 222.307 175.06 222.76C175.967 223.213 176.833 223.68 177.66 224.16C178.513 224.64 179.207 225.08 179.74 225.48L176.98 229.36C176.5 228.96 175.847 228.507 175.02 228C174.22 227.467 173.367 226.947 172.46 226.44C171.58 225.933 170.753 225.493 169.98 225.12ZM168.1 235.88L170.54 232.24C171.34 232.56 172.207 232.947 173.14 233.4C174.073 233.827 174.98 234.267 175.86 234.72C176.74 235.173 177.46 235.6 178.02 236L175.42 240C174.913 239.6 174.233 239.16 173.38 238.68C172.527 238.173 171.633 237.68 170.7 237.2C169.767 236.693 168.9 236.253 168.1 235.88ZM169.1 254.72C169.767 253.733 170.487 252.573 171.26 251.24C172.033 249.88 172.82 248.44 173.62 246.92C174.42 245.373 175.167 243.84 175.86 242.32L179.58 245.56C178.967 246.92 178.313 248.32 177.62 249.76C176.953 251.173 176.26 252.573 175.54 253.96C174.82 255.32 174.1 256.653 173.38 257.96L169.1 254.72Z" fill="#00A0E9"/>
</svg>
