<svg width="331" height="400" viewBox="0 0 331 400" fill="none" xmlns="http://www.w3.org/2000/svg">
<rect width="330" height="400" transform="translate(0.5)" fill="#576275"/>
<path d="M309.5 17H21.5V383H309.5V17Z" fill="#F8FBF9"/>
<path d="M179.803 48.5492C179.803 41.4743 173.397 35.739 165.495 35.739C157.593 35.739 151.187 41.4743 151.187 48.5492C151.187 55.6241 157.593 61.3594 165.495 61.3594C173.397 61.3594 179.803 55.6241 179.803 48.5492Z" fill="#262324"/>
<path d="M82.46 201.28H94.34V205.48H82.46V201.28ZM86.22 194.04H90.46V231.6H86.22V194.04ZM86.66 204.76L89.1 205.84C88.8333 207.413 88.5133 209.067 88.14 210.8C87.7667 212.507 87.34 214.187 86.86 215.84C86.38 217.493 85.8467 219.053 85.26 220.52C84.7 221.96 84.1133 223.2 83.5 224.24C83.3667 223.787 83.1667 223.28 82.9 222.72C82.66 222.133 82.3933 221.56 82.1 221C81.8333 220.413 81.58 219.92 81.34 219.52C81.9267 218.667 82.4867 217.653 83.02 216.48C83.58 215.307 84.0867 214.053 84.54 212.72C84.9933 211.36 85.4067 210 85.78 208.64C86.1533 207.28 86.4467 205.987 86.66 204.76ZM90.18 207.08C90.3933 207.347 90.7 207.8 91.1 208.44C91.5267 209.053 91.98 209.733 92.46 210.48C92.94 211.2 93.38 211.88 93.78 212.52C94.18 213.16 94.46 213.627 94.62 213.92L92.02 217.24C91.86 216.68 91.6067 216.027 91.26 215.28C90.94 214.507 90.5933 213.72 90.22 212.92C89.8467 212.093 89.4867 211.32 89.14 210.6C88.7933 209.88 88.5 209.293 88.26 208.84L90.18 207.08ZM109.9 203.36H116.26V206.8H109.9V203.36ZM108.86 210.32L111.66 208.16C112.727 209.387 113.767 210.72 114.78 212.16C115.793 213.6 116.713 215.013 117.54 216.4C118.393 217.787 119.047 219.04 119.5 220.16L116.46 222.64C116.007 221.493 115.38 220.2 114.58 218.76C113.78 217.32 112.873 215.867 111.86 214.4C110.873 212.907 109.873 211.547 108.86 210.32ZM94.38 205.56H100.7V209.04H97.42V221.36H94.38V205.56ZM115.26 203.36H116.02L116.74 203.24L119.1 203.96C118.54 208.813 117.527 212.907 116.06 216.24C114.593 219.573 112.727 222.107 110.46 223.84C110.273 223.547 110.007 223.2 109.66 222.8C109.34 222.4 108.993 222.013 108.62 221.64C108.273 221.267 107.953 220.987 107.66 220.8C109.74 219.28 111.42 217.12 112.7 214.32C113.98 211.493 114.833 208.08 115.26 204.08V203.36ZM92.1 226.36H119.38V230.56H92.1V226.36ZM94.02 194.88H118.26V199H94.02V194.88ZM102.5 201.76H106.38V205.2H101.42L102.5 201.76ZM104.9 201.76H109.02C109.02 201.76 109.02 201.88 109.02 202.12C109.02 202.333 109.02 202.587 109.02 202.88C109.02 203.147 109.007 203.373 108.98 203.56C108.927 207 108.887 209.92 108.86 212.32C108.833 214.72 108.78 216.693 108.7 218.24C108.62 219.76 108.5 220.947 108.34 221.8C108.207 222.627 108.02 223.227 107.78 223.6C107.407 224.133 107.007 224.52 106.58 224.76C106.18 224.973 105.713 225.147 105.18 225.28C104.673 225.36 104.06 225.413 103.34 225.44C102.62 225.44 101.86 225.427 101.06 225.4C101.033 224.84 100.927 224.2 100.74 223.48C100.553 222.733 100.3 222.12 99.98 221.64C100.62 221.667 101.193 221.693 101.7 221.72C102.233 221.747 102.66 221.76 102.98 221.76C103.247 221.76 103.46 221.72 103.62 221.64C103.78 221.56 103.94 221.4 104.1 221.16C104.233 220.92 104.34 220.44 104.42 219.72C104.527 218.973 104.607 217.893 104.66 216.48C104.713 215.04 104.753 213.187 104.78 210.92C104.807 208.653 104.847 205.88 104.9 202.6V201.76ZM102.18 196.52H106.54C106.087 197.987 105.593 199.52 105.06 201.12C104.553 202.72 104.073 204.08 103.62 205.2H99.26C99.7667 204 100.273 202.6 100.78 201C101.313 199.4 101.78 197.907 102.18 196.52ZM99.3 205.56H102.46V219.72H95.02V216.4H99.3V205.56ZM138.7 208.24H162.42V212.48H138.7V208.24ZM145.9 216.56H149.5V231.28H145.9V216.56ZM151.66 216.56H155.3V231.24H151.66V216.56ZM148.14 194.16H152.74V204.56H148.14V194.16ZM139.58 214.96H159.82V219H143.86V231.56H139.58V214.96ZM157.46 214.96H161.66V227.56C161.66 228.44 161.58 229.147 161.42 229.68C161.26 230.24 160.913 230.68 160.38 231C159.847 231.293 159.247 231.48 158.58 231.56C157.94 231.64 157.18 231.68 156.3 231.68C156.247 231.12 156.1 230.48 155.86 229.76C155.647 229.04 155.407 228.427 155.14 227.92C155.54 227.947 155.927 227.96 156.3 227.96C156.673 227.96 156.927 227.96 157.06 227.96C157.327 227.96 157.46 227.813 157.46 227.52V214.96ZM147.94 209.72L153.58 210.96C153.047 212.213 152.527 213.467 152.02 214.72C151.54 215.947 151.1 217 150.7 217.88L146.62 216.68C146.913 215.667 147.18 214.52 147.42 213.24C147.66 211.933 147.833 210.76 147.94 209.72ZM140.1 195.96H144.5V202.12H156.58V195.96H161.18V206.24H140.1V195.96ZM125.54 201.04H139.06V205.44H125.54V201.04ZM125.06 223.24C126.82 222.92 128.9 222.507 131.3 222C133.727 221.467 136.167 220.933 138.62 220.4L139.14 224.8C136.9 225.387 134.633 225.947 132.34 226.48C130.047 227.013 127.953 227.507 126.06 227.96L125.06 223.24ZM126.5 207.6L130.06 206.96C130.3 208.4 130.513 209.92 130.7 211.52C130.887 213.093 131.047 214.64 131.18 216.16C131.313 217.68 131.393 219.053 131.42 220.28L127.7 220.92C127.7 219.693 127.633 218.32 127.5 216.8C127.393 215.253 127.247 213.68 127.06 212.08C126.9 210.48 126.713 208.987 126.5 207.6ZM134.26 206.76L138.3 207.36C138.113 208.693 137.9 210.067 137.66 211.48C137.447 212.893 137.22 214.307 136.98 215.72C136.74 217.107 136.5 218.427 136.26 219.68C136.047 220.933 135.807 222.067 135.54 223.08L132.34 222.4C132.553 221.36 132.753 220.2 132.94 218.92C133.127 217.613 133.313 216.253 133.5 214.84C133.687 213.4 133.833 212 133.94 210.64C134.073 209.253 134.18 207.96 134.26 206.76ZM129.18 195.56L133.22 194.4C133.7 195.28 134.18 196.253 134.66 197.32C135.14 198.36 135.5 199.28 135.74 200.08L131.54 201.48C131.327 200.653 130.993 199.693 130.54 198.6C130.113 197.48 129.66 196.467 129.18 195.56ZM189.9 197.4H200.5V200.92H189.9V197.4ZM184.3 221.96H205.62V226.08H184.3V221.96ZM199.7 197.4H200.58L201.34 197.2L204.3 198.64C203.42 200.64 202.273 202.413 200.86 203.96C199.447 205.507 197.847 206.867 196.06 208.04C194.273 209.187 192.34 210.173 190.26 211C188.207 211.8 186.047 212.467 183.78 213C183.567 212.413 183.233 211.747 182.78 211C182.327 210.253 181.887 209.64 181.46 209.16C183.513 208.787 185.487 208.28 187.38 207.64C189.273 206.973 191.02 206.173 192.62 205.24C194.247 204.307 195.66 203.24 196.86 202.04C198.087 200.813 199.033 199.467 199.7 198V197.4ZM189.9 200.52C190.887 201.987 192.18 203.293 193.78 204.44C195.407 205.56 197.287 206.507 199.42 207.28C201.58 208.027 203.913 208.6 206.42 209C206.127 209.267 205.793 209.64 205.42 210.12C205.073 210.573 204.74 211.053 204.42 211.56C204.127 212.04 203.873 212.467 203.66 212.84C200.993 212.333 198.553 211.573 196.34 210.56C194.127 209.547 192.153 208.32 190.42 206.88C188.713 205.413 187.26 203.72 186.06 201.8L189.9 200.52ZM192.46 211.68H197.06V231.56H192.46V211.68ZM190.18 194.08L194.86 195C193.687 197.08 192.26 199.093 190.58 201.04C188.927 202.96 186.913 204.76 184.54 206.44C184.327 206.093 184.047 205.707 183.7 205.28C183.353 204.853 182.98 204.453 182.58 204.08C182.18 203.68 181.82 203.36 181.5 203.12C183.58 201.84 185.34 200.387 186.78 198.76C188.22 197.133 189.353 195.573 190.18 194.08ZM169.7 195.6H179.1V199.88H173.9V231.44H169.7V195.6ZM178.26 195.6H179.06L179.74 195.4L182.9 197.2C182.313 198.907 181.673 200.693 180.98 202.56C180.313 204.427 179.647 206.12 178.98 207.64C180.367 209.24 181.273 210.747 181.7 212.16C182.127 213.547 182.34 214.84 182.34 216.04C182.34 217.32 182.18 218.4 181.86 219.28C181.567 220.16 181.087 220.853 180.42 221.36C180.1 221.6 179.74 221.787 179.34 221.92C178.94 222.053 178.513 222.16 178.06 222.24C177.66 222.293 177.207 222.32 176.7 222.32C176.22 222.32 175.727 222.32 175.22 222.32C175.193 221.76 175.087 221.08 174.9 220.28C174.713 219.48 174.46 218.787 174.14 218.2C174.54 218.227 174.9 218.253 175.22 218.28C175.54 218.28 175.833 218.28 176.1 218.28C176.633 218.253 177.047 218.133 177.34 217.92C177.607 217.76 177.807 217.48 177.94 217.08C178.073 216.653 178.127 216.133 178.1 215.52C178.1 214.56 177.873 213.453 177.42 212.2C176.993 210.92 176.113 209.573 174.78 208.16C175.233 206.987 175.673 205.693 176.1 204.28C176.553 202.867 176.967 201.493 177.34 200.16C177.713 198.827 178.02 197.733 178.26 196.88V195.6ZM184.66 216.88L188.98 217.32C188.767 218.28 188.527 219.307 188.26 220.4C187.993 221.467 187.727 222.493 187.46 223.48C187.22 224.467 186.98 225.333 186.74 226.08H182.3C182.593 225.253 182.873 224.32 183.14 223.28C183.433 222.24 183.713 221.16 183.98 220.04C184.247 218.92 184.473 217.867 184.66 216.88ZM183.22 213.88H204.46V218H183.22V213.88ZM228.18 199.56H232.9V231.04H228.18V199.56ZM213.9 204.8H244.14V209.28H218.5V231.52H213.9V204.8ZM242.26 204.8H246.98V226.48C246.98 227.627 246.82 228.52 246.5 229.16C246.207 229.8 245.673 230.293 244.9 230.64C244.127 230.987 243.167 231.2 242.02 231.28C240.873 231.36 239.527 231.4 237.98 231.4C237.873 230.787 237.66 230.067 237.34 229.24C237.047 228.44 236.74 227.76 236.42 227.2C237.087 227.227 237.753 227.253 238.42 227.28C239.087 227.28 239.687 227.28 240.22 227.28C240.78 227.253 241.153 227.24 241.34 227.24C241.687 227.213 241.927 227.147 242.06 227.04C242.193 226.933 242.26 226.733 242.26 226.44V204.8ZM212.18 196.32H248.46V201.04H212.18V196.32ZM218.54 224.68C219.447 224.067 220.567 223.267 221.9 222.28C223.26 221.267 224.633 220.213 226.02 219.12L227.7 222.4C226.58 223.493 225.42 224.587 224.22 225.68C223.047 226.773 221.927 227.813 220.86 228.8L218.54 224.68ZM218.82 213.12L221.54 210.4C222.207 210.907 222.94 211.48 223.74 212.12C224.567 212.733 225.34 213.347 226.06 213.96C226.807 214.573 227.407 215.12 227.86 215.6L225.02 218.68C224.567 218.173 223.993 217.6 223.3 216.96C222.607 216.293 221.86 215.627 221.06 214.96C220.287 214.293 219.54 213.68 218.82 213.12ZM239.62 210.56L242.26 213.84C241.54 214.427 240.753 215.027 239.9 215.64C239.073 216.227 238.247 216.787 237.42 217.32C236.62 217.853 235.887 218.32 235.22 218.72L233.06 215.8C233.727 215.373 234.46 214.867 235.26 214.28C236.06 213.693 236.847 213.067 237.62 212.4C238.393 211.733 239.06 211.12 239.62 210.56ZM233.02 221.68L235.9 219.2C236.567 219.707 237.273 220.293 238.02 220.96C238.767 221.6 239.487 222.227 240.18 222.84C240.873 223.453 241.433 224 241.86 224.48L238.86 227.36C238.46 226.88 237.927 226.307 237.26 225.64C236.593 224.947 235.887 224.267 235.14 223.6C234.393 222.907 233.687 222.267 233.02 221.68Z" fill="#00A0E9"/>
</svg>
