<svg width="60" height="60" viewBox="0 0 60 60" fill="none" xmlns="http://www.w3.org/2000/svg">
<rect width="60" height="60" rx="30" fill="white"/>
<path d="M60 30C60 37.9565 56.8393 45.5871 51.2132 51.2132C45.5871 56.8393 37.9565 60 30 60C22.0435 60 14.4129 56.8393 8.7868 51.2132C3.16071 45.5871 0 37.9565 0 30C0 22.0435 3.16071 14.4129 8.7868 8.7868C14.4129 3.16071 22.0435 0 30 0C37.9565 0 45.5871 3.16071 51.2132 8.7868C56.8393 14.4129 60 22.0435 60 30ZM25.4625 19.0987C25.1821 18.8991 24.8522 18.7805 24.509 18.7559C24.1657 18.7314 23.8222 18.8017 23.5163 18.9594C23.2103 19.117 22.9537 19.3558 22.7744 19.6496C22.5951 19.9434 22.5002 20.2808 22.5 20.625V39.375C22.5002 39.7192 22.5951 40.0566 22.7744 40.3504C22.9537 40.6442 23.2103 40.883 23.5163 41.0406C23.8222 41.1983 24.1657 41.2686 24.509 41.2441C24.8522 41.2195 25.1821 41.1009 25.4625 40.9013L35.625 33.645V39.375C35.625 39.8723 35.8225 40.3492 36.1742 40.7008C36.5258 41.0525 37.0027 41.25 37.5 41.25C37.9973 41.25 38.4742 41.0525 38.8258 40.7008C39.1775 40.3492 39.375 39.8723 39.375 39.375V20.625C39.375 20.1277 39.1775 19.6508 38.8258 19.2992C38.4742 18.9475 37.9973 18.75 37.5 18.75C37.0027 18.75 36.5258 18.9475 36.1742 19.2992C35.8225 19.6508 35.625 20.1277 35.625 20.625V26.355L25.4625 19.0987Z" fill="#F39800"/>
</svg>
