<svg width="48" height="48" viewBox="0 0 48 48" fill="none" xmlns="http://www.w3.org/2000/svg">
<rect width="48" height="48" rx="24" fill="#333333"/>
<path d="M31.4191 22.6718C31.1203 17.8041 28.0321 15.4819 24.7072 15.4819C21.8068 15.4819 19.6036 16.5664 18.405 18.4131L20.6327 20.0747C20.9481 19.588 21.5535 19.0394 22.1362 18.7646C22.8394 18.4329 23.7043 18.2641 24.7063 18.2641C25.4349 18.2641 26.4806 18.451 27.3219 19.3408C27.8862 19.9378 28.2733 20.7655 28.4698 21.7811C22.5066 21.2135 18.7186 22.6451 18.08 26.0992C17.9525 26.7633 17.9123 27.5308 18.1045 28.449C18.5648 30.481 20.7751 32.5138 24.7063 32.5138C28.2671 32.5138 30.6809 29.7901 31.2924 25.8201C33.6669 26.9536 34.4435 29.9168 33.7001 31.9436C32.1896 35.2297 29.471 37.2169 24.0511 37.2169C17.4003 37.2169 12.8218 33.2408 12.8218 24.0758C12.8218 14.9108 17.3575 10.7822 24.0511 10.7822C30.7447 10.7822 34.157 14.0391 35.2455 18.843L38 18.2366C37.6593 16.7335 37.115 15.3535 36.3821 14.1364C35.6011 12.8392 34.6043 11.722 33.4188 10.8141C32.2054 9.88468 30.7936 9.17491 29.2202 8.70374C27.66 8.23688 25.9215 8 24.0511 8C19.8272 8 16.2856 9.4652 13.8089 12.2362C12.5457 13.6497 11.5812 15.3845 10.9426 17.3933C10.3171 19.3598 10 21.608 10 24.0758C10 26.5436 10.3197 28.8685 10.9505 30.835C11.5952 32.8437 12.5728 34.5673 13.8552 35.9567C15.122 37.328 16.6779 38.3694 18.4792 39.0508C20.1443 39.6804 22.0191 40 24.0502 40C25.5895 40 27.0091 39.8544 28.2689 39.5667C29.5662 39.2704 30.7491 38.8122 31.7843 38.204C32.8047 37.6054 33.7106 36.8448 34.4776 35.9438C35.1721 35.1281 35.7749 34.1694 36.2685 33.0935C37.6095 30.3268 36.5778 24.5358 31.4156 22.6735L31.4191 22.6718ZM28.1754 26.7779C27.8985 27.6066 27.4922 28.3051 27.0022 28.7987C26.3784 29.4258 25.628 29.7307 24.7072 29.7307C23.4169 29.7307 22.448 29.5197 21.8278 29.1036C21.5334 28.9064 20.8764 28.3405 20.7847 27.5764C20.4719 24.5676 24.4005 24.0439 28.5257 24.6667C28.5615 24.6719 28.5869 24.7037 28.5834 24.7391C28.5205 25.4729 28.3842 26.1552 28.1754 26.7779Z" fill="white"/>
</svg>
