<svg width="60" height="60" viewBox="0 0 60 60" fill="none" xmlns="http://www.w3.org/2000/svg">
<rect width="60" height="60" rx="30" fill="#F39800"/>
<path d="M13 26.8571C13 27.4094 13.4477 27.8571 14 27.8571H26.5714C27.1237 27.8571 27.5714 27.4094 27.5714 26.8571V16C27.5714 15.4477 27.1237 15 26.5714 15H14C13.4477 15 13 15.4477 13 16V26.8571ZM17.8571 20.2857C17.8571 19.7334 18.3049 19.2857 18.8571 19.2857H21.7143C22.2666 19.2857 22.7143 19.7334 22.7143 20.2857V22.5714C22.7143 23.1237 22.2666 23.5714 21.7143 23.5714H18.8571C18.3049 23.5714 17.8571 23.1237 17.8571 22.5714V20.2857ZM33.4286 15C32.8763 15 32.4286 15.4477 32.4286 16V26.8571C32.4286 27.4094 32.8763 27.8571 33.4286 27.8571H46C46.5523 27.8571 47 27.4094 47 26.8571V16C47 15.4477 46.5523 15 46 15H33.4286ZM42.1429 22.5714C42.1429 23.1237 41.6951 23.5714 41.1429 23.5714H38.2857C37.7334 23.5714 37.2857 23.1237 37.2857 22.5714V20.2857C37.2857 19.7334 37.7334 19.2857 38.2857 19.2857H41.1429C41.6951 19.2857 42.1429 19.7334 42.1429 20.2857V22.5714ZM13 44C13 44.5523 13.4477 45 14 45H26.5714C27.1237 45 27.5714 44.5523 27.5714 44V33.1429C27.5714 32.5906 27.1237 32.1429 26.5714 32.1429H14C13.4477 32.1429 13 32.5906 13 33.1429V44ZM17.8571 37.4286C17.8571 36.8763 18.3049 36.4286 18.8571 36.4286H21.7143C22.2666 36.4286 22.7143 36.8763 22.7143 37.4286V39.7143C22.7143 40.2666 22.2666 40.7143 21.7143 40.7143H18.8571C18.3049 40.7143 17.8571 40.2666 17.8571 39.7143V37.4286ZM44.5714 33.1429C44.5714 32.5906 45.0191 32.1429 45.5714 32.1429H46C46.5523 32.1429 47 32.5906 47 33.1429V39.7143C47 40.2666 46.5523 40.7143 46 40.7143H40.7143C40.162 40.7143 39.7143 40.2666 39.7143 39.7143V39.5714C39.7143 39.0191 39.2666 38.5714 38.7143 38.5714H38.2857C37.7334 38.5714 37.2857 39.0191 37.2857 39.5714V44C37.2857 44.5523 36.838 45 36.2857 45H33.4286C32.8763 45 32.4286 44.5523 32.4286 44V33.1429C32.4286 32.5906 32.8763 32.1429 33.4286 32.1429H38.7143C39.2666 32.1429 39.7143 32.5906 39.7143 33.1429V33.2857C39.7143 33.838 40.162 34.2857 40.7143 34.2857H43.5714C44.1237 34.2857 44.5714 33.838 44.5714 33.2857V33.1429ZM44.5714 43.8571C44.5714 43.3049 45.0191 42.8571 45.5714 42.8571H46C46.5523 42.8571 47 43.3049 47 43.8571V44C47 44.5523 46.5523 45 46 45H45.5714C45.0191 45 44.5714 44.5523 44.5714 44V43.8571ZM39.7143 43.8571C39.7143 43.3049 40.162 42.8571 40.7143 42.8571H41.1429C41.6951 42.8571 42.1429 43.3049 42.1429 43.8571V44C42.1429 44.5523 41.6951 45 41.1429 45H40.7143C40.162 45 39.7143 44.5523 39.7143 44V43.8571Z" fill="white"/>
</svg>
