<svg width="51" height="50" viewBox="0 0 51 50" fill="none" xmlns="http://www.w3.org/2000/svg">
<rect x="0.5" width="50" height="50" rx="25" fill="#00A0E9"/>
<path fill-rule="evenodd" clip-rule="evenodd" d="M39.5 18V37C39.5 38.0609 39.0786 39.0783 38.3284 39.8284C37.5783 40.5786 36.5609 41 35.5 41H33.5V39H35.5C36.0304 39 36.5391 38.7893 36.9142 38.4142C37.2893 38.0391 37.5 37.5304 37.5 37V18H33.5C32.7044 18 31.9413 17.6839 31.3787 17.1213C30.8161 16.5587 30.5 15.7956 30.5 15V11H19.5C18.9696 11 18.4609 11.2107 18.0858 11.5858C17.7107 11.9609 17.5 12.4696 17.5 13V31H15.5V13C15.5 11.9391 15.9214 10.9217 16.6716 10.1716C17.4217 9.42143 18.4391 9 19.5 9H30.5L39.5 18ZM14.7 32.7H11.5V40.698H13.082V38.014H14.688C15.262 38.014 15.75 37.9 16.152 37.668C16.558 37.434 16.868 37.118 17.078 36.72C17.296 36.3024 17.4066 35.8371 17.4 35.366C17.4 34.866 17.294 34.414 17.084 34.012C16.8751 33.6124 16.5558 33.2812 16.164 33.058C15.764 32.818 15.278 32.7 14.7 32.7ZM15.79 35.366C15.7972 35.6295 15.7388 35.8907 15.62 36.126C15.5134 36.3309 15.3475 36.4989 15.144 36.608C14.9112 36.7232 14.6537 36.7795 14.394 36.772H13.076V33.96H14.396C14.832 33.96 15.174 34.08 15.42 34.322C15.666 34.566 15.79 34.914 15.79 35.366ZM18.224 32.7V40.698H21.144C21.946 40.698 22.612 40.538 23.14 40.224C23.6743 39.9043 24.0915 39.4212 24.33 38.846C24.59 38.246 24.722 37.522 24.722 36.678C24.722 35.838 24.592 35.122 24.33 34.528C24.0944 33.9594 23.6811 33.4824 23.152 33.168C22.624 32.856 21.954 32.7 21.142 32.7H18.224ZM19.806 33.99H20.932C21.428 33.99 21.832 34.09 22.15 34.294C22.4801 34.5099 22.7291 34.8293 22.858 35.202C23.016 35.604 23.094 36.106 23.094 36.708C23.1002 37.1069 23.0545 37.5049 22.958 37.892C22.8867 38.1973 22.7533 38.4846 22.566 38.736C22.392 38.9603 22.1614 39.1342 21.898 39.24C21.5893 39.3555 21.2615 39.4111 20.932 39.404H19.806V33.99ZM27.292 37.516V40.698H25.712V32.7H30.808V34.006H27.292V36.24H30.504V37.516H27.292Z" fill="white"/>
</svg>
