<svg width="294" height="130" viewBox="0 0 294 130" fill="none" xmlns="http://www.w3.org/2000/svg">
<path d="M230.575 3.19531H63.4146C28.7046 3.19531 0.474609 31.4253 0.474609 66.1353C0.474609 100.845 28.7046 129.075 63.4146 129.075H230.585C265.285 129.075 293.525 100.845 293.525 66.1353C293.525 31.4253 265.285 3.19531 230.575 3.19531Z" fill="#DCDCDC"/>
<path d="M230.573 3.17578H63.4032C30.9432 3.17578 4.5332 29.5858 4.5332 62.0458C4.5332 94.5058 30.9432 120.916 63.4032 120.916H230.573C263.033 120.916 289.443 94.5058 289.443 62.0458C289.443 29.5858 263.043 3.17578 230.573 3.17578Z" fill="#EFEFEF"/>
<path d="M230.573 0.925781H63.4032C30.9432 0.925781 4.5332 27.3358 4.5332 59.7958C4.5332 92.2558 30.9432 118.666 63.4032 118.666H230.573C263.033 118.666 289.443 92.2558 289.443 59.7958C289.443 27.3358 263.043 0.925781 230.573 0.925781Z" fill="white"/>
<path d="M231.625 12.9258H62.3646C37.1583 12.9258 16.7246 33.3595 16.7246 58.5658V60.6558C16.7246 85.8621 37.1583 106.296 62.3646 106.296H231.625C256.831 106.296 277.265 85.8621 277.265 60.6558V58.5658C277.265 33.3595 256.831 12.9258 231.625 12.9258Z" fill="url(#paint0_linear_6077_8822)"/>
<g style="mix-blend-mode:screen">
<path d="M230.575 13.1172H63.4146C37.6346 13.1172 16.7246 34.0172 16.7246 59.8072C16.7246 60.4172 16.7446 61.0272 16.7746 61.6372C17.7346 36.7072 38.2446 16.7872 63.4146 16.7872H230.585C255.755 16.7872 276.265 36.7072 277.225 61.6372C277.245 61.0272 277.275 60.4172 277.275 59.8072C277.275 34.0272 256.375 13.1172 230.585 13.1172H230.575Z" fill="#5B5B5B"/>
</g>
<g style="mix-blend-mode:multiply">
<path d="M230.576 100.327H63.4163C38.6663 100.327 18.4263 81.0666 16.8463 56.7266C16.7763 57.7466 16.7363 58.7766 16.7363 59.8066C16.7363 85.5866 37.6363 106.497 63.4263 106.497H230.596C256.376 106.497 277.286 85.5966 277.286 59.8066C277.286 58.7666 277.236 57.7466 277.176 56.7266C275.586 81.0766 255.346 100.327 230.606 100.327H230.576Z" fill="#C4C4C4"/>
</g>
<path d="M67.538 57.8H104.578V63.04H67.538V57.8ZM107.458 59.68C108.978 59.5733 110.725 59.4533 112.698 59.32C114.671 59.1867 116.778 59.04 119.018 58.88C121.258 58.6933 123.498 58.5067 125.738 58.32L125.778 62.08C123.671 62.32 121.538 62.56 119.378 62.8C117.245 63.04 115.191 63.2667 113.218 63.48C111.271 63.6933 109.471 63.88 107.818 64.04L107.458 59.68ZM113.218 46.16H121.698V49.96H113.218V46.16ZM115.458 41.88L120.298 42.44C119.898 43.4533 119.511 44.4 119.138 45.28C118.791 46.16 118.458 46.9333 118.138 47.6L114.098 46.96C114.338 46.24 114.591 45.4 114.858 44.44C115.125 43.48 115.325 42.6267 115.458 41.88ZM110.218 46.16H114.418V58.2C114.418 59.7467 114.378 61.4533 114.298 63.32C114.218 65.16 114.071 67.0533 113.858 69C113.645 70.9467 113.325 72.8267 112.898 74.64C112.471 76.4533 111.911 78.12 111.218 79.64C110.951 79.3733 110.591 79.08 110.138 78.76C109.685 78.4667 109.218 78.1733 108.738 77.88C108.285 77.5867 107.885 77.3733 107.538 77.24C108.151 75.88 108.631 74.3867 108.978 72.76C109.351 71.1333 109.618 69.48 109.778 67.8C109.965 66.0933 110.085 64.4267 110.138 62.8C110.191 61.1467 110.218 59.6133 110.218 58.2V46.16ZM130.698 43.88H138.778V47.92H130.698V43.88ZM126.698 58.8H140.698V63H126.698V58.8ZM127.738 43.88H132.178V49.48C132.178 50.52 132.085 51.6 131.898 52.72C131.711 53.8133 131.351 54.8667 130.818 55.88C130.285 56.8667 129.498 57.72 128.458 58.44C128.245 58.1733 127.911 57.84 127.458 57.44C127.031 57.04 126.591 56.6533 126.138 56.28C125.685 55.9067 125.298 55.6267 124.978 55.44C125.831 54.8533 126.458 54.24 126.858 53.6C127.258 52.9333 127.498 52.24 127.578 51.52C127.685 50.8 127.738 50.08 127.738 49.36V43.88ZM120.618 46.16H124.938V74.44C124.938 75.5067 124.805 76.3467 124.538 76.96C124.298 77.5733 123.831 78.0667 123.138 78.44C122.445 78.76 121.591 78.96 120.578 79.04C119.565 79.12 118.338 79.16 116.898 79.16C116.845 78.6 116.685 77.92 116.418 77.12C116.178 76.32 115.911 75.64 115.618 75.08C116.471 75.1067 117.325 75.1333 118.178 75.16C119.031 75.16 119.591 75.16 119.858 75.16C120.365 75.1333 120.618 74.8667 120.618 74.36V46.16ZM114.258 52.52L117.178 51.04C117.765 51.8933 118.338 52.8267 118.898 53.84C119.485 54.8267 119.938 55.68 120.258 56.4L117.218 58.12C116.925 57.3733 116.485 56.48 115.898 55.44C115.338 54.3733 114.791 53.4 114.258 52.52ZM139.858 58.8H140.738L141.538 58.68L144.298 59.72C143.551 63.4267 142.391 66.5733 140.818 69.16C139.271 71.7467 137.365 73.8667 135.098 75.52C132.858 77.1733 130.338 78.44 127.538 79.32C127.378 78.9733 127.125 78.5467 126.778 78.04C126.458 77.56 126.125 77.08 125.778 76.6C125.431 76.1467 125.111 75.7867 124.818 75.52C127.485 74.8 129.831 73.7867 131.858 72.48C133.911 71.1467 135.618 69.4267 136.978 67.32C138.338 65.1867 139.298 62.6 139.858 59.56V58.8ZM131.218 62.48C132.418 65.44 134.245 68.04 136.698 70.28C139.151 72.4933 142.111 74.12 145.578 75.16C145.258 75.4533 144.898 75.84 144.498 76.32C144.098 76.8 143.711 77.28 143.338 77.76C142.991 78.2667 142.711 78.7333 142.498 79.16C138.765 77.8267 135.618 75.8533 133.058 73.24C130.525 70.6 128.498 67.44 126.978 63.76L131.218 62.48ZM114.258 65.64L117.298 64.12C117.885 65.0533 118.485 66.0667 119.098 67.16C119.738 68.2533 120.205 69.2 120.498 70L117.378 71.76C117.058 70.9333 116.605 69.9467 116.018 68.8C115.431 67.6267 114.845 66.5733 114.258 65.64ZM136.698 43.88H141.058V51.64C141.058 52.1733 141.098 52.56 141.178 52.8C141.258 53.0133 141.405 53.12 141.618 53.12C141.725 53.12 141.871 53.12 142.058 53.12C142.271 53.12 142.458 53.12 142.618 53.12C142.805 53.12 142.965 53.12 143.098 53.12C143.365 53.12 143.685 53.1067 144.058 53.08C144.458 53.0267 144.778 52.9467 145.018 52.84C145.071 53.4267 145.111 54.08 145.138 54.8C145.191 55.4933 145.258 56.1067 145.338 56.64C145.071 56.7733 144.738 56.8533 144.338 56.88C143.938 56.9067 143.551 56.92 143.178 56.92C143.018 56.92 142.805 56.92 142.538 56.92C142.298 56.92 142.045 56.92 141.778 56.92C141.538 56.92 141.325 56.92 141.138 56.92C139.911 56.92 138.978 56.7467 138.338 56.4C137.698 56.0267 137.258 55.44 137.018 54.64C136.805 53.84 136.698 52.8267 136.698 51.6V43.88ZM160.858 67.24H184.778V71.2H160.858V67.24ZM167.338 59.84V61.6H178.378V59.84H167.338ZM167.338 55V56.72H178.378V55H167.338ZM162.898 51.64H183.018V64.92H162.898V51.64ZM170.618 64.48H175.378C175.191 66.3733 174.885 68.12 174.458 69.72C174.031 71.2933 173.351 72.7067 172.418 73.96C171.511 75.2133 170.218 76.3067 168.538 77.24C166.885 78.2 164.711 79 162.018 79.64C161.805 79.0533 161.445 78.3733 160.938 77.6C160.458 76.8267 160.005 76.2133 159.578 75.76C161.898 75.28 163.751 74.7067 165.138 74.04C166.551 73.3733 167.631 72.5733 168.378 71.64C169.125 70.68 169.658 69.6133 169.978 68.44C170.298 67.24 170.511 65.92 170.618 64.48ZM161.298 44.84H172.418V48.72H161.298V44.84ZM165.298 42H169.538V50.88H165.298V42ZM176.098 42H180.338V50.88H176.098V42ZM173.298 44.84H185.058V48.72H173.298V44.84ZM172.738 73.8L175.658 70.84C176.698 71.32 177.858 71.88 179.138 72.52C180.418 73.1333 181.658 73.76 182.858 74.4C184.058 75.0133 185.058 75.5733 185.858 76.08L182.818 79.44C182.071 78.9333 181.111 78.3467 179.938 77.68C178.791 77.0133 177.578 76.3333 176.298 75.64C175.018 74.9467 173.831 74.3333 172.738 73.8ZM148.538 49.48H161.578V53.92H148.538V49.48ZM153.138 42H157.458V79.56H153.138V42ZM153.178 52.76L155.658 53.92C155.365 55.44 155.018 57.04 154.618 58.72C154.245 60.4 153.805 62.0667 153.298 63.72C152.791 65.3467 152.245 66.88 151.658 68.32C151.071 69.7333 150.458 70.9733 149.818 72.04C149.685 71.5333 149.485 70.9867 149.218 70.4C148.951 69.8133 148.671 69.2267 148.378 68.64C148.085 68.0533 147.818 67.5467 147.578 67.12C148.165 66.2667 148.738 65.2667 149.298 64.12C149.885 62.9733 150.418 61.7467 150.898 60.44C151.405 59.1333 151.845 57.8267 152.218 56.52C152.618 55.1867 152.938 53.9333 153.178 52.76ZM157.258 54.36C157.498 54.6533 157.858 55.1867 158.338 55.96C158.818 56.7067 159.325 57.5333 159.858 58.44C160.418 59.32 160.911 60.1467 161.338 60.92C161.791 61.6933 162.111 62.24 162.298 62.56L159.458 65.84C159.245 65.1733 158.951 64.4 158.578 63.52C158.205 62.64 157.805 61.7333 157.378 60.8C156.951 59.84 156.538 58.9467 156.138 58.12C155.738 57.2933 155.391 56.6133 155.098 56.08L157.258 54.36ZM215.538 44.64L218.698 42C219.311 42.4 219.951 42.8667 220.618 43.4C221.311 43.9333 221.951 44.4667 222.538 45C223.151 45.5333 223.645 46.0133 224.018 46.44L220.618 49.36C220.298 48.88 219.845 48.3733 219.258 47.84C218.698 47.28 218.085 46.72 217.418 46.16C216.778 45.6 216.151 45.0933 215.538 44.64ZM189.018 48.84H225.018V53.52H189.018V48.84ZM190.538 58.08H207.858V62.72H190.538V58.08ZM196.578 60.72H201.378V74.28H196.578V60.72ZM189.018 73.64C190.618 73.3733 192.498 73.0667 194.658 72.72C196.845 72.3467 199.151 71.9467 201.578 71.52C204.031 71.0933 206.471 70.6533 208.898 70.2L209.218 74.48C207.031 74.96 204.818 75.44 202.578 75.92C200.338 76.3733 198.178 76.8133 196.098 77.24C194.018 77.6933 192.098 78.1067 190.338 78.48L189.018 73.64ZM208.698 42.16H213.858C213.778 45.4667 213.818 48.6933 213.978 51.84C214.165 54.9867 214.458 57.9333 214.858 60.68C215.258 63.4267 215.738 65.84 216.298 67.92C216.858 70 217.471 71.6267 218.138 72.8C218.831 73.9733 219.565 74.56 220.338 74.56C220.791 74.56 221.125 73.9867 221.338 72.84C221.578 71.6933 221.751 69.8533 221.858 67.32C222.418 67.88 223.085 68.4267 223.858 68.96C224.658 69.4933 225.391 69.88 226.058 70.12C225.845 72.6533 225.485 74.6133 224.978 76C224.498 77.36 223.845 78.2933 223.018 78.8C222.218 79.3333 221.178 79.6 219.898 79.6C218.458 79.6 217.178 79.1067 216.058 78.12C214.938 77.1333 213.965 75.7733 213.138 74.04C212.311 72.28 211.618 70.2133 211.058 67.84C210.498 65.4667 210.045 62.8933 209.698 60.12C209.351 57.32 209.098 54.4 208.938 51.36C208.778 48.32 208.698 45.2533 208.698 42.16Z" fill="white"/>
<defs>
<linearGradient id="paint0_linear_6077_8822" x1="146.995" y1="101.716" x2="146.995" y2="21.0458" gradientUnits="userSpaceOnUse">
<stop stop-color="#F15A22"/>
<stop offset="1" stop-color="#F9A01B"/>
</linearGradient>
</defs>
</svg>
